Jaldi-Bold.ufo
<glyph name="exclam" format="1">
  <advance width="522"/>
  <unicode hex="0021"/>
  <outline>
    <contour>
      <point x="278" y="394" type="line" smooth="yes"/>
      <point x="350" y="394"/>
      <point x="363" y="414"/>
      <point x="368" y="452" type="curve" smooth="yes"/>
      <point x="399" y="701"/>
      <point x="427" y="949"/>
      <point x="457" y="1198" type="curve"/>
      <point x="457" y="1230"/>
      <point x="420" y="1249"/>
      <point x="350" y="1249" type="curve" smooth="yes"/>
      <point x="274" y="1249" type="line" smooth="yes"/>
      <point x="199" y="1249"/>
      <point x="167" y="1229"/>
      <point x="167" y="1191" type="curve" smooth="yes"/>
      <point x="167" y="452" type="line" smooth="yes"/>
      <point x="167" y="414"/>
      <point x="186" y="394"/>
      <point x="258" y="394" type="curve" smooth="yes"/>
    </contour>
    <contour>
      <point x="295" y="-3" type="line" smooth="yes"/>
      <point x="370" y="-3"/>
      <point x="402" y="17"/>
      <point x="402" y="53" type="curve" smooth="yes"/>
      <point x="402" y="217" type="line" smooth="yes"/>
      <point x="402" y="254"/>
      <point x="370" y="274"/>
      <point x="295" y="274" type="curve" smooth="yes"/>
      <point x="239" y="274" type="line" smooth="yes"/>
      <point x="164" y="274"/>
      <point x="131" y="254"/>
      <point x="131" y="217" type="curve" smooth="yes"/>
      <point x="131" y="53" type="line" smooth="yes"/>
      <point x="131" y="17"/>
      <point x="164" y="-3"/>
      <point x="239" y="-3" type="curve" smooth="yes"/>
    </contour>
  </outline>
</glyph>
<glyph name="quotedbl" format="1">
  <advance width="337"/>
  <unicode hex="0022"/>
  <outline>
    <contour>
      <point x="257" y="490" type="line" smooth="yes"/>
      <point x="280" y="490"/>
      <point x="290" y="500"/>
      <point x="294" y="521" type="curve" smooth="yes"/>
      <point x="301" y="584"/>
      <point x="318" y="700"/>
      <point x="318" y="708" type="curve"/>
      <point x="318" y="730"/>
      <point x="298" y="742"/>
      <point x="254" y="742" type="curve" smooth="yes"/>
      <point x="243" y="742" type="line" smooth="yes"/>
      <point x="199" y="742"/>
      <point x="179" y="730"/>
      <point x="179" y="708" type="curve" smooth="yes"/>
      <point x="179" y="703" type="line"/>
      <point x="203" y="521" type="line" smooth="yes"/>
      <point x="206" y="500"/>
      <point x="216" y="490"/>
      <point x="240" y="490" type="curve"/>
    </contour>
    <contour>
      <point x="98" y="490" type="line" smooth="yes"/>
      <point x="120" y="490"/>
      <point x="131" y="500"/>
      <point x="134" y="521" type="curve" smooth="yes"/>
      <point x="141" y="584"/>
      <point x="157" y="700"/>
      <point x="157" y="708" type="curve"/>
      <point x="157" y="730"/>
      <point x="138" y="742"/>
      <point x="94" y="742" type="curve" smooth="yes"/>
      <point x="84" y="742" type="line" smooth="yes"/>
      <point x="39" y="742"/>
      <point x="20" y="730"/>
      <point x="20" y="708" type="curve" smooth="yes"/>
      <point x="20" y="703" type="line"/>
      <point x="43" y="521" type="line" smooth="yes"/>
      <point x="46" y="500"/>
      <point x="56" y="490"/>
      <point x="79" y="490" type="curve"/>
    </contour>
  </outline>
</glyph>
<glyph name="numbersign" format="1">
  <advance width="249"/>
  <unicode hex="0023"/>
  <outline>
    <contour>
      <point x="45" y="-1" type="line" smooth="yes"/>
      <point x="30.5" y="-1"/>
      <point x="24" y="2"/>
      <point x="24" y="10" type="curve" smooth="yes"/>
      <point x="24" y="12.5"/>
      <point x="25.5" y="19.5"/>
      <point x="37.5" y="85.5" type="curve"/>
      <point x="17.5" y="85.5" type="line" smooth="yes"/>
      <point x="8" y="85.5"/>
      <point x="3.5" y="92.5"/>
      <point x="3.5" y="108.5" type="curve" smooth="yes"/>
      <point x="3.5" y="113" type="line" smooth="yes"/>
      <point x="3.5" y="129.5"/>
      <point x="8" y="136.5"/>
      <point x="17.5" y="136.5" type="curve" smooth="yes"/>
      <point x="47" y="136.5" type="line"/>
      <point x="57" y="188" type="line"/>
      <point x="34.5" y="188" type="line" smooth="yes"/>
      <point x="24.5" y="188"/>
      <point x="20.5" y="195"/>
      <point x="20.5" y="211" type="curve" smooth="yes"/>
      <point x="20.5" y="216" type="line" smooth="yes"/>
      <point x="20.5" y="232"/>
      <point x="24.5" y="239"/>
      <point x="34.5" y="239" type="curve" smooth="yes"/>
      <point x="66" y="239" type="line"/>
      <point x="78.5" y="305" type="line" smooth="yes"/>
      <point x="80" y="315"/>
      <point x="89" y="319.5"/>
      <point x="104.5" y="319.5" type="curve" smooth="yes"/>
      <point x="110.5" y="319.5" type="line" smooth="yes"/>
      <point x="125" y="319.5"/>
      <point x="131.5" y="316"/>
      <point x="131.5" y="309.5" type="curve" smooth="yes"/>
      <point x="119" y="239" type="line"/>
      <point x="162.5" y="239" type="line"/>
      <point x="174.5" y="305" type="line" smooth="yes"/>
      <point x="176.5" y="315"/>
      <point x="185.5" y="319.5"/>
      <point x="201" y="319.5" type="curve" smooth="yes"/>
      <point x="207" y="319.5" type="line" smooth="yes"/>
      <point x="221.5" y="319.5"/>
      <point x="228" y="316"/>
      <point x="228" y="309.5" type="curve" smooth="yes"/>
      <point x="215.5" y="239" type="line"/>
      <point x="230.5" y="239" type="line" smooth="yes"/>
      <point x="240.5" y="239"/>
      <point x="244.5" y="232"/>
      <point x="244.5" y="216" type="curve" smooth="yes"/>
      <point x="244.5" y="211" type="line" smooth="yes"/>
      <point x="244.5" y="195"/>
      <point x="240.5" y="188"/>
      <point x="230.5" y="188" type="curve" smooth="yes"/>
      <point x="206" y="188" type="line"/>
      <point x="196" y="136.5" type="line"/>
      <point x="216" y="136.5" type="line" smooth="yes"/>
      <point x="225.5" y="136.5"/>
      <point x="229.5" y="129.5"/>
      <point x="229.5" y="113" type="curve" smooth="yes"/>
      <point x="229.5" y="108.5" type="line" smooth="yes"/>
      <point x="229.5" y="92.5"/>
      <point x="225.5" y="85.5"/>
      <point x="216" y="85.5" type="curve" smooth="yes"/>
      <point x="187" y="85.5" type="line"/>
      <point x="173.5" y="13.5" type="line" smooth="yes"/>
      <point x="171.5" y="3.5"/>
      <point x="163" y="-1"/>
      <point x="147.5" y="-1" type="curve" smooth="yes"/>
      <point x="141.5" y="-1" type="line" smooth="yes"/>
      <point x="127" y="-1"/>
      <point x="120" y="2"/>
      <point x="120" y="10" type="curve" smooth="yes"/>
      <point x="120" y="12.5"/>
      <point x="122" y="19.5"/>
      <point x="134" y="85.5" type="curve"/>
      <point x="90.5" y="85.5" type="line"/>
      <point x="77" y="13.5" type="line" smooth="yes"/>
      <point x="75" y="3.5"/>
      <point x="66.5" y="-1"/>
      <point x="51.5" y="-1" type="curve" smooth="yes"/>
    </contour>
    <contour>
      <point x="99.5" y="136.5" type="line"/>
      <point x="143.5" y="136.5" type="line"/>
      <point x="153.5" y="188" type="line"/>
      <point x="109.5" y="188" type="line"/>
    </contour>
  </outline>
</glyph>
<glyph name="dollar" format="1">
  <advance width="231"/>
  <unicode hex="0024"/>
  <outline>
    <contour>
      <point x="122.5" y="-37.5" type="curve" smooth="yes"/>
      <point x="113" y="-37.5"/>
      <point x="108.5" y="-33.5"/>
      <point x="108.5" y="-24" type="curve" smooth="yes"/>
      <point x="108.5" y="-3.5" type="line"/>
      <point x="44" y="-1.5"/>
      <point x="9" y="22"/>
      <point x="9" y="37.5" type="curve" smooth="yes"/>
      <point x="9" y="51.5"/>
      <point x="28" y="79"/>
      <point x="37.5" y="79" type="curve" smooth="yes"/>
      <point x="46" y="79"/>
      <point x="72" y="57.5"/>
      <point x="108.5" y="57.5" type="curve"/>
      <point x="108.5" y="134" type="line"/>
      <point x="67" y="149.5"/>
      <point x="15.5" y="168"/>
      <point x="15.5" y="234.5" type="curve" smooth="yes"/>
      <point x="15.5" y="295.5"/>
      <point x="60" y="324"/>
      <point x="108.5" y="329" type="curve"/>
      <point x="108.5" y="344" type="line" smooth="yes"/>
      <point x="108.5" y="353.5"/>
      <point x="113" y="358"/>
      <point x="121" y="358" type="curve" smooth="yes"/>
      <point x="131" y="358"/>
      <point x="135" y="353.5"/>
      <point x="135" y="344" type="curve" smooth="yes"/>
      <point x="135" y="329.5" type="line"/>
      <point x="179.5" y="327.5"/>
      <point x="209.5" y="312"/>
      <point x="209.5" y="297.5" type="curve" smooth="yes"/>
      <point x="209.5" y="284.5"/>
      <point x="195.5" y="257"/>
      <point x="184" y="257" type="curve" smooth="yes"/>
      <point x="178" y="257"/>
      <point x="164.5" y="267.5"/>
      <point x="135" y="268.5" type="curve"/>
      <point x="135" y="197.5" type="line"/>
      <point x="174.5" y="180.5"/>
      <point x="223.5" y="161"/>
      <point x="223.5" y="99.5" type="curve" smooth="yes"/>
      <point x="223.5" y="31"/>
      <point x="180.5" y="2.5"/>
      <point x="135" y="-3" type="curve"/>
      <point x="135" y="-24" type="line" smooth="yes"/>
      <point x="135" y="-33.5"/>
      <point x="131" y="-37.5"/>
    </contour>
    <contour>
      <point x="108.5" y="209.5" type="curve"/>
      <point x="108.5" y="265.5" type="line"/>
      <point x="88" y="260.5"/>
      <point x="84.5" y="249"/>
      <point x="84.5" y="241" type="curve" smooth="yes"/>
      <point x="84.5" y="227"/>
      <point x="94" y="217.5"/>
    </contour>
    <contour>
      <point x="135" y="62.5" type="line"/>
      <point x="146.5" y="67"/>
      <point x="155" y="76"/>
      <point x="155" y="91.5" type="curve" smooth="yes"/>
      <point x="155" y="104.5"/>
      <point x="147.5" y="114.5"/>
      <point x="135" y="121.5" type="curve"/>
    </contour>
  </outline>
</glyph>
<glyph name="percent" format="1">
  <advance width="357"/>
  <unicode hex="0025"/>
  <outline>
    <contour>
      <point x="91" y="173.5" type="curve" smooth="yes"/>
      <point x="58" y="173.5"/>
      <point x="21" y="187"/>
      <point x="21" y="251.5" type="curve" smooth="yes"/>
      <point x="21" y="316.5"/>
      <point x="58" y="330"/>
      <point x="91" y="330" type="curve" smooth="yes"/>
      <point x="123.5" y="330"/>
      <point x="161" y="316.5"/>
      <point x="161" y="251.5" type="curve" smooth="yes"/>
      <point x="161" y="187"/>
      <point x="123.5" y="173.5"/>
    </contour>
    <contour>
      <point x="81" y="-1" type="line" smooth="yes"/>
      <point x="74.5" y="-1"/>
      <point x="71.5" y="2"/>
      <point x="71.5" y="5" type="curve" smooth="yes"/>
      <point x="71.5" y="7"/>
      <point x="72" y="9.5"/>
      <point x="73.5" y="12" type="curve" smooth="yes"/>
      <point x="240" y="314" type="line" smooth="yes"/>
      <point x="244.5" y="322.5"/>
      <point x="250.5" y="327"/>
      <point x="260.5" y="327" type="curve" smooth="yes"/>
      <point x="281" y="327" type="line" smooth="yes"/>
      <point x="287.5" y="327"/>
      <point x="291" y="324.5"/>
      <point x="291" y="320.5" type="curve" smooth="yes"/>
      <point x="291" y="319"/>
      <point x="290" y="317"/>
      <point x="288.5" y="314" type="curve" smooth="yes"/>
      <point x="122" y="12" type="line" smooth="yes"/>
      <point x="117.5" y="3.5"/>
      <point x="111.5" y="-1"/>
      <point x="101.5" y="-1" type="curve" smooth="yes"/>
    </contour>
    <contour>
      <point x="91" y="211.5" type="curve" smooth="yes"/>
      <point x="109" y="211.5"/>
      <point x="113" y="233.5"/>
      <point x="113" y="251.5" type="curve" smooth="yes"/>
      <point x="113" y="270"/>
      <point x="109" y="290"/>
      <point x="91" y="290" type="curve" smooth="yes"/>
      <point x="72.5" y="290"/>
      <point x="68.5" y="270"/>
      <point x="68.5" y="251.5" type="curve" smooth="yes"/>
      <point x="68.5" y="233.5"/>
      <point x="72.5" y="211.5"/>
    </contour>
    <contour>
      <point x="271" y="-3.5" type="curve" smooth="yes"/>
      <point x="238.5" y="-3.5"/>
      <point x="201.5" y="10"/>
      <point x="201.5" y="74.5" type="curve" smooth="yes"/>
      <point x="201.5" y="139.5"/>
      <point x="238.5" y="153"/>
      <point x="271" y="153" type="curve" smooth="yes"/>
      <point x="304" y="153"/>
      <point x="341" y="139.5"/>
      <point x="341" y="74.5" type="curve" smooth="yes"/>
      <point x="341" y="10"/>
      <point x="304" y="-3.5"/>
    </contour>
    <contour>
      <point x="271" y="34.5" type="curve" smooth="yes"/>
      <point x="289.5" y="34.5"/>
      <point x="293" y="56.5"/>
      <point x="293" y="74.5" type="curve" smooth="yes"/>
      <point x="293" y="92.5"/>
      <point x="289.5" y="113"/>
      <point x="271" y="113" type="curve" smooth="yes"/>
      <point x="253" y="113"/>
      <point x="249" y="92.5"/>
      <point x="249" y="74.5" type="curve" smooth="yes"/>
      <point x="249" y="56.5"/>
      <point x="253" y="34.5"/>
    </contour>
  </outline>
</glyph>
<glyph name="ampersand" format="1">
  <advance width="1109"/>
  <unicode hex="0026"/>
  <outline>
    <contour>
      <point x="583" y="-15"/>
      <point x="665" y="7"/>
      <point x="764" y="58" type="curve"/>
      <point x="809" y="9"/>
      <point x="873" y="-15"/>
      <point x="959" y="-15" type="curve" smooth="yes"/>
      <point x="1014" y="-15"/>
      <point x="1129" y="-9"/>
      <point x="1129" y="73" type="curve" smooth="yes"/>
      <point x="1129" y="87"/>
      <point x="1109" y="201"/>
      <point x="1074" y="201" type="curve" smooth="yes"/>
      <point x="1063" y="201"/>
      <point x="1042" y="194"/>
      <point x="1026" y="194" type="curve" smooth="yes"/>
      <point x="980" y="194"/>
      <point x="962" y="217"/>
      <point x="962" y="271" type="curve" smooth="yes"/>
      <point x="962" y="549" type="line"/>
      <point x="1049" y="549" type="line" smooth="yes"/>
      <point x="1087" y="549"/>
      <point x="1102" y="576"/>
      <point x="1102" y="638" type="curve" smooth="yes"/>
      <point x="1102" y="669" type="line" smooth="yes"/>
      <point x="1102" y="730"/>
      <point x="1087" y="758"/>
      <point x="1049" y="758" type="curve" smooth="yes"/>
      <point x="962" y="758" type="line"/>
      <point x="962" y="926" type="line" smooth="yes"/>
      <point x="962" y="964"/>
      <point x="935" y="983"/>
      <point x="873" y="983" type="curve" smooth="yes"/>
      <point x="818" y="983" type="line" smooth="yes"/>
      <point x="759" y="983"/>
      <point x="727" y="964"/>
      <point x="722" y="926" type="curve" smooth="yes"/>
      <point x="699" y="758" type="line"/>
      <point x="532" y="758" type="line" smooth="yes"/>
      <point x="416" y="758"/>
      <point x="348" y="816"/>
      <point x="348" y="905" type="curve" smooth="yes"/>
      <point x="348" y="993"/>
      <point x="397" y="1051"/>
      <point x="493" y="1051" type="curve" smooth="yes"/>
      <point x="534" y="1051"/>
      <point x="571" y="1039"/>
      <point x="580" y="1039" type="curve" smooth="yes"/>
      <point x="610" y="1039"/>
      <point x="642" y="1099"/>
      <point x="642" y="1184" type="curve" smooth="yes"/>
      <point x="642" y="1254"/>
      <point x="529" y="1259"/>
      <point x="447" y="1259" type="curve" smooth="yes"/>
      <point x="225" y="1259"/>
      <point x="82" y="1138"/>
      <point x="82" y="947" type="curve" smooth="yes"/>
      <point x="82" y="826"/>
      <point x="146" y="730"/>
      <point x="247" y="688" type="curve"/>
      <point x="247" y="681" type="line"/>
      <point x="107" y="628"/>
      <point x="41" y="508"/>
      <point x="41" y="363" type="curve" smooth="yes"/>
      <point x="41" y="126"/>
      <point x="206" y="-15"/>
      <point x="443" y="-15" type="curve" smooth="yes"/>
    </contour>
    <contour>
      <point x="379" y="194"/>
      <point x="307" y="256"/>
      <point x="307" y="367" type="curve" smooth="yes"/>
      <point x="307" y="484"/>
      <point x="367" y="549"/>
      <point x="515" y="549" type="curve" smooth="yes"/>
      <point x="699" y="549" type="line"/>
      <point x="699" y="232" type="line" smooth="yes"/>
      <point x="699" y="196"/>
      <point x="711" y="159"/>
      <point x="732" y="123" type="curve"/>
      <point x="798" y="292" type="line"/>
      <point x="660" y="213"/>
      <point x="571" y="194"/>
      <point x="484" y="194" type="curve" smooth="yes"/>
    </contour>
  </outline>
</glyph>
<glyph name="quotesingle" format="1">
  <advance width="194"/>
  <unicode hex="0027"/>
  <outline>
    <contour>
      <point x="109" y="490" type="line" smooth="yes"/>
      <point x="131" y="490"/>
      <point x="142" y="500"/>
      <point x="146" y="521" type="curve" smooth="yes"/>
      <point x="152" y="584"/>
      <point x="169" y="700"/>
      <point x="169" y="708" type="curve"/>
      <point x="169" y="730"/>
      <point x="149" y="742"/>
      <point x="105" y="742" type="curve" smooth="yes"/>
      <point x="95" y="742" type="line" smooth="yes"/>
      <point x="51" y="742"/>
      <point x="31" y="730"/>
      <point x="31" y="708" type="curve" smooth="yes"/>
      <point x="31" y="703" type="line"/>
      <point x="54" y="521" type="line" smooth="yes"/>
      <point x="57" y="500"/>
      <point x="69" y="490"/>
      <point x="91" y="490" type="curve"/>
    </contour>
  </outline>
</glyph>
<glyph name="parenleft" format="1">
  <advance width="319"/>
  <unicode hex="0028"/>
  <outline>
    <contour>
      <point x="262" y="-220"/>
      <point x="301" y="-195"/>
      <point x="301" y="-171" type="curve" smooth="yes"/>
      <point x="301" y="-165"/>
      <point x="300" y="-158"/>
      <point x="296" y="-150" type="curve" smooth="yes"/>
      <point x="210" y="10"/>
      <point x="178" y="147"/>
      <point x="178" y="303" type="curve" smooth="yes"/>
      <point x="178" y="462"/>
      <point x="210" y="597"/>
      <point x="296" y="757" type="curve" smooth="yes"/>
      <point x="300" y="765"/>
      <point x="301" y="772"/>
      <point x="301" y="780" type="curve" smooth="yes"/>
      <point x="301" y="803"/>
      <point x="262" y="828"/>
      <point x="240" y="828" type="curve" smooth="yes"/>
      <point x="230" y="828"/>
      <point x="221" y="823"/>
      <point x="212" y="811" type="curve" smooth="yes"/>
      <point x="109" y="664"/>
      <point x="54" y="488"/>
      <point x="54" y="303" type="curve" smooth="yes"/>
      <point x="54" y="119"/>
      <point x="109" y="-56"/>
      <point x="212" y="-203" type="curve" smooth="yes"/>
      <point x="221" y="-214"/>
      <point x="230" y="-220"/>
      <point x="240" y="-220" type="curve" smooth="yes"/>
    </contour>
  </outline>
</glyph>
<glyph name="parenright" format="1">
  <advance width="319"/>
  <unicode hex="0029"/>
  <outline>
    <contour>
      <point x="85" y="-220"/>
      <point x="94" y="-214"/>
      <point x="102" y="-203" type="curve" smooth="yes"/>
      <point x="205" y="-56"/>
      <point x="261" y="119"/>
      <point x="261" y="303" type="curve" smooth="yes"/>
      <point x="261" y="488"/>
      <point x="205" y="664"/>
      <point x="102" y="811" type="curve" smooth="yes"/>
      <point x="94" y="823"/>
      <point x="85" y="828"/>
      <point x="73" y="828" type="curve" smooth="yes"/>
      <point x="53" y="828"/>
      <point x="13" y="803"/>
      <point x="13" y="780" type="curve" smooth="yes"/>
      <point x="13" y="772"/>
      <point x="14" y="765"/>
      <point x="19" y="757" type="curve" smooth="yes"/>
      <point x="104" y="597"/>
      <point x="137" y="462"/>
      <point x="137" y="303" type="curve" smooth="yes"/>
      <point x="137" y="147"/>
      <point x="104" y="10"/>
      <point x="19" y="-150" type="curve" smooth="yes"/>
      <point x="14" y="-158"/>
      <point x="13" y="-165"/>
      <point x="13" y="-171" type="curve" smooth="yes"/>
      <point x="13" y="-195"/>
      <point x="53" y="-220"/>
      <point x="73" y="-220" type="curve" smooth="yes"/>
    </contour>
  </outline>
</glyph>
<glyph name="asterisk" format="1">
  <advance width="174"/>
  <unicode hex="002A"/>
  <outline>
    <contour>
      <point x="46" y="192" type="curve" smooth="yes"/>
      <point x="40" y="192"/>
      <point x="31" y="200"/>
      <point x="31" y="205" type="curve" smooth="yes"/>
      <point x="31" y="208"/>
      <point x="32" y="211"/>
      <point x="35" y="215" type="curve" smooth="yes"/>
      <point x="61" y="251" type="line"/>
      <point x="26" y="263" type="line" smooth="yes"/>
      <point x="19" y="265"/>
      <point x="16" y="268"/>
      <point x="16" y="273" type="curve" smooth="yes"/>
      <point x="16" y="280"/>
      <point x="19" y="291"/>
      <point x="29" y="291" type="curve" smooth="yes"/>
      <point x="31" y="291"/>
      <point x="33" y="290"/>
      <point x="35" y="290" type="curve" smooth="yes"/>
      <point x="71" y="278" type="line"/>
      <point x="71" y="316" type="line" smooth="yes"/>
      <point x="71" y="326"/>
      <point x="75" y="330"/>
      <point x="85" y="330" type="curve" smooth="yes"/>
      <point x="95" y="330"/>
      <point x="99" y="326"/>
      <point x="99" y="316" type="curve" smooth="yes"/>
      <point x="99" y="278" type="line"/>
      <point x="134" y="290" type="line" smooth="yes"/>
      <point x="136" y="290"/>
      <point x="138" y="291"/>
      <point x="140" y="291" type="curve" smooth="yes"/>
      <point x="146" y="291"/>
      <point x="154" y="285"/>
      <point x="154" y="273" type="curve" smooth="yes"/>
      <point x="154" y="268"/>
      <point x="150" y="265"/>
      <point x="143" y="263" type="curve" smooth="yes"/>
      <point x="108" y="251" type="line"/>
      <point x="134" y="215" type="line" smooth="yes"/>
      <point x="137" y="211"/>
      <point x="138" y="208"/>
      <point x="138" y="205" type="curve" smooth="yes"/>
      <point x="138" y="200"/>
      <point x="129" y="192"/>
      <point x="123" y="192" type="curve" smooth="yes"/>
      <point x="119" y="192"/>
      <point x="115" y="194"/>
      <point x="112" y="199" type="curve" smooth="yes"/>
      <point x="85" y="237" type="line"/>
      <point x="57" y="199" type="line" smooth="yes"/>
      <point x="53" y="194"/>
      <point x="50" y="192"/>
    </contour>
  </outline>
</glyph>
<glyph name="plus" format="1">
  <advance width="996"/>
  <unicode hex="002B"/>
  <outline>
    <contour>
      <point x="508" y="0" type="line" smooth="yes"/>
      <point x="571" y="0"/>
      <point x="597" y="17"/>
      <point x="597" y="53" type="curve" smooth="yes"/>
      <point x="597" y="324" type="line"/>
      <point x="870" y="324" type="line" smooth="yes"/>
      <point x="906" y="324"/>
      <point x="923" y="350"/>
      <point x="923" y="413" type="curve" smooth="yes"/>
      <point x="923" y="425" type="line" smooth="yes"/>
      <point x="923" y="488"/>
      <point x="906" y="514"/>
      <point x="870" y="514" type="curve" smooth="yes"/>
      <point x="597" y="514" type="line"/>
      <point x="597" y="788" type="line" smooth="yes"/>
      <point x="597" y="826"/>
      <point x="571" y="841"/>
      <point x="508" y="841" type="curve" smooth="yes"/>
      <point x="484" y="841" type="line" smooth="yes"/>
      <point x="421" y="841"/>
      <point x="394" y="826"/>
      <point x="394" y="788" type="curve" smooth="yes"/>
      <point x="394" y="514" type="line"/>
      <point x="126" y="514" type="line" smooth="yes"/>
      <point x="89" y="514"/>
      <point x="73" y="488"/>
      <point x="73" y="425" type="curve" smooth="yes"/>
      <point x="73" y="413" type="line" smooth="yes"/>
      <point x="73" y="350"/>
      <point x="89" y="324"/>
      <point x="126" y="324" type="curve" smooth="yes"/>
      <point x="394" y="324" type="line"/>
      <point x="394" y="53" type="line" smooth="yes"/>
      <point x="394" y="17"/>
      <point x="421" y="0"/>
      <point x="484" y="0" type="curve" smooth="yes"/>
    </contour>
  </outline>
</glyph>
<glyph name="comma" format="1">
  <advance width="210"/>
  <unicode hex="002C"/>
  <outline>
    <contour>
      <point x="85" y="-131"/>
      <point x="184" y="-2"/>
      <point x="184" y="117" type="curve" smooth="yes"/>
      <point x="184" y="143"/>
      <point x="165" y="163"/>
      <point x="120" y="163" type="curve" smooth="yes"/>
      <point x="102" y="163" type="line" smooth="yes"/>
      <point x="56" y="163"/>
      <point x="38" y="146"/>
      <point x="38" y="117" type="curve" smooth="yes"/>
      <point x="38" y="13"/>
      <point x="14" y="-40"/>
      <point x="0" y="-74" type="curve" smooth="yes"/>
      <point x="-6" y="-87"/>
      <point x="-9" y="-100"/>
      <point x="-9" y="-109" type="curve" smooth="yes"/>
      <point x="-9" y="-126"/>
      <point x="20" y="-131"/>
      <point x="39" y="-131" type="curve" smooth="yes"/>
    </contour>
  </outline>
</glyph>
<glyph name="hyphen" format="1">
  <advance width="149"/>
  <unicode hex="002D"/>
  <outline>
    <contour>
      <point x="27" y="99" type="line" smooth="yes"/>
      <point x="17" y="99"/>
      <point x="13" y="106"/>
      <point x="13" y="122" type="curve" smooth="yes"/>
      <point x="13" y="126" type="line" smooth="yes"/>
      <point x="13" y="142"/>
      <point x="17" y="149"/>
      <point x="27" y="149" type="curve" smooth="yes"/>
      <point x="122" y="149" type="line" smooth="yes"/>
      <point x="132" y="149"/>
      <point x="136" y="142"/>
      <point x="136" y="126" type="curve" smooth="yes"/>
      <point x="136" y="122" type="line" smooth="yes"/>
      <point x="136" y="106"/>
      <point x="132" y="99"/>
      <point x="122" y="99" type="curve" smooth="yes"/>
    </contour>
  </outline>
</glyph>
<glyph name="period" format="1">
  <advance width="93"/>
  <unicode hex="002E"/>
  <outline>
    <contour>
      <point x="38" y="-1" type="line" smooth="yes"/>
      <point x="18.5" y="-1"/>
      <point x="10.5" y="4"/>
      <point x="10.5" y="14" type="curve" smooth="yes"/>
      <point x="10.5" y="57" type="line" smooth="yes"/>
      <point x="10.5" y="66.5"/>
      <point x="18.5" y="72"/>
      <point x="38" y="72" type="curve" smooth="yes"/>
      <point x="53" y="72" type="line" smooth="yes"/>
      <point x="72.5" y="72"/>
      <point x="81" y="66.5"/>
      <point x="81" y="57" type="curve" smooth="yes"/>
      <point x="81" y="14" type="line" smooth="yes"/>
      <point x="81" y="4"/>
      <point x="72.5" y="-1"/>
      <point x="53" y="-1" type="curve" smooth="yes"/>
    </contour>
  </outline>
</glyph>
<glyph name="slash" format="1">
  <advance width="173"/>
  <unicode hex="002F"/>
  <outline>
    <contour>
      <point x="6" y="-37" type="line" smooth="yes"/>
      <point x="-8" y="-37"/>
      <point x="-14" y="-34"/>
      <point x="-14" y="-30" type="curve" smooth="yes"/>
      <point x="-14" y="-28"/>
      <point x="-13" y="-26"/>
      <point x="-12" y="-23" type="curve" smooth="yes"/>
      <point x="124" y="313" type="line" smooth="yes"/>
      <point x="128" y="324"/>
      <point x="138" y="327"/>
      <point x="152" y="327" type="curve" smooth="yes"/>
      <point x="163" y="327" type="line" smooth="yes"/>
      <point x="177" y="327"/>
      <point x="183" y="325"/>
      <point x="183" y="320" type="curve" smooth="yes"/>
      <point x="183" y="318"/>
      <point x="182" y="316"/>
      <point x="182" y="313" type="curve" smooth="yes"/>
      <point x="46" y="-23" type="line" smooth="yes"/>
      <point x="42" y="-33"/>
      <point x="32" y="-37"/>
      <point x="17" y="-37" type="curve" smooth="yes"/>
    </contour>
  </outline>
</glyph>
<glyph name="zero" format="1">
  <advance width="952"/>
  <unicode hex="0030"/>
  <outline>
    <contour>
      <point x="738" y="-15"/>
      <point x="896" y="222"/>
      <point x="896" y="623" type="curve" smooth="yes"/>
      <point x="896" y="1022"/>
      <point x="738" y="1259"/>
      <point x="475" y="1259" type="curve" smooth="yes"/>
      <point x="212" y="1259"/>
      <point x="53" y="1022"/>
      <point x="53" y="623" type="curve" smooth="yes"/>
      <point x="53" y="222"/>
      <point x="212" y="-15"/>
      <point x="475" y="-15" type="curve" smooth="yes"/>
    </contour>
    <contour>
      <point x="375" y="194"/>
      <point x="320" y="340"/>
      <point x="320" y="623" type="curve" smooth="yes"/>
      <point x="320" y="905"/>
      <point x="375" y="1051"/>
      <point x="475" y="1051" type="curve" smooth="yes"/>
      <point x="575" y="1051"/>
      <point x="630" y="905"/>
      <point x="630" y="623" type="curve" smooth="yes"/>
      <point x="630" y="340"/>
      <point x="575" y="194"/>
      <point x="475" y="194" type="curve" smooth="yes"/>
    </contour>
  </outline>
</glyph>
<glyph name="one" format="1">
  <advance width="565"/>
  <unicode hex="0031"/>
  <outline>
    <contour>
      <point x="487" y="0" type="line" smooth="yes"/>
      <point x="508" y="0"/>
      <point x="518" y="16"/>
      <point x="518" y="53" type="curve" smooth="yes"/>
      <point x="518" y="71" type="line" smooth="yes"/>
      <point x="518" y="108"/>
      <point x="508" y="124"/>
      <point x="487" y="124" type="curve" smooth="yes"/>
      <point x="373" y="124" type="line"/>
      <point x="373" y="719" type="line" smooth="yes"/>
      <point x="373" y="731"/>
      <point x="347" y="744"/>
      <point x="330" y="744" type="curve"/>
      <point x="67" y="696" type="line" smooth="yes"/>
      <point x="49" y="691"/>
      <point x="39" y="681"/>
      <point x="39" y="666" type="curve" smooth="yes"/>
      <point x="39" y="636"/>
      <point x="45" y="577"/>
      <point x="73" y="577" type="curve"/>
      <point x="216" y="598" type="line"/>
      <point x="216" y="124" type="line"/>
      <point x="76" y="124" type="line" smooth="yes"/>
      <point x="55" y="124"/>
      <point x="44" y="108"/>
      <point x="44" y="71" type="curve" smooth="yes"/>
      <point x="44" y="53" type="line" smooth="yes"/>
      <point x="44" y="16"/>
      <point x="55" y="0"/>
      <point x="76" y="0" type="curve" smooth="yes"/>
    </contour>
  </outline>
</glyph>
<glyph name="two" format="1">
  <advance width="250"/>
  <unicode hex="0032"/>
  <outline>
    <contour>
      <point x="29" y="0" type="line" smooth="yes"/>
      <point x="22" y="0"/>
      <point x="16" y="28"/>
      <point x="16" y="41" type="curve" smooth="yes"/>
      <point x="16" y="45"/>
      <point x="16" y="47"/>
      <point x="17" y="48" type="curve" smooth="yes"/>
      <point x="135" y="193" type="line" smooth="yes"/>
      <point x="145" y="205"/>
      <point x="153" y="220"/>
      <point x="153" y="237" type="curve" smooth="yes"/>
      <point x="153" y="263"/>
      <point x="134" y="275"/>
      <point x="109" y="275" type="curve" smooth="yes"/>
      <point x="79" y="275"/>
      <point x="63" y="255"/>
      <point x="55" y="255" type="curve" smooth="yes"/>
      <point x="40" y="255"/>
      <point x="28" y="275"/>
      <point x="28" y="287" type="curve" smooth="yes"/>
      <point x="28" y="315"/>
      <point x="77" y="330"/>
      <point x="121" y="330" type="curve" smooth="yes"/>
      <point x="187" y="330"/>
      <point x="223" y="292"/>
      <point x="223" y="239" type="curve" smooth="yes"/>
      <point x="223" y="209"/>
      <point x="211" y="183"/>
      <point x="194" y="163" type="curve" smooth="yes"/>
      <point x="106" y="55" type="line"/>
      <point x="214" y="55" type="line" smooth="yes"/>
      <point x="224" y="55"/>
      <point x="228" y="48"/>
      <point x="228" y="31" type="curve" smooth="yes"/>
      <point x="228" y="24" type="line" smooth="yes"/>
      <point x="228" y="7"/>
      <point x="224" y="0"/>
      <point x="214" y="0" type="curve" smooth="yes"/>
    </contour>
  </outline>
</glyph>
<glyph name="three" format="1">
  <advance width="565"/>
  <unicode hex="0033"/>
  <outline>
    <contour>
      <point x="409" y="-8"/>
      <point x="506" y="75"/>
      <point x="506" y="215" type="curve" smooth="yes"/>
      <point x="506" y="303"/>
      <point x="467" y="373"/>
      <point x="383" y="405" type="curve"/>
      <point x="383" y="410" type="line"/>
      <point x="444" y="434"/>
      <point x="482" y="490"/>
      <point x="482" y="563" type="curve" smooth="yes"/>
      <point x="482" y="676"/>
      <point x="397" y="749"/>
      <point x="265" y="749" type="curve" smooth="yes"/>
      <point x="161" y="749"/>
      <point x="61" y="723"/>
      <point x="61" y="671" type="curve" smooth="yes"/>
      <point x="61" y="643"/>
      <point x="92" y="591"/>
      <point x="114" y="591" type="curve" smooth="yes"/>
      <point x="131" y="591"/>
      <point x="158" y="624"/>
      <point x="238" y="624" type="curve" smooth="yes"/>
      <point x="295" y="624"/>
      <point x="323" y="590"/>
      <point x="323" y="538" type="curve" smooth="yes"/>
      <point x="323" y="486"/>
      <point x="284" y="450"/>
      <point x="214" y="450" type="curve" smooth="yes"/>
      <point x="194" y="450" type="line" smooth="yes"/>
      <point x="172" y="450"/>
      <point x="163" y="434"/>
      <point x="163" y="397" type="curve" smooth="yes"/>
      <point x="163" y="379" type="line" smooth="yes"/>
      <point x="163" y="341"/>
      <point x="172" y="326"/>
      <point x="194" y="326" type="curve" smooth="yes"/>
      <point x="225" y="326" type="line" smooth="yes"/>
      <point x="314" y="326"/>
      <point x="348" y="288"/>
      <point x="348" y="218" type="curve" smooth="yes"/>
      <point x="348" y="152"/>
      <point x="305" y="116"/>
      <point x="243" y="116" type="curve" smooth="yes"/>
      <point x="158" y="116"/>
      <point x="109" y="159"/>
      <point x="89" y="159" type="curve" smooth="yes"/>
      <point x="66" y="159"/>
      <point x="39" y="99"/>
      <point x="39" y="78" type="curve" smooth="yes"/>
      <point x="39" y="13"/>
      <point x="189" y="-8"/>
      <point x="268" y="-8" type="curve" smooth="yes"/>
    </contour>
  </outline>
</glyph>
<glyph name="four" format="1">
  <advance width="250"/>
  <unicode hex="0034"/>
  <outline>
    <contour>
      <point x="172.5" y="-1" type="line" smooth="yes"/>
      <point x="153" y="-1"/>
      <point x="144.5" y="4"/>
      <point x="144.5" y="14" type="curve" smooth="yes"/>
      <point x="144.5" y="66" type="line"/>
      <point x="22.5" y="66" type="line" smooth="yes"/>
      <point x="14.5" y="66"/>
      <point x="5" y="97"/>
      <point x="5" y="109.5" type="curve" smooth="yes"/>
      <point x="5" y="112"/>
      <point x="5.5" y="113.5"/>
      <point x="6" y="114.5" type="curve" smooth="yes"/>
      <point x="144.5" y="318.5" type="line" smooth="yes"/>
      <point x="150" y="326"/>
      <point x="159.5" y="327"/>
      <point x="173" y="327" type="curve" smooth="yes"/>
      <point x="185.5" y="327" type="line" smooth="yes"/>
      <point x="205" y="327"/>
      <point x="213.5" y="322"/>
      <point x="213.5" y="312" type="curve" smooth="yes"/>
      <point x="213.5" y="120.5" type="line"/>
      <point x="231" y="120.5" type="line" smooth="yes"/>
      <point x="241" y="120.5"/>
      <point x="245" y="113.5"/>
      <point x="245" y="97.5" type="curve" smooth="yes"/>
      <point x="245" y="89.5" type="line" smooth="yes"/>
      <point x="245" y="73"/>
      <point x="241" y="66"/>
      <point x="231" y="66" type="curve" smooth="yes"/>
      <point x="213.5" y="66" type="line"/>
      <point x="213.5" y="14" type="line" smooth="yes"/>
      <point x="213.5" y="4"/>
      <point x="205" y="-1"/>
      <point x="185.5" y="-1" type="curve" smooth="yes"/>
    </contour>
    <contour>
      <point x="74.5" y="120.5" type="line"/>
      <point x="144.5" y="120.5" type="line"/>
      <point x="144.5" y="227.5" type="line"/>
      <point x="142.5" y="228" type="line"/>
    </contour>
  </outline>
</glyph>
<glyph name="five" format="1">
  <advance width="952"/>
  <unicode hex="0035"/>
  <outline>
    <contour>
      <point x="631" y="-15"/>
      <point x="872" y="84"/>
      <point x="872" y="384" type="curve" smooth="yes"/>
      <point x="872" y="690"/>
      <point x="693" y="783"/>
      <point x="425" y="783" type="curve" smooth="yes"/>
      <point x="379" y="783" type="line"/>
      <point x="397" y="1037" type="line"/>
      <point x="756" y="1037" type="line" smooth="yes"/>
      <point x="793" y="1037"/>
      <point x="809" y="1058"/>
      <point x="809" y="1108" type="curve" smooth="yes"/>
      <point x="809" y="1155" type="line" smooth="yes"/>
      <point x="809" y="1218"/>
      <point x="793" y="1244"/>
      <point x="756" y="1244" type="curve" smooth="yes"/>
      <point x="232" y="1244" type="line" smooth="yes"/>
      <point x="179" y="1244"/>
      <point x="160" y="1223"/>
      <point x="157" y="1174" type="curve" smooth="yes"/>
      <point x="123" y="645" type="line"/>
      <point x="123" y="596"/>
      <point x="137" y="575"/>
      <point x="189" y="575" type="curve" smooth="yes"/>
      <point x="382" y="575" type="line" smooth="yes"/>
      <point x="546" y="575"/>
      <point x="604" y="502"/>
      <point x="604" y="377" type="curve" smooth="yes"/>
      <point x="604" y="261"/>
      <point x="530" y="194"/>
      <point x="414" y="194" type="curve" smooth="yes"/>
      <point x="273" y="194"/>
      <point x="184" y="254"/>
      <point x="164" y="254" type="curve" smooth="yes"/>
      <point x="123" y="254"/>
      <point x="68" y="146"/>
      <point x="68" y="114" type="curve" smooth="yes"/>
      <point x="68" y="43"/>
      <point x="215" y="-15"/>
      <point x="416" y="-15" type="curve" smooth="yes"/>
    </contour>
  </outline>
</glyph>
<glyph name="six" format="1">
  <advance width="565"/>
  <unicode hex="0036"/>
  <outline>
    <contour>
      <point x="404" y="-8"/>
      <point x="533" y="57"/>
      <point x="533" y="229" type="curve" smooth="yes"/>
      <point x="533" y="400"/>
      <point x="403" y="453"/>
      <point x="325" y="453" type="curve" smooth="yes"/>
      <point x="294" y="453"/>
      <point x="260" y="448"/>
      <point x="219" y="426" type="curve"/>
      <point x="254" y="531"/>
      <point x="346" y="603"/>
      <point x="448" y="634" type="curve" smooth="yes"/>
      <point x="459" y="637"/>
      <point x="462" y="642"/>
      <point x="462" y="657" type="curve" smooth="yes"/>
      <point x="462" y="677"/>
      <point x="445" y="744"/>
      <point x="410" y="744" type="curve" smooth="yes"/>
      <point x="394" y="744"/>
      <point x="35" y="674"/>
      <point x="35" y="268" type="curve" smooth="yes"/>
      <point x="35" y="64"/>
      <point x="165" y="-8"/>
      <point x="285" y="-8" type="curve" smooth="yes"/>
    </contour>
    <contour>
      <point x="235" y="116"/>
      <point x="193" y="150"/>
      <point x="193" y="255" type="curve" smooth="yes"/>
      <point x="193" y="273"/>
      <point x="193" y="288"/>
      <point x="194" y="303" type="curve"/>
      <point x="222" y="319"/>
      <point x="251" y="329"/>
      <point x="278" y="329" type="curve" smooth="yes"/>
      <point x="340" y="329"/>
      <point x="375" y="288"/>
      <point x="375" y="225" type="curve" smooth="yes"/>
      <point x="375" y="160"/>
      <point x="335" y="116"/>
      <point x="285" y="116" type="curve" smooth="yes"/>
    </contour>
  </outline>
</glyph>
<glyph name="seven" format="1">
  <advance width="250"/>
  <unicode hex="0037"/>
  <outline>
    <contour>
      <point x="62.5" y="-1" type="line" smooth="yes"/>
      <point x="44" y="-1"/>
      <point x="35" y="2.5"/>
      <point x="35" y="8" type="curve" smooth="yes"/>
      <point x="35" y="10.5"/>
      <point x="36" y="13"/>
      <point x="37.5" y="17" type="curve" smooth="yes"/>
      <point x="153.5" y="271.5" type="line"/>
      <point x="31.5" y="271.5" type="line" smooth="yes"/>
      <point x="22" y="271.5"/>
      <point x="17.5" y="278.5"/>
      <point x="17.5" y="295" type="curve" smooth="yes"/>
      <point x="17.5" y="303" type="line" smooth="yes"/>
      <point x="17.5" y="319"/>
      <point x="22" y="326"/>
      <point x="31.5" y="326" type="curve" smooth="yes"/>
      <point x="216" y="326" type="line" smooth="yes"/>
      <point x="221.5" y="326"/>
      <point x="230" y="298.5"/>
      <point x="230" y="284.5" type="curve" smooth="yes"/>
      <point x="230" y="282"/>
      <point x="229.5" y="279.5"/>
      <point x="229.5" y="278" type="curve" smooth="yes"/>
      <point x="106.5" y="8.5" type="line" smooth="yes"/>
      <point x="103.5" y="1"/>
      <point x="93" y="-1"/>
      <point x="79.5" y="-1" type="curve" smooth="yes"/>
    </contour>
  </outline>
</glyph>
<glyph name="eight" format="1">
  <advance width="565"/>
  <unicode hex="0038"/>
  <outline>
    <contour>
      <point x="467" y="-8"/>
      <point x="535" y="106"/>
      <point x="535" y="203" type="curve" smooth="yes"/>
      <point x="535" y="319"/>
      <point x="484" y="378"/>
      <point x="418" y="407" type="curve"/>
      <point x="472" y="435"/>
      <point x="510" y="475"/>
      <point x="510" y="564" type="curve" smooth="yes"/>
      <point x="510" y="664"/>
      <point x="428" y="749"/>
      <point x="291" y="749" type="curve" smooth="yes"/>
      <point x="134" y="749"/>
      <point x="59" y="653"/>
      <point x="59" y="549" type="curve" smooth="yes"/>
      <point x="59" y="472"/>
      <point x="92" y="427"/>
      <point x="137" y="396" type="curve"/>
      <point x="79" y="374"/>
      <point x="30" y="312"/>
      <point x="30" y="212" type="curve" smooth="yes"/>
      <point x="30" y="95"/>
      <point x="105" y="-8"/>
      <point x="286" y="-8" type="curve" smooth="yes"/>
    </contour>
    <contour>
      <point x="223" y="116"/>
      <point x="188" y="159"/>
      <point x="188" y="222" type="curve" smooth="yes"/>
      <point x="188" y="283"/>
      <point x="210" y="319"/>
      <point x="246" y="345" type="curve"/>
      <point x="315" y="319"/>
      <point x="377" y="295"/>
      <point x="377" y="211" type="curve" smooth="yes"/>
      <point x="377" y="167"/>
      <point x="346" y="116"/>
      <point x="284" y="116" type="curve" smooth="yes"/>
    </contour>
    <contour>
      <point x="252" y="476"/>
      <point x="213" y="500"/>
      <point x="213" y="553" type="curve" smooth="yes"/>
      <point x="213" y="600"/>
      <point x="248" y="625"/>
      <point x="287" y="625" type="curve" smooth="yes"/>
      <point x="325" y="625"/>
      <point x="359" y="598"/>
      <point x="359" y="553" type="curve" smooth="yes"/>
      <point x="359" y="516"/>
      <point x="339" y="482"/>
      <point x="301" y="457" type="curve"/>
    </contour>
  </outline>
</glyph>
<glyph name="nine" format="1">
  <advance width="565"/>
  <unicode hex="0039"/>
  <outline>
    <contour>
      <point x="169" y="-6"/>
      <point x="528" y="66"/>
      <point x="528" y="472" type="curve" smooth="yes"/>
      <point x="528" y="676"/>
      <point x="398" y="748"/>
      <point x="278" y="748" type="curve" smooth="yes"/>
      <point x="159" y="748"/>
      <point x="30" y="681"/>
      <point x="30" y="510" type="curve" smooth="yes"/>
      <point x="30" y="339"/>
      <point x="161" y="287"/>
      <point x="239" y="287" type="curve" smooth="yes"/>
      <point x="269" y="287"/>
      <point x="303" y="290"/>
      <point x="345" y="314" type="curve"/>
      <point x="309" y="209"/>
      <point x="218" y="135"/>
      <point x="115" y="105" type="curve" smooth="yes"/>
      <point x="103" y="102"/>
      <point x="101" y="98"/>
      <point x="101" y="83" type="curve" smooth="yes"/>
      <point x="101" y="62"/>
      <point x="118" y="-6"/>
      <point x="154" y="-6" type="curve" smooth="yes"/>
    </contour>
    <contour>
      <point x="223" y="411"/>
      <point x="188" y="450"/>
      <point x="188" y="515" type="curve" smooth="yes"/>
      <point x="188" y="580"/>
      <point x="228" y="624"/>
      <point x="277" y="624" type="curve" smooth="yes"/>
      <point x="327" y="624"/>
      <point x="368" y="589"/>
      <point x="368" y="485" type="curve" smooth="yes"/>
      <point x="368" y="467"/>
      <point x="368" y="452"/>
      <point x="367" y="435" type="curve"/>
      <point x="341" y="421"/>
      <point x="313" y="411"/>
      <point x="284" y="411" type="curve" smooth="yes"/>
    </contour>
  </outline>
</glyph>
<glyph name="colon" format="1">
  <advance width="210"/>
  <unicode hex="003A"/>
  <outline>
    <contour>
      <point x="120" y="390" type="line" smooth="yes"/>
      <point x="165" y="390"/>
      <point x="183" y="402"/>
      <point x="183" y="424" type="curve" smooth="yes"/>
      <point x="183" y="520" type="line" smooth="yes"/>
      <point x="183" y="543"/>
      <point x="165" y="554"/>
      <point x="120" y="554" type="curve" smooth="yes"/>
      <point x="86" y="554" type="line" smooth="yes"/>
      <point x="42" y="554"/>
      <point x="23" y="543"/>
      <point x="23" y="520" type="curve" smooth="yes"/>
      <point x="23" y="424" type="line" smooth="yes"/>
      <point x="23" y="402"/>
      <point x="42" y="390"/>
      <point x="86" y="390" type="curve"/>
    </contour>
    <contour>
      <point x="120" y="-2" type="line" smooth="yes"/>
      <point x="165" y="-2"/>
      <point x="183" y="9"/>
      <point x="183" y="32" type="curve" smooth="yes"/>
      <point x="183" y="129" type="line" smooth="yes"/>
      <point x="183" y="151"/>
      <point x="165" y="163"/>
      <point x="120" y="163" type="curve" smooth="yes"/>
      <point x="86" y="163" type="line" smooth="yes"/>
      <point x="42" y="163"/>
      <point x="23" y="151"/>
      <point x="23" y="129" type="curve" smooth="yes"/>
      <point x="23" y="32" type="line" smooth="yes"/>
      <point x="23" y="9"/>
      <point x="42" y="-2"/>
      <point x="86" y="-2" type="curve" smooth="yes"/>
    </contour>
  </outline>
</glyph>
<glyph name="semicolon" format="1">
  <advance width="93"/>
  <unicode hex="003B"/>
  <outline>
    <contour>
      <point x="38" y="172" type="line" smooth="yes"/>
      <point x="19" y="172"/>
      <point x="11" y="177"/>
      <point x="11" y="187" type="curve" smooth="yes"/>
      <point x="11" y="230" type="line" smooth="yes"/>
      <point x="11" y="240"/>
      <point x="19" y="245"/>
      <point x="38" y="245" type="curve" smooth="yes"/>
      <point x="53" y="245" type="line" smooth="yes"/>
      <point x="73" y="245"/>
      <point x="81" y="240"/>
      <point x="81" y="230" type="curve" smooth="yes"/>
      <point x="81" y="187" type="line" smooth="yes"/>
      <point x="81" y="177"/>
      <point x="73" y="172"/>
      <point x="53" y="172" type="curve" smooth="yes"/>
    </contour>
    <contour>
      <point x="17" y="-58" type="curve" smooth="yes"/>
      <point x="9" y="-58"/>
      <point x="-4" y="-56"/>
      <point x="-4" y="-48" type="curve" smooth="yes"/>
      <point x="-4" y="-44"/>
      <point x="-3" y="-39"/>
      <point x="0" y="-33" type="curve" smooth="yes"/>
      <point x="6" y="-18"/>
      <point x="17" y="6"/>
      <point x="17" y="52" type="curve" smooth="yes"/>
      <point x="17" y="64"/>
      <point x="25" y="72"/>
      <point x="45" y="72" type="curve" smooth="yes"/>
      <point x="53" y="72" type="line" smooth="yes"/>
      <point x="73" y="72"/>
      <point x="81" y="63"/>
      <point x="81" y="52" type="curve" smooth="yes"/>
      <point x="81" y="-1"/>
      <point x="38" y="-58"/>
    </contour>
  </outline>
</glyph>
<glyph name="less" format="1">
  <advance width="996"/>
  <unicode hex="003C"/>
  <outline>
    <contour>
      <point x="906" y="18"/>
      <point x="918" y="41"/>
      <point x="918" y="92" type="curve" smooth="yes"/>
      <point x="918" y="121" type="line" smooth="yes"/>
      <point x="918" y="176"/>
      <point x="903" y="213"/>
      <point x="865" y="230" type="curve" smooth="yes"/>
      <point x="343" y="435" type="line"/>
      <point x="862" y="642" type="line" smooth="yes"/>
      <point x="901" y="658"/>
      <point x="916" y="696"/>
      <point x="916" y="751" type="curve" smooth="yes"/>
      <point x="916" y="778" type="line" smooth="yes"/>
      <point x="916" y="831"/>
      <point x="905" y="852"/>
      <point x="889" y="852" type="curve" smooth="yes"/>
      <point x="882" y="852"/>
      <point x="873" y="850"/>
      <point x="862" y="846" type="curve" smooth="yes"/>
      <point x="118" y="529" type="line" smooth="yes"/>
      <point x="82" y="512"/>
      <point x="68" y="491"/>
      <point x="68" y="454" type="curve" smooth="yes"/>
      <point x="68" y="420" type="line" smooth="yes"/>
      <point x="68" y="381"/>
      <point x="82" y="360"/>
      <point x="118" y="345" type="curve" smooth="yes"/>
      <point x="865" y="25" type="line" smooth="yes"/>
      <point x="875" y="20"/>
      <point x="884" y="18"/>
      <point x="891" y="18" type="curve" smooth="yes"/>
    </contour>
  </outline>
</glyph>
<glyph name="equal" format="1">
  <advance width="592"/>
  <unicode hex="003D"/>
  <outline>
    <contour>
      <point x="517" y="283" type="line" smooth="yes"/>
      <point x="539" y="283"/>
      <point x="549" y="298"/>
      <point x="549" y="335" type="curve" smooth="yes"/>
      <point x="549" y="342" type="line" smooth="yes"/>
      <point x="549" y="380"/>
      <point x="539" y="396"/>
      <point x="517" y="396" type="curve" smooth="yes"/>
      <point x="75" y="396" type="line" smooth="yes"/>
      <point x="53" y="396"/>
      <point x="43" y="380"/>
      <point x="43" y="342" type="curve" smooth="yes"/>
      <point x="43" y="335" type="line" smooth="yes"/>
      <point x="43" y="298"/>
      <point x="53" y="283"/>
      <point x="75" y="283" type="curve"/>
    </contour>
    <contour>
      <point x="517" y="91" type="line" smooth="yes"/>
      <point x="539" y="91"/>
      <point x="549" y="107"/>
      <point x="549" y="145" type="curve" smooth="yes"/>
      <point x="549" y="151" type="line" smooth="yes"/>
      <point x="549" y="189"/>
      <point x="539" y="204"/>
      <point x="517" y="204" type="curve" smooth="yes"/>
      <point x="75" y="204" type="line" smooth="yes"/>
      <point x="53" y="204"/>
      <point x="43" y="189"/>
      <point x="43" y="151" type="curve" smooth="yes"/>
      <point x="43" y="145" type="line" smooth="yes"/>
      <point x="43" y="107"/>
      <point x="53" y="91"/>
      <point x="75" y="91" type="curve"/>
    </contour>
  </outline>
</glyph>
<glyph name="greater" format="1">
  <advance width="261"/>
  <unicode hex="003E"/>
  <outline>
    <contour>
      <point x="24.5" y="4.5" type="curve" smooth="yes"/>
      <point x="20.5" y="4.5"/>
      <point x="17.5" y="10.5"/>
      <point x="17.5" y="24" type="curve" smooth="yes"/>
      <point x="17.5" y="31.5" type="line" smooth="yes"/>
      <point x="17.5" y="46"/>
      <point x="21.5" y="56"/>
      <point x="31.5" y="60" type="curve" smooth="yes"/>
      <point x="168" y="114" type="line"/>
      <point x="32" y="168" type="line" smooth="yes"/>
      <point x="22" y="172.5"/>
      <point x="18" y="182"/>
      <point x="18" y="196.5" type="curve" smooth="yes"/>
      <point x="18" y="204" type="line" smooth="yes"/>
      <point x="18" y="217.5"/>
      <point x="21" y="223"/>
      <point x="25" y="223" type="curve" smooth="yes"/>
      <point x="27" y="223"/>
      <point x="29.5" y="222.5"/>
      <point x="32" y="222" type="curve" smooth="yes"/>
      <point x="227.5" y="138.5" type="line" smooth="yes"/>
      <point x="236.5" y="134"/>
      <point x="240.5" y="128.5"/>
      <point x="240.5" y="119" type="curve" smooth="yes"/>
      <point x="240.5" y="110" type="line" smooth="yes"/>
      <point x="240.5" y="99.5"/>
      <point x="236.5" y="94"/>
      <point x="227.5" y="90.5" type="curve" smooth="yes"/>
      <point x="31.5" y="6.5" type="line" smooth="yes"/>
      <point x="29" y="5"/>
      <point x="26.5" y="4.5"/>
    </contour>
  </outline>
</glyph>
<glyph name="question" format="1">
  <advance width="470"/>
  <unicode hex="003F"/>
  <outline>
    <contour>
      <point x="210" y="235" type="line" smooth="yes"/>
      <point x="244" y="235"/>
      <point x="258" y="241"/>
      <point x="265" y="263" type="curve"/>
      <point x="285" y="365"/>
      <point x="462" y="399"/>
      <point x="462" y="560" type="curve" smooth="yes"/>
      <point x="462" y="676"/>
      <point x="374" y="749"/>
      <point x="233" y="749" type="curve" smooth="yes"/>
      <point x="150" y="749"/>
      <point x="34" y="724"/>
      <point x="34" y="662" type="curve" smooth="yes"/>
      <point x="34" y="640"/>
      <point x="71" y="576"/>
      <point x="102" y="576" type="curve" smooth="yes"/>
      <point x="116" y="576"/>
      <point x="158" y="609"/>
      <point x="219" y="609" type="curve" smooth="yes"/>
      <point x="273" y="609"/>
      <point x="297" y="586"/>
      <point x="297" y="550" type="curve" smooth="yes"/>
      <point x="297" y="515"/>
      <point x="250" y="474"/>
      <point x="205" y="422" type="curve" smooth="yes"/>
      <point x="168" y="378"/>
      <point x="133" y="327"/>
      <point x="133" y="265" type="curve" smooth="yes"/>
      <point x="133" y="243"/>
      <point x="148" y="235"/>
      <point x="185" y="235" type="curve" smooth="yes"/>
    </contour>
    <contour>
      <point x="213" y="-2" type="line" smooth="yes"/>
      <point x="257" y="-2"/>
      <point x="276" y="9"/>
      <point x="276" y="32" type="curve" smooth="yes"/>
      <point x="276" y="129" type="line" smooth="yes"/>
      <point x="276" y="151"/>
      <point x="257" y="163"/>
      <point x="213" y="163" type="curve" smooth="yes"/>
      <point x="179" y="163" type="line" smooth="yes"/>
      <point x="135" y="163"/>
      <point x="116" y="151"/>
      <point x="116" y="129" type="curve" smooth="yes"/>
      <point x="116" y="32" type="line" smooth="yes"/>
      <point x="116" y="9"/>
      <point x="135" y="-2"/>
      <point x="179" y="-2" type="curve" smooth="yes"/>
    </contour>
  </outline>
</glyph>
<glyph name="at" format="1">
  <advance width="1029"/>
  <unicode hex="0040"/>
  <outline>
    <contour>
      <point x="488" y="-130"/>
      <point x="612" y="-118"/>
      <point x="612" y="-77" type="curve" smooth="yes"/>
      <point x="612" y="-53"/>
      <point x="605" y="-42"/>
      <point x="596" y="-42" type="curve" smooth="yes"/>
      <point x="571" y="-42"/>
      <point x="537" y="-73"/>
      <point x="433" y="-73" type="curve" smooth="yes"/>
      <point x="269" y="-73"/>
      <point x="157" y="60"/>
      <point x="157" y="254" type="curve" smooth="yes"/>
      <point x="157" y="499"/>
      <point x="336" y="691"/>
      <point x="564" y="691" type="curve" smooth="yes"/>
      <point x="734" y="691"/>
      <point x="848" y="577"/>
      <point x="848" y="405" type="curve" smooth="yes"/>
      <point x="848" y="266"/>
      <point x="786" y="149"/>
      <point x="712" y="149" type="curve" smooth="yes"/>
      <point x="687" y="149"/>
      <point x="676" y="162"/>
      <point x="676" y="188" type="curve" smooth="yes"/>
      <point x="676" y="206"/>
      <point x="708" y="499"/>
      <point x="708" y="505" type="curve" smooth="yes"/>
      <point x="708" y="520"/>
      <point x="693" y="532"/>
      <point x="659" y="532" type="curve" smooth="yes"/>
      <point x="645" y="532" type="line" smooth="yes"/>
      <point x="606" y="532"/>
      <point x="598" y="519"/>
      <point x="591" y="490" type="curve"/>
      <point x="573" y="507"/>
      <point x="534" y="537"/>
      <point x="484" y="537" type="curve" smooth="yes"/>
      <point x="368" y="537"/>
      <point x="288" y="423"/>
      <point x="288" y="253" type="curve" smooth="yes"/>
      <point x="288" y="128"/>
      <point x="345" y="62"/>
      <point x="430" y="62" type="curve" smooth="yes"/>
      <point x="500" y="62"/>
      <point x="553" y="113"/>
      <point x="565" y="170" type="curve"/>
      <point x="545" y="188" type="line"/>
      <point x="545" y="153" type="line" smooth="yes"/>
      <point x="545" y="113"/>
      <point x="587" y="62"/>
      <point x="670" y="62" type="curve" smooth="yes"/>
      <point x="808" y="62"/>
      <point x="916" y="213"/>
      <point x="916" y="405" type="curve" smooth="yes"/>
      <point x="916" y="613"/>
      <point x="776" y="749"/>
      <point x="564" y="749" type="curve" smooth="yes"/>
      <point x="297" y="749"/>
      <point x="88" y="532"/>
      <point x="88" y="254" type="curve" smooth="yes"/>
      <point x="88" y="25"/>
      <point x="229" y="-130"/>
      <point x="433" y="-130" type="curve" smooth="yes"/>
    </contour>
    <contour>
      <point x="441" y="168"/>
      <point x="420" y="200"/>
      <point x="420" y="261" type="curve" smooth="yes"/>
      <point x="420" y="374"/>
      <point x="455" y="433"/>
      <point x="513" y="433" type="curve" smooth="yes"/>
      <point x="538" y="433"/>
      <point x="555" y="423"/>
      <point x="571" y="410" type="curve"/>
      <point x="557" y="346"/>
      <point x="552" y="283"/>
      <point x="549" y="219" type="curve"/>
      <point x="531" y="192"/>
      <point x="508" y="168"/>
      <point x="479" y="168" type="curve" smooth="yes"/>
    </contour>
  </outline>
</glyph>
<glyph name="A" format="1">
  <advance width="647"/>
  <unicode hex="0041"/>
  <outline>
    <contour>
      <point x="107" y="-2" type="line" smooth="yes"/>
      <point x="131" y="-2"/>
      <point x="150" y="4"/>
      <point x="156" y="21" type="curve" smooth="yes"/>
      <point x="198" y="149" type="line"/>
      <point x="447" y="149" type="line"/>
      <point x="490" y="21" type="line" smooth="yes"/>
      <point x="495" y="3"/>
      <point x="518" y="-2"/>
      <point x="549" y="-2" type="curve" smooth="yes"/>
      <point x="595" y="-2" type="line" smooth="yes"/>
      <point x="632" y="-2"/>
      <point x="647" y="7"/>
      <point x="647" y="22" type="curve" smooth="yes"/>
      <point x="647" y="26"/>
      <point x="646" y="33"/>
      <point x="645" y="40" type="curve" smooth="yes"/>
      <point x="412" y="720" type="line" smooth="yes"/>
      <point x="406" y="738"/>
      <point x="382" y="742"/>
      <point x="351" y="742" type="curve" smooth="yes"/>
      <point x="297" y="742" type="line" smooth="yes"/>
      <point x="266" y="742"/>
      <point x="243" y="738"/>
      <point x="237" y="720" type="curve" smooth="yes"/>
      <point x="4" y="40" type="line" smooth="yes"/>
      <point x="2" y="33"/>
      <point x="0" y="26"/>
      <point x="0" y="22" type="curve" smooth="yes"/>
      <point x="0" y="7"/>
      <point x="21" y="-2"/>
      <point x="65" y="-2" type="curve" smooth="yes"/>
    </contour>
    <contour>
      <point x="305" y="476" type="line" smooth="yes"/>
      <point x="314" y="499"/>
      <point x="317" y="521"/>
      <point x="320" y="544" type="curve"/>
      <point x="325" y="544" type="line"/>
      <point x="329" y="521"/>
      <point x="335" y="499"/>
      <point x="341" y="476" type="curve" smooth="yes"/>
      <point x="401" y="288" type="line"/>
      <point x="242" y="288" type="line"/>
    </contour>
    <contour>
      <point x="583" y="0" type="move" name="ogonek"/>
    </contour>
    <contour>
      <point x="328" y="0" type="move" name="bottom"/>
    </contour>
    <contour>
      <point x="325" y="740" type="move" name="top"/>
    </contour>
  </outline>
</glyph>
<glyph name="B" format="1">
  <advance width="627"/>
  <unicode hex="0042"/>
  <outline>
    <contour>
      <point x="339" y="0" type="line" smooth="yes"/>
      <point x="518" y="0"/>
      <point x="603" y="78"/>
      <point x="603" y="214" type="curve" smooth="yes"/>
      <point x="603" y="296"/>
      <point x="545" y="371"/>
      <point x="460" y="388" type="curve"/>
      <point x="459" y="392" type="line"/>
      <point x="522" y="418"/>
      <point x="573" y="481"/>
      <point x="573" y="552" type="curve" smooth="yes"/>
      <point x="573" y="664"/>
      <point x="504" y="740"/>
      <point x="324" y="740" type="curve" smooth="yes"/>
      <point x="115" y="740" type="line" smooth="yes"/>
      <point x="85" y="740"/>
      <point x="72" y="727"/>
      <point x="72" y="698" type="curve" smooth="yes"/>
      <point x="72" y="42" type="line" smooth="yes"/>
      <point x="72" y="13"/>
      <point x="85" y="0"/>
      <point x="115" y="0" type="curve" smooth="yes"/>
    </contour>
    <contour>
      <point x="235" y="306" type="line"/>
      <point x="321" y="306" type="line" smooth="yes"/>
      <point x="395" y="306"/>
      <point x="436" y="279"/>
      <point x="436" y="225" type="curve" smooth="yes"/>
      <point x="436" y="169"/>
      <point x="400" y="138"/>
      <point x="339" y="138" type="curve" smooth="yes"/>
      <point x="235" y="138" type="line"/>
    </contour>
    <contour>
      <point x="235" y="602" type="line"/>
      <point x="310" y="602" type="line" smooth="yes"/>
      <point x="375" y="602"/>
      <point x="406" y="576"/>
      <point x="406" y="524" type="curve" smooth="yes"/>
      <point x="406" y="479"/>
      <point x="371" y="445"/>
      <point x="308" y="445" type="curve" smooth="yes"/>
      <point x="235" y="445" type="line"/>
    </contour>
  </outline>
</glyph>
<glyph name="C" format="1">
  <advance width="655"/>
  <unicode hex="0043"/>
  <outline>
    <contour>
      <point x="479" y="-8"/>
      <point x="630" y="18"/>
      <point x="630" y="81" type="curve" smooth="yes"/>
      <point x="630" y="99"/>
      <point x="602" y="172"/>
      <point x="569" y="172" type="curve" smooth="yes"/>
      <point x="552" y="172"/>
      <point x="496" y="130"/>
      <point x="396" y="130" type="curve" smooth="yes"/>
      <point x="274" y="130"/>
      <point x="214" y="212"/>
      <point x="214" y="371" type="curve" smooth="yes"/>
      <point x="214" y="530"/>
      <point x="273" y="609"/>
      <point x="397" y="609" type="curve" smooth="yes"/>
      <point x="498" y="609"/>
      <point x="540" y="575"/>
      <point x="552" y="575" type="curve" smooth="yes"/>
      <point x="580" y="575"/>
      <point x="622" y="645"/>
      <point x="622" y="675" type="curve" smooth="yes"/>
      <point x="622" y="719"/>
      <point x="494" y="749"/>
      <point x="401" y="749" type="curve" smooth="yes"/>
      <point x="166" y="749"/>
      <point x="47" y="624"/>
      <point x="47" y="372" type="curve" smooth="yes"/>
      <point x="47" y="111"/>
      <point x="159" y="-8"/>
      <point x="396" y="-8" type="curve" smooth="yes"/>
    </contour>
    <contour>
      <point x="389" y="740" type="move" name="top"/>
    </contour>
    <contour>
      <point x="394" y="0" type="move" name="bottom"/>
    </contour>
  </outline>
</glyph>
<glyph name="D" format="1">
  <advance width="734"/>
  <unicode hex="0044"/>
  <outline>
    <contour>
      <point x="351" y="0" type="line" smooth="yes"/>
      <point x="569" y="0"/>
      <point x="690" y="131"/>
      <point x="690" y="370" type="curve" smooth="yes"/>
      <point x="690" y="609"/>
      <point x="569" y="740"/>
      <point x="351" y="740" type="curve" smooth="yes"/>
      <point x="115" y="740" type="line" smooth="yes"/>
      <point x="85" y="740"/>
      <point x="72" y="727"/>
      <point x="72" y="698" type="curve" smooth="yes"/>
      <point x="72" y="42" type="line" smooth="yes"/>
      <point x="72" y="13"/>
      <point x="85" y="0"/>
      <point x="115" y="0" type="curve" smooth="yes"/>
    </contour>
    <contour>
      <point x="236" y="601" type="line"/>
      <point x="351" y="601" type="line" smooth="yes"/>
      <point x="465" y="601"/>
      <point x="522" y="520"/>
      <point x="522" y="370" type="curve" smooth="yes"/>
      <point x="522" y="220"/>
      <point x="465" y="138"/>
      <point x="351" y="138" type="curve" smooth="yes"/>
      <point x="236" y="138" type="line"/>
    </contour>
    <contour>
      <point x="368" y="370" type="move" name="center"/>
    </contour>
    <contour>
      <point x="349" y="0" type="move" name="bottom"/>
    </contour>
    <contour>
      <point x="351" y="740" type="move" name="top"/>
    </contour>
  </outline>
</glyph>
<glyph name="E" format="1">
  <advance width="577"/>
  <unicode hex="0045"/>
  <outline>
    <contour>
      <point x="504" y="0" type="line" smooth="yes"/>
      <point x="525" y="0"/>
      <point x="535" y="16"/>
      <point x="535" y="53" type="curve" smooth="yes"/>
      <point x="535" y="85" type="line" smooth="yes"/>
      <point x="535" y="123"/>
      <point x="525" y="138"/>
      <point x="504" y="138" type="curve" smooth="yes"/>
      <point x="235" y="138" type="line"/>
      <point x="235" y="309" type="line"/>
      <point x="474" y="309" type="line" smooth="yes"/>
      <point x="495" y="309"/>
      <point x="505" y="326"/>
      <point x="505" y="363" type="curve" smooth="yes"/>
      <point x="505" y="396" type="line" smooth="yes"/>
      <point x="505" y="432"/>
      <point x="495" y="448"/>
      <point x="474" y="448" type="curve" smooth="yes"/>
      <point x="235" y="448" type="line"/>
      <point x="235" y="601" type="line"/>
      <point x="502" y="601" type="line" smooth="yes"/>
      <point x="523" y="601"/>
      <point x="533" y="617"/>
      <point x="533" y="655" type="curve" smooth="yes"/>
      <point x="533" y="687" type="line" smooth="yes"/>
      <point x="533" y="723"/>
      <point x="523" y="740"/>
      <point x="502" y="740" type="curve" smooth="yes"/>
      <point x="115" y="740" type="line" smooth="yes"/>
      <point x="85" y="740"/>
      <point x="72" y="727"/>
      <point x="72" y="698" type="curve" smooth="yes"/>
      <point x="72" y="42" type="line" smooth="yes"/>
      <point x="72" y="13"/>
      <point x="85" y="0"/>
      <point x="115" y="0" type="curve" smooth="yes"/>
    </contour>
    <contour>
      <point x="500" y="0" type="move" name="ogonek"/>
    </contour>
    <contour>
      <point x="303" y="0" type="move" name="bottom"/>
    </contour>
    <contour>
      <point x="312" y="740" type="move" name="top"/>
    </contour>
  </outline>
</glyph>
<glyph name="F" format="1">
  <advance width="532"/>
  <unicode hex="0046"/>
  <outline>
    <contour>
      <point x="172" y="-2" type="line" smooth="yes"/>
      <point x="216" y="-2"/>
      <point x="235" y="9"/>
      <point x="235" y="32" type="curve" smooth="yes"/>
      <point x="235" y="308" type="line"/>
      <point x="460" y="308" type="line" smooth="yes"/>
      <point x="483" y="308"/>
      <point x="491" y="325"/>
      <point x="491" y="362" type="curve" smooth="yes"/>
      <point x="491" y="394" type="line" smooth="yes"/>
      <point x="491" y="431"/>
      <point x="483" y="447"/>
      <point x="460" y="447" type="curve" smooth="yes"/>
      <point x="235" y="447" type="line"/>
      <point x="235" y="601" type="line"/>
      <point x="468" y="601" type="line" smooth="yes"/>
      <point x="489" y="601"/>
      <point x="499" y="617"/>
      <point x="499" y="655" type="curve" smooth="yes"/>
      <point x="499" y="687" type="line" smooth="yes"/>
      <point x="499" y="723"/>
      <point x="489" y="740"/>
      <point x="468" y="740" type="curve" smooth="yes"/>
      <point x="115" y="740" type="line" smooth="yes"/>
      <point x="85" y="740"/>
      <point x="72" y="727"/>
      <point x="72" y="698" type="curve" smooth="yes"/>
      <point x="72" y="32" type="line" smooth="yes"/>
      <point x="72" y="9"/>
      <point x="92" y="-2"/>
      <point x="136" y="-2" type="curve" smooth="yes"/>
    </contour>
  </outline>
</glyph>
<glyph name="G" format="1">
  <advance width="1195"/>
  <unicode hex="0047"/>
  <outline>
    <contour>
      <point x="792" y="-15"/>
      <point x="1080" y="3"/>
      <point x="1080" y="126" type="curve" smooth="yes"/>
      <point x="1080" y="621" type="line" smooth="yes"/>
      <point x="1080" y="670"/>
      <point x="1058" y="691"/>
      <point x="1008" y="691" type="curve" smooth="yes"/>
      <point x="647" y="691" type="line" smooth="yes"/>
      <point x="610" y="691"/>
      <point x="594" y="665"/>
      <point x="594" y="603" type="curve" smooth="yes"/>
      <point x="594" y="546" type="line" smooth="yes"/>
      <point x="594" y="484"/>
      <point x="610" y="457"/>
      <point x="647" y="457" type="curve" smooth="yes"/>
      <point x="804" y="457" type="line"/>
      <point x="804" y="232" type="line"/>
      <point x="756" y="222"/>
      <point x="715" y="219"/>
      <point x="665" y="219" type="curve" smooth="yes"/>
      <point x="461" y="219"/>
      <point x="361" y="358"/>
      <point x="361" y="624" type="curve" smooth="yes"/>
      <point x="361" y="891"/>
      <point x="459" y="1024"/>
      <point x="669" y="1024" type="curve" smooth="yes"/>
      <point x="838" y="1024"/>
      <point x="918" y="967"/>
      <point x="939" y="967" type="curve" smooth="yes"/>
      <point x="983" y="967"/>
      <point x="1054" y="1085"/>
      <point x="1054" y="1135" type="curve" smooth="yes"/>
      <point x="1054" y="1209"/>
      <point x="831" y="1259"/>
      <point x="674" y="1259" type="curve" smooth="yes"/>
      <point x="280" y="1259"/>
      <point x="80" y="1049"/>
      <point x="80" y="626" type="curve" smooth="yes"/>
      <point x="80" y="187"/>
      <point x="266" y="-15"/>
      <point x="665" y="-15" type="curve" smooth="yes"/>
    </contour>
    <contour>
      <point x="623" y="1244" type="move" name="top"/>
    </contour>
    <contour>
      <point x="631" y="0" type="move" name="bottom"/>
    </contour>
  </outline>
</glyph>
<glyph name="H" format="1">
  <advance width="774"/>
  <unicode hex="0048"/>
  <outline>
    <contour>
      <point x="190" y="-2" type="line" smooth="yes"/>
      <point x="234" y="-2"/>
      <point x="253" y="9"/>
      <point x="253" y="32" type="curve" smooth="yes"/>
      <point x="253" y="307" type="line"/>
      <point x="538" y="307" type="line"/>
      <point x="538" y="32" type="line" smooth="yes"/>
      <point x="538" y="9"/>
      <point x="557" y="-2"/>
      <point x="601" y="-2" type="curve" smooth="yes"/>
      <point x="638" y="-2" type="line" smooth="yes"/>
      <point x="682" y="-2"/>
      <point x="702" y="9"/>
      <point x="702" y="32" type="curve" smooth="yes"/>
      <point x="702" y="708" type="line" smooth="yes"/>
      <point x="702" y="730"/>
      <point x="682" y="742"/>
      <point x="638" y="742" type="curve" smooth="yes"/>
      <point x="601" y="742" type="line" smooth="yes"/>
      <point x="557" y="742"/>
      <point x="538" y="730"/>
      <point x="538" y="708" type="curve" smooth="yes"/>
      <point x="538" y="447" type="line"/>
      <point x="253" y="447" type="line"/>
      <point x="253" y="708" type="line" smooth="yes"/>
      <point x="253" y="730"/>
      <point x="234" y="742"/>
      <point x="190" y="742" type="curve" smooth="yes"/>
      <point x="152" y="742" type="line" smooth="yes"/>
      <point x="108" y="742"/>
      <point x="88" y="730"/>
      <point x="88" y="708" type="curve" smooth="yes"/>
      <point x="88" y="32" type="line" smooth="yes"/>
      <point x="88" y="9"/>
      <point x="108" y="-2"/>
      <point x="152" y="-2" type="curve" smooth="yes"/>
    </contour>
    <contour>
      <point x="396" y="552" type="move" name="center"/>
    </contour>
    <contour>
      <point x="403" y="0" type="move" name="bottom"/>
    </contour>
    <contour>
      <point x="388" y="740" type="move" name="top"/>
    </contour>
  </outline>
</glyph>
<glyph name="I" format="1">
  <advance width="298"/>
  <unicode hex="0049"/>
  <outline>
    <contour>
      <point x="167" y="-3" type="line" smooth="yes"/>
      <point x="211" y="-3"/>
      <point x="230" y="9"/>
      <point x="230" y="32" type="curve" smooth="yes"/>
      <point x="230" y="708" type="line" smooth="yes"/>
      <point x="230" y="730"/>
      <point x="211" y="743"/>
      <point x="167" y="743" type="curve" smooth="yes"/>
      <point x="130" y="743" type="line" smooth="yes"/>
      <point x="85" y="743"/>
      <point x="66" y="730"/>
      <point x="66" y="708" type="curve" smooth="yes"/>
      <point x="66" y="32" type="line" smooth="yes"/>
      <point x="66" y="9"/>
      <point x="85" y="-3"/>
      <point x="130" y="-3" type="curve" smooth="yes"/>
    </contour>
    <contour>
      <point x="193" y="0" type="move" name="ogonek"/>
    </contour>
    <contour>
      <point x="149" y="0" type="move" name="bottom"/>
    </contour>
    <contour>
      <point x="149" y="740" type="move" name="top"/>
    </contour>
  </outline>
</glyph>
<glyph name="J" format="1">
  <advance width="188"/>
  <unicode hex="004A"/>
  <outline>
    <contour>
      <point x="122" y="326" type="move" name="Anchor-1"/>
    </contour>
    <contour>
      <point x="0" y="0" type="move" name="Anchor-0"/>
    </contour>
    <contour>
      <point x="58" y="-3.5" type="curve" smooth="yes"/>
      <point x="46.5" y="-3.5"/>
      <point x="0" y="-2.5"/>
      <point x="0" y="17.5" type="curve" smooth="yes"/>
      <point x="0" y="26"/>
      <point x="4.5" y="59.5"/>
      <point x="19" y="61" type="curve" smooth="yes"/>
      <point x="24" y="61"/>
      <point x="30.5" y="57.5"/>
      <point x="45" y="57.5" type="curve" smooth="yes"/>
      <point x="73" y="57.5"/>
      <point x="84.5" y="72"/>
      <point x="84.5" y="106" type="curve" smooth="yes"/>
      <point x="84.5" y="312" type="line" smooth="yes"/>
      <point x="84.5" y="322"/>
      <point x="92.5" y="327.5"/>
      <point x="112.5" y="327.5" type="curve" smooth="yes"/>
      <point x="128.5" y="327.5" type="line" smooth="yes"/>
      <point x="148" y="327.5"/>
      <point x="156.5" y="322"/>
      <point x="156.5" y="312" type="curve" smooth="yes"/>
      <point x="156.5" y="94" type="line" smooth="yes"/>
      <point x="156.5" y="35"/>
      <point x="127" y="-3.5"/>
    </contour>
  </outline>
</glyph>
<glyph name="K" format="1">
  <advance width="1024"/>
  <unicode hex="004B"/>
  <outline>
    <contour>
      <point x="292" y="-3" type="line" smooth="yes"/>
      <point x="367" y="-3"/>
      <point x="399" y="17"/>
      <point x="399" y="53" type="curve" smooth="yes"/>
      <point x="399" y="570" type="line"/>
      <point x="406" y="571" type="line"/>
      <point x="740" y="31" type="line" smooth="yes"/>
      <point x="756" y="3"/>
      <point x="797" y="-3"/>
      <point x="848" y="-3" type="curve" smooth="yes"/>
      <point x="952" y="-3" type="line" smooth="yes"/>
      <point x="1020" y="-3"/>
      <point x="1051" y="7"/>
      <point x="1051" y="24" type="curve" smooth="yes"/>
      <point x="1051" y="32"/>
      <point x="1048" y="44"/>
      <point x="1037" y="61" type="curve" smooth="yes"/>
      <point x="647" y="658" type="line"/>
      <point x="990" y="1184" type="line" smooth="yes"/>
      <point x="1001" y="1200"/>
      <point x="1005" y="1213"/>
      <point x="1005" y="1222" type="curve" smooth="yes"/>
      <point x="1005" y="1237"/>
      <point x="974" y="1249"/>
      <point x="905" y="1249" type="curve" smooth="yes"/>
      <point x="821" y="1249" type="line" smooth="yes"/>
      <point x="770" y="1249"/>
      <point x="730" y="1241"/>
      <point x="715" y="1215" type="curve" smooth="yes"/>
      <point x="406" y="713" type="line"/>
      <point x="399" y="715" type="line"/>
      <point x="399" y="1191" type="line" smooth="yes"/>
      <point x="399" y="1229"/>
      <point x="367" y="1249"/>
      <point x="292" y="1249" type="curve" smooth="yes"/>
      <point x="230" y="1249" type="line" smooth="yes"/>
      <point x="155" y="1249"/>
      <point x="123" y="1229"/>
      <point x="123" y="1191" type="curve" smooth="yes"/>
      <point x="123" y="53" type="line" smooth="yes"/>
      <point x="123" y="17"/>
      <point x="155" y="-3"/>
      <point x="230" y="-3" type="curve" smooth="yes"/>
    </contour>
    <contour>
      <point x="548" y="1244" type="move" name="top"/>
    </contour>
    <contour>
      <point x="530" y="0" type="move" name="bottom"/>
    </contour>
  </outline>
</glyph>
<glyph name="L" format="1">
  <advance width="860"/>
  <unicode hex="004C"/>
  <outline>
    <contour>
      <point x="793" y="0" type="line" smooth="yes"/>
      <point x="831" y="0"/>
      <point x="846" y="27"/>
      <point x="846" y="89" type="curve" smooth="yes"/>
      <point x="846" y="145" type="line" smooth="yes"/>
      <point x="846" y="206"/>
      <point x="831" y="233"/>
      <point x="793" y="233" type="curve" smooth="yes"/>
      <point x="397" y="233" type="line"/>
      <point x="397" y="1191" type="line" smooth="yes"/>
      <point x="397" y="1229"/>
      <point x="365" y="1249"/>
      <point x="290" y="1249" type="curve" smooth="yes"/>
      <point x="230" y="1249" type="line" smooth="yes"/>
      <point x="155" y="1249"/>
      <point x="123" y="1229"/>
      <point x="123" y="1191" type="curve" smooth="yes"/>
      <point x="123" y="71" type="line" smooth="yes"/>
      <point x="123" y="22"/>
      <point x="145" y="0"/>
      <point x="194" y="0" type="curve" smooth="yes"/>
    </contour>
    <contour>
      <point x="587" y="596" type="move" name="center"/>
    </contour>
    <contour>
      <point x="466" y="1244" type="move" name="caron"/>
    </contour>
    <contour>
      <point x="266" y="1244" type="move" name="top"/>
    </contour>
    <contour>
      <point x="430" y="0" type="move" name="bottom"/>
    </contour>
  </outline>
</glyph>
<glyph name="M" format="1">
  <advance width="393"/>
  <unicode hex="004D"/>
  <outline>
    <contour>
      <point x="60" y="-1" type="line" smooth="yes"/>
      <point x="41" y="-1"/>
      <point x="32" y="4"/>
      <point x="32" y="14" type="curve" smooth="yes"/>
      <point x="32" y="312" type="line" smooth="yes"/>
      <point x="32" y="322"/>
      <point x="41" y="327"/>
      <point x="60" y="327" type="curve" smooth="yes"/>
      <point x="85" y="327" type="line" smooth="yes"/>
      <point x="99" y="327"/>
      <point x="109" y="324"/>
      <point x="114" y="315" type="curve" smooth="yes"/>
      <point x="193" y="175" type="line"/>
      <point x="196" y="169" type="line"/>
      <point x="201" y="177" type="line"/>
      <point x="279" y="315" type="line" smooth="yes"/>
      <point x="285" y="324"/>
      <point x="295" y="327"/>
      <point x="309" y="327" type="curve" smooth="yes"/>
      <point x="333" y="327" type="line" smooth="yes"/>
      <point x="353" y="327"/>
      <point x="361" y="322"/>
      <point x="361" y="312" type="curve" smooth="yes"/>
      <point x="361" y="14" type="line" smooth="yes"/>
      <point x="361" y="4"/>
      <point x="353" y="-1"/>
      <point x="333" y="-1" type="curve" smooth="yes"/>
      <point x="319" y="-1" type="line" smooth="yes"/>
      <point x="300" y="-1"/>
      <point x="291" y="4"/>
      <point x="291" y="14" type="curve" smooth="yes"/>
      <point x="291" y="207" type="line"/>
      <point x="290" y="208" type="line"/>
      <point x="222" y="87" type="line" smooth="yes"/>
      <point x="218" y="81"/>
      <point x="212" y="78"/>
      <point x="203" y="78" type="curve" smooth="yes"/>
      <point x="190" y="78" type="line" smooth="yes"/>
      <point x="181" y="78"/>
      <point x="175" y="81"/>
      <point x="171" y="87" type="curve" smooth="yes"/>
      <point x="104" y="208" type="line"/>
      <point x="102" y="207" type="line"/>
      <point x="102" y="14" type="line" smooth="yes"/>
      <point x="102" y="4"/>
      <point x="93" y="-1"/>
      <point x="74" y="-1" type="curve" smooth="yes"/>
    </contour>
  </outline>
</glyph>
<glyph name="N" format="1">
  <advance width="335"/>
  <unicode hex="004E"/>
  <outline>
    <contour>
      <point x="60" y="-1" type="line" smooth="yes"/>
      <point x="41" y="-1"/>
      <point x="32" y="4"/>
      <point x="32" y="14" type="curve" smooth="yes"/>
      <point x="32" y="312" type="line" smooth="yes"/>
      <point x="32" y="322"/>
      <point x="41" y="327"/>
      <point x="60" y="327" type="curve" smooth="yes"/>
      <point x="80" y="327" type="line" smooth="yes"/>
      <point x="94" y="327"/>
      <point x="104" y="326"/>
      <point x="111" y="315" type="curve" smooth="yes"/>
      <point x="221" y="145" type="line"/>
      <point x="234" y="126" type="line"/>
      <point x="234" y="312" type="line" smooth="yes"/>
      <point x="234" y="322"/>
      <point x="242" y="327"/>
      <point x="262" y="327" type="curve" smooth="yes"/>
      <point x="275" y="327" type="line" smooth="yes"/>
      <point x="295" y="327"/>
      <point x="303" y="322"/>
      <point x="303" y="312" type="curve" smooth="yes"/>
      <point x="303" y="14" type="line" smooth="yes"/>
      <point x="303" y="4"/>
      <point x="295" y="-1"/>
      <point x="275" y="-1" type="curve" smooth="yes"/>
      <point x="257" y="-1" type="line" smooth="yes"/>
      <point x="244" y="-1"/>
      <point x="234" y="1"/>
      <point x="227" y="12" type="curve" smooth="yes"/>
      <point x="112" y="188" type="line"/>
      <point x="102" y="203" type="line"/>
      <point x="102" y="14" type="line" smooth="yes"/>
      <point x="102" y="4"/>
      <point x="93" y="-1"/>
      <point x="74" y="-1" type="curve" smooth="yes"/>
    </contour>
    <contour>
      <point x="168" y="326" type="move" name="Anchor-1"/>
    </contour>
    <contour>
      <point x="168" y="0" type="move" name="Anchor-0"/>
    </contour>
  </outline>
</glyph>
<glyph name="O" format="1">
  <advance width="341"/>
  <unicode hex="004F"/>
  <outline>
    <contour>
      <point x="171" y="-4" type="curve" smooth="yes"/>
      <point x="75" y="-4"/>
      <point x="21" y="56"/>
      <point x="21" y="163" type="curve" smooth="yes"/>
      <point x="21" y="271"/>
      <point x="75" y="330"/>
      <point x="171" y="330" type="curve" smooth="yes"/>
      <point x="267" y="330"/>
      <point x="320" y="271"/>
      <point x="320" y="163" type="curve" smooth="yes"/>
      <point x="320" y="56"/>
      <point x="267" y="-4"/>
    </contour>
    <contour>
      <point x="171" y="58" type="curve" smooth="yes"/>
      <point x="221" y="58"/>
      <point x="246" y="95"/>
      <point x="246" y="163" type="curve" smooth="yes"/>
      <point x="246" y="232"/>
      <point x="221" y="269"/>
      <point x="171" y="269" type="curve" smooth="yes"/>
      <point x="121" y="269"/>
      <point x="95" y="232"/>
      <point x="95" y="163" type="curve" smooth="yes"/>
      <point x="95" y="95"/>
      <point x="121" y="58"/>
    </contour>
    <contour>
      <point x="171" y="326" type="move" name="Anchor-1"/>
    </contour>
    <contour>
      <point x="171" y="0" type="move" name="Anchor-0"/>
    </contour>
  </outline>
</glyph>
<glyph name="P" format="1">
  <advance width="1014"/>
  <unicode hex="0050"/>
  <outline>
    <contour>
      <point x="290" y="-3" type="line" smooth="yes"/>
      <point x="365" y="-3"/>
      <point x="397" y="17"/>
      <point x="397" y="53" type="curve" smooth="yes"/>
      <point x="397" y="466" type="line"/>
      <point x="585" y="466" type="line" smooth="yes"/>
      <point x="681" y="466"/>
      <point x="990" y="512"/>
      <point x="990" y="855" type="curve" smooth="yes"/>
      <point x="990" y="1198"/>
      <point x="725" y="1244"/>
      <point x="568" y="1244" type="curve" smooth="yes"/>
      <point x="194" y="1244" type="line" smooth="yes"/>
      <point x="145" y="1244"/>
      <point x="123" y="1223"/>
      <point x="123" y="1174" type="curve" smooth="yes"/>
      <point x="123" y="53" type="line" smooth="yes"/>
      <point x="123" y="17"/>
      <point x="155" y="-3"/>
      <point x="230" y="-3" type="curve" smooth="yes"/>
    </contour>
    <contour>
      <point x="397" y="1012" type="line"/>
      <point x="555" y="1012" type="line" smooth="yes"/>
      <point x="623" y="1012"/>
      <point x="710" y="983"/>
      <point x="710" y="855" type="curve" smooth="yes"/>
      <point x="710" y="727"/>
      <point x="623" y="701"/>
      <point x="555" y="701" type="curve" smooth="yes"/>
      <point x="397" y="701" type="line"/>
    </contour>
  </outline>
</glyph>
<glyph name="Q" format="1">
  <advance width="341"/>
  <unicode hex="0051"/>
  <outline>
    <contour>
      <point x="299" y="-68" type="curve" smooth="yes"/>
      <point x="294" y="-68"/>
      <point x="296" y="-68"/>
      <point x="106" y="8" type="curve" smooth="yes"/>
      <point x="51" y="29"/>
      <point x="21" y="83"/>
      <point x="21" y="163" type="curve" smooth="yes"/>
      <point x="21" y="271"/>
      <point x="75" y="330"/>
      <point x="171" y="330" type="curve" smooth="yes"/>
      <point x="267" y="330"/>
      <point x="320" y="271"/>
      <point x="320" y="163" type="curve" smooth="yes"/>
      <point x="320" y="90"/>
      <point x="294" y="39"/>
      <point x="247" y="15" type="curve"/>
      <point x="247" y="13" type="line"/>
      <point x="318" y="-13" type="line" smooth="yes"/>
      <point x="322" y="-15"/>
      <point x="325" y="-17"/>
      <point x="325" y="-21" type="curve" smooth="yes"/>
      <point x="325" y="-28"/>
      <point x="314" y="-68"/>
    </contour>
    <contour>
      <point x="171" y="56" type="curve" smooth="yes"/>
      <point x="221" y="56"/>
      <point x="246" y="93"/>
      <point x="246" y="163" type="curve" smooth="yes"/>
      <point x="246" y="232"/>
      <point x="221" y="269"/>
      <point x="171" y="269" type="curve" smooth="yes"/>
      <point x="121" y="269"/>
      <point x="95" y="232"/>
      <point x="95" y="163" type="curve" smooth="yes"/>
      <point x="95" y="93"/>
      <point x="121" y="56"/>
    </contour>
  </outline>
</glyph>
<glyph name="R" format="1">
  <advance width="645"/>
  <unicode hex="0052"/>
  <outline>
    <contour>
      <point x="172" y="-2" type="line" smooth="yes"/>
      <point x="216" y="-2"/>
      <point x="235" y="9"/>
      <point x="235" y="32" type="curve" smooth="yes"/>
      <point x="235" y="289" type="line"/>
      <point x="276" y="289" type="line" smooth="yes"/>
      <point x="346" y="289"/>
      <point x="362" y="269"/>
      <point x="383" y="226" type="curve"/>
      <point x="467" y="21" type="line" smooth="yes"/>
      <point x="474" y="3"/>
      <point x="497" y="-2"/>
      <point x="528" y="-2" type="curve" smooth="yes"/>
      <point x="571" y="-2" type="line" smooth="yes"/>
      <point x="614" y="-2"/>
      <point x="635" y="7"/>
      <point x="635" y="20" type="curve" smooth="yes"/>
      <point x="635" y="24"/>
      <point x="633" y="31"/>
      <point x="628" y="39" type="curve" smooth="yes"/>
      <point x="536" y="273" type="line" smooth="yes"/>
      <point x="519" y="318"/>
      <point x="487" y="359"/>
      <point x="460" y="369" type="curve"/>
      <point x="460" y="373" type="line"/>
      <point x="533" y="401"/>
      <point x="583" y="459"/>
      <point x="583" y="541" type="curve" smooth="yes"/>
      <point x="583" y="668"/>
      <point x="505" y="740"/>
      <point x="320" y="740" type="curve" smooth="yes"/>
      <point x="115" y="740" type="line" smooth="yes"/>
      <point x="85" y="740"/>
      <point x="72" y="727"/>
      <point x="72" y="698" type="curve" smooth="yes"/>
      <point x="72" y="32" type="line" smooth="yes"/>
      <point x="72" y="9"/>
      <point x="92" y="-2"/>
      <point x="136" y="-2" type="curve" smooth="yes"/>
    </contour>
    <contour>
      <point x="235" y="601" type="line"/>
      <point x="328" y="601" type="line" smooth="yes"/>
      <point x="383" y="601"/>
      <point x="417" y="570"/>
      <point x="417" y="520" type="curve" smooth="yes"/>
      <point x="417" y="470"/>
      <point x="380" y="430"/>
      <point x="336" y="430" type="curve" smooth="yes"/>
      <point x="235" y="430" type="line"/>
    </contour>
    <contour>
      <point x="322" y="740" type="move" name="top"/>
    </contour>
    <contour>
      <point x="322" y="0" type="move" name="bottom"/>
    </contour>
  </outline>
</glyph>
<glyph name="S" format="1">
  <advance width="529"/>
  <unicode hex="0053"/>
  <outline>
    <contour>
      <point x="386" y="-8"/>
      <point x="510" y="51"/>
      <point x="510" y="223" type="curve" smooth="yes"/>
      <point x="510" y="367"/>
      <point x="404" y="411"/>
      <point x="318" y="446" type="curve" smooth="yes"/>
      <point x="256" y="470"/>
      <point x="205" y="491"/>
      <point x="205" y="550" type="curve" smooth="yes"/>
      <point x="205" y="574"/>
      <point x="221" y="609"/>
      <point x="303" y="609" type="curve" smooth="yes"/>
      <point x="374" y="609"/>
      <point x="406" y="583"/>
      <point x="421" y="583" type="curve" smooth="yes"/>
      <point x="445" y="583"/>
      <point x="478" y="645"/>
      <point x="478" y="675" type="curve" smooth="yes"/>
      <point x="478" y="709"/>
      <point x="400" y="749"/>
      <point x="287" y="749" type="curve" smooth="yes"/>
      <point x="165" y="749"/>
      <point x="39" y="687"/>
      <point x="39" y="536" type="curve" smooth="yes"/>
      <point x="39" y="409"/>
      <point x="107" y="358"/>
      <point x="180" y="322" type="curve" smooth="yes"/>
      <point x="260" y="286"/>
      <point x="343" y="268"/>
      <point x="343" y="204" type="curve" smooth="yes"/>
      <point x="343" y="145"/>
      <point x="289" y="130"/>
      <point x="243" y="130" type="curve" smooth="yes"/>
      <point x="159" y="130"/>
      <point x="107" y="179"/>
      <point x="88" y="179" type="curve" smooth="yes"/>
      <point x="66" y="179"/>
      <point x="23" y="117"/>
      <point x="23" y="85" type="curve" smooth="yes"/>
      <point x="23" y="49"/>
      <point x="110" y="-8"/>
      <point x="272" y="-8" type="curve" smooth="yes"/>
    </contour>
    <contour>
      <point x="264" y="740" type="move" name="top"/>
    </contour>
    <contour>
      <point x="264" y="0" type="move" name="bottom"/>
    </contour>
  </outline>
</glyph>
<glyph name="T" format="1">
  <advance width="976"/>
  <unicode hex="0054"/>
  <outline>
    <contour>
      <point x="519" y="-3" type="line" smooth="yes"/>
      <point x="594" y="-3"/>
      <point x="626" y="17"/>
      <point x="626" y="53" type="curve" smooth="yes"/>
      <point x="626" y="1012" type="line"/>
      <point x="909" y="1012" type="line" smooth="yes"/>
      <point x="946" y="1012"/>
      <point x="962" y="1039"/>
      <point x="962" y="1101" type="curve" smooth="yes"/>
      <point x="962" y="1155" type="line" smooth="yes"/>
      <point x="962" y="1218"/>
      <point x="946" y="1244"/>
      <point x="909" y="1244" type="curve" smooth="yes"/>
      <point x="68" y="1244" type="line" smooth="yes"/>
      <point x="31" y="1244"/>
      <point x="15" y="1218"/>
      <point x="15" y="1155" type="curve" smooth="yes"/>
      <point x="15" y="1101" type="line" smooth="yes"/>
      <point x="15" y="1039"/>
      <point x="31" y="1012"/>
      <point x="68" y="1012" type="curve" smooth="yes"/>
      <point x="350" y="1012" type="line"/>
      <point x="350" y="53" type="line" smooth="yes"/>
      <point x="350" y="17"/>
      <point x="382" y="-3"/>
      <point x="457" y="-3" type="curve" smooth="yes"/>
    </contour>
    <contour>
      <point x="489" y="623" type="move" name="center"/>
    </contour>
    <contour>
      <point x="489" y="0" type="move" name="bottom"/>
    </contour>
    <contour>
      <point x="489" y="1244" type="move" name="top"/>
    </contour>
  </outline>
</glyph>
<glyph name="U" format="1">
  <advance width="753"/>
  <unicode hex="0055"/>
  <outline>
    <contour>
      <point x="569" y="-8"/>
      <point x="682" y="85"/>
      <point x="682" y="247" type="curve" smooth="yes"/>
      <point x="682" y="708" type="line" smooth="yes"/>
      <point x="682" y="730"/>
      <point x="663" y="742"/>
      <point x="618" y="742" type="curve" smooth="yes"/>
      <point x="583" y="742" type="line" smooth="yes"/>
      <point x="539" y="742"/>
      <point x="520" y="730"/>
      <point x="520" y="708" type="curve" smooth="yes"/>
      <point x="520" y="257" type="line" smooth="yes"/>
      <point x="520" y="184"/>
      <point x="462" y="130"/>
      <point x="377" y="130" type="curve" smooth="yes"/>
      <point x="290" y="130"/>
      <point x="232" y="184"/>
      <point x="232" y="257" type="curve" smooth="yes"/>
      <point x="232" y="708" type="line" smooth="yes"/>
      <point x="232" y="730"/>
      <point x="213" y="742"/>
      <point x="169" y="742" type="curve" smooth="yes"/>
      <point x="133" y="742" type="line" smooth="yes"/>
      <point x="88" y="742"/>
      <point x="70" y="730"/>
      <point x="70" y="708" type="curve" smooth="yes"/>
      <point x="70" y="247" type="line" smooth="yes"/>
      <point x="70" y="85"/>
      <point x="182" y="-8"/>
      <point x="377" y="-8" type="curve" smooth="yes"/>
    </contour>
    <contour>
      <point x="473" y="0" type="move" name="ogonek"/>
    </contour>
    <contour>
      <point x="377" y="740" type="move" name="top"/>
    </contour>
    <contour>
      <point x="584" y="742" type="move" name="horn"/>
    </contour>
    <contour>
      <point x="377" y="0" type="move" name="bottom"/>
    </contour>
  </outline>
</glyph>
<glyph name="V" format="1">
  <advance width="1097"/>
  <unicode hex="0056"/>
  <outline>
    <contour>
      <point x="592" y="-3" type="line" smooth="yes"/>
      <point x="643" y="-3"/>
      <point x="683" y="5"/>
      <point x="691" y="34" type="curve" smooth="yes"/>
      <point x="1075" y="1177" type="line" smooth="yes"/>
      <point x="1080" y="1189"/>
      <point x="1081" y="1200"/>
      <point x="1081" y="1209" type="curve" smooth="yes"/>
      <point x="1081" y="1234"/>
      <point x="1049" y="1249"/>
      <point x="974" y="1249" type="curve" smooth="yes"/>
      <point x="920" y="1249" type="line" smooth="yes"/>
      <point x="868" y="1249"/>
      <point x="827" y="1234"/>
      <point x="814" y="1196" type="curve" smooth="yes"/>
      <point x="568" y="427" type="line"/>
      <point x="548" y="365" type="line"/>
      <point x="541" y="365" type="line"/>
      <point x="521" y="427" type="line"/>
      <point x="281" y="1196" type="line" smooth="yes"/>
      <point x="269" y="1236"/>
      <point x="228" y="1249"/>
      <point x="176" y="1249" type="curve" smooth="yes"/>
      <point x="118" y="1249" type="line" smooth="yes"/>
      <point x="43" y="1249"/>
      <point x="9" y="1234"/>
      <point x="9" y="1209" type="curve" smooth="yes"/>
      <point x="9" y="1200"/>
      <point x="13" y="1189"/>
      <point x="17" y="1177" type="curve" smooth="yes"/>
      <point x="401" y="34" type="line" smooth="yes"/>
      <point x="409" y="5"/>
      <point x="448" y="-3"/>
      <point x="500" y="-3" type="curve" smooth="yes"/>
    </contour>
  </outline>
</glyph>
<glyph name="W" format="1">
  <advance width="1568"/>
  <unicode hex="0057"/>
  <outline>
    <contour>
      <point x="503" y="-3" type="line" smooth="yes"/>
      <point x="553" y="-3"/>
      <point x="594" y="9"/>
      <point x="601" y="34" type="curve" smooth="yes"/>
      <point x="752" y="649" type="line"/>
      <point x="783" y="770" type="line"/>
      <point x="811" y="649" type="line"/>
      <point x="957" y="34" type="line" smooth="yes"/>
      <point x="962" y="9"/>
      <point x="1005" y="-3"/>
      <point x="1054" y="-3" type="curve" smooth="yes"/>
      <point x="1184" y="-3" type="line" smooth="yes"/>
      <point x="1234" y="-3"/>
      <point x="1275" y="9"/>
      <point x="1282" y="34" type="curve" smooth="yes"/>
      <point x="1572" y="1175" type="line" smooth="yes"/>
      <point x="1573" y="1186"/>
      <point x="1575" y="1195"/>
      <point x="1575" y="1202" type="curve" smooth="yes"/>
      <point x="1575" y="1230"/>
      <point x="1541" y="1249"/>
      <point x="1465" y="1249" type="curve" smooth="yes"/>
      <point x="1445" y="1249" type="line" smooth="yes"/>
      <point x="1377" y="1249"/>
      <point x="1336" y="1230"/>
      <point x="1326" y="1193" type="curve" smooth="yes"/>
      <point x="1188" y="621" type="line" smooth="yes"/>
      <point x="1172" y="553"/>
      <point x="1150" y="450"/>
      <point x="1128" y="353" type="curve"/>
      <point x="1106" y="452"/>
      <point x="1083" y="553"/>
      <point x="1067" y="621" type="curve" smooth="yes"/>
      <point x="926" y="1211" type="line" smooth="yes"/>
      <point x="920" y="1239"/>
      <point x="886" y="1249"/>
      <point x="829" y="1249" type="curve" smooth="yes"/>
      <point x="761" y="1249" type="line" smooth="yes"/>
      <point x="704" y="1249"/>
      <point x="670" y="1239"/>
      <point x="664" y="1211" type="curve" smooth="yes"/>
      <point x="517" y="621" type="line" smooth="yes"/>
      <point x="502" y="560"/>
      <point x="473" y="464"/>
      <point x="457" y="365" type="curve"/>
      <point x="435" y="464"/>
      <point x="416" y="560"/>
      <point x="402" y="621" type="curve" smooth="yes"/>
      <point x="269" y="1193" type="line" smooth="yes"/>
      <point x="259" y="1230"/>
      <point x="219" y="1249"/>
      <point x="150" y="1249" type="curve" smooth="yes"/>
      <point x="104" y="1249" type="line" smooth="yes"/>
      <point x="27" y="1249"/>
      <point x="-7" y="1230"/>
      <point x="-7" y="1202" type="curve" smooth="yes"/>
      <point x="-7" y="1195"/>
      <point x="-7" y="1186"/>
      <point x="-3" y="1175" type="curve" smooth="yes"/>
      <point x="278" y="34" type="line" smooth="yes"/>
      <point x="283" y="9"/>
      <point x="319" y="-3"/>
      <point x="375" y="-3" type="curve" smooth="yes"/>
    </contour>
    <contour>
      <point x="785" y="1244" type="move" name="top"/>
    </contour>
  </outline>
</glyph>
<glyph name="X" format="1">
  <advance width="285"/>
  <unicode hex="0058"/>
  <outline>
    <contour>
      <point x="33" y="-1" type="line" smooth="yes"/>
      <point x="13" y="-1"/>
      <point x="4" y="3"/>
      <point x="4" y="8" type="curve" smooth="yes"/>
      <point x="4" y="11"/>
      <point x="5" y="15"/>
      <point x="9" y="20" type="curve" smooth="yes"/>
      <point x="105" y="170" type="line"/>
      <point x="19" y="307" type="line" smooth="yes"/>
      <point x="17" y="312"/>
      <point x="15" y="315"/>
      <point x="15" y="319" type="curve" smooth="yes"/>
      <point x="15" y="324"/>
      <point x="24" y="327"/>
      <point x="45" y="327" type="curve" smooth="yes"/>
      <point x="64" y="327" type="line" smooth="yes"/>
      <point x="77" y="327"/>
      <point x="87" y="326"/>
      <point x="92" y="319" type="curve" smooth="yes"/>
      <point x="145" y="232" type="line"/>
      <point x="201" y="319" type="line" smooth="yes"/>
      <point x="206" y="326"/>
      <point x="216" y="327"/>
      <point x="229" y="327" type="curve" smooth="yes"/>
      <point x="247" y="327" type="line" smooth="yes"/>
      <point x="267" y="327"/>
      <point x="277" y="324"/>
      <point x="277" y="319" type="curve" smooth="yes"/>
      <point x="277" y="316"/>
      <point x="275" y="312"/>
      <point x="272" y="307" type="curve" smooth="yes"/>
      <point x="184" y="169" type="line"/>
      <point x="277" y="20" type="line" smooth="yes"/>
      <point x="280" y="15"/>
      <point x="281" y="11"/>
      <point x="281" y="8" type="curve" smooth="yes"/>
      <point x="281" y="3"/>
      <point x="272" y="-1"/>
      <point x="252" y="-1" type="curve" smooth="yes"/>
      <point x="234" y="-1" type="line" smooth="yes"/>
      <point x="220" y="-1"/>
      <point x="210" y="1"/>
      <point x="206" y="8" type="curve" smooth="yes"/>
      <point x="144" y="108" type="line"/>
      <point x="79" y="8" type="line" smooth="yes"/>
      <point x="74" y="-1"/>
      <point x="65" y="-1"/>
      <point x="51" y="-1" type="curve" smooth="yes"/>
    </contour>
  </outline>
</glyph>
<glyph name="Y" format="1">
  <advance width="591"/>
  <unicode hex="0059"/>
  <outline>
    <contour>
      <point x="315" y="-2" type="line" smooth="yes"/>
      <point x="359" y="-2"/>
      <point x="378" y="9"/>
      <point x="378" y="32" type="curve" smooth="yes"/>
      <point x="378" y="351" type="line"/>
      <point x="587" y="693" type="line" smooth="yes"/>
      <point x="594" y="706"/>
      <point x="597" y="714"/>
      <point x="597" y="721" type="curve" smooth="yes"/>
      <point x="597" y="733"/>
      <point x="577" y="742"/>
      <point x="531" y="742" type="curve" smooth="yes"/>
      <point x="492" y="742" type="line" smooth="yes"/>
      <point x="462" y="742"/>
      <point x="439" y="739"/>
      <point x="428" y="722" type="curve" smooth="yes"/>
      <point x="299" y="496" type="line"/>
      <point x="170" y="722" type="line" smooth="yes"/>
      <point x="161" y="739"/>
      <point x="137" y="742"/>
      <point x="107" y="742" type="curve" smooth="yes"/>
      <point x="62" y="742" type="line" smooth="yes"/>
      <point x="15" y="742"/>
      <point x="-7" y="733"/>
      <point x="-7" y="721" type="curve" smooth="yes"/>
      <point x="-7" y="714"/>
      <point x="-2" y="706"/>
      <point x="4" y="693" type="curve" smooth="yes"/>
      <point x="214" y="355" type="line"/>
      <point x="214" y="32" type="line" smooth="yes"/>
      <point x="214" y="9"/>
      <point x="234" y="-2"/>
      <point x="278" y="-2" type="curve" smooth="yes"/>
    </contour>
    <contour>
      <point x="296" y="740" type="move" name="top"/>
    </contour>
    <contour>
      <point x="298" y="0" type="move" name="bottom"/>
    </contour>
  </outline>
</glyph>
<glyph name="Z" format="1">
  <advance width="650"/>
  <unicode hex="005A"/>
  <outline>
    <contour>
      <point x="581" y="0" type="line" smooth="yes"/>
      <point x="603" y="0"/>
      <point x="613" y="16"/>
      <point x="613" y="53" type="curve" smooth="yes"/>
      <point x="613" y="85" type="line" smooth="yes"/>
      <point x="613" y="123"/>
      <point x="603" y="138"/>
      <point x="581" y="138" type="curve" smooth="yes"/>
      <point x="258" y="138" type="line"/>
      <point x="612" y="634" type="line" smooth="yes"/>
      <point x="613" y="636"/>
      <point x="613" y="638"/>
      <point x="613" y="643" type="curve" smooth="yes"/>
      <point x="613" y="670"/>
      <point x="591" y="740"/>
      <point x="573" y="740" type="curve" smooth="yes"/>
      <point x="91" y="740" type="line" smooth="yes"/>
      <point x="69" y="740"/>
      <point x="59" y="723"/>
      <point x="59" y="687" type="curve" smooth="yes"/>
      <point x="59" y="655" type="line" smooth="yes"/>
      <point x="59" y="617"/>
      <point x="69" y="601"/>
      <point x="91" y="601" type="curve" smooth="yes"/>
      <point x="384" y="601" type="line"/>
      <point x="30" y="105" type="line" smooth="yes"/>
      <point x="29" y="103"/>
      <point x="28" y="99"/>
      <point x="28" y="94" type="curve" smooth="yes"/>
      <point x="28" y="66"/>
      <point x="52" y="0"/>
      <point x="70" y="0" type="curve"/>
    </contour>
    <contour>
      <point x="326" y="740" type="move" name="top"/>
    </contour>
    <contour>
      <point x="317" y="0" type="move" name="bottom"/>
    </contour>
  </outline>
</glyph>
<glyph name="bracketleft" format="1">
  <advance width="136"/>
  <unicode hex="005B"/>
  <outline>
    <contour>
      <point x="49" y="-65" type="line" smooth="yes"/>
      <point x="36" y="-65"/>
      <point x="31" y="-59"/>
      <point x="31" y="-46" type="curve" smooth="yes"/>
      <point x="31" y="339" type="line" smooth="yes"/>
      <point x="31" y="353"/>
      <point x="36" y="358"/>
      <point x="49" y="358" type="curve" smooth="yes"/>
      <point x="108" y="358" type="line" smooth="yes"/>
      <point x="118" y="358"/>
      <point x="122" y="353"/>
      <point x="122" y="339" type="curve" smooth="yes"/>
      <point x="122" y="333" type="line" smooth="yes"/>
      <point x="122" y="319"/>
      <point x="118" y="314"/>
      <point x="108" y="314" type="curve" smooth="yes"/>
      <point x="84" y="314" type="line"/>
      <point x="84" y="-20" type="line"/>
      <point x="108" y="-20" type="line" smooth="yes"/>
      <point x="118" y="-20"/>
      <point x="122" y="-26"/>
      <point x="122" y="-39" type="curve" smooth="yes"/>
      <point x="122" y="-46" type="line" smooth="yes"/>
      <point x="122" y="-59"/>
      <point x="118" y="-65"/>
      <point x="108" y="-65" type="curve" smooth="yes"/>
    </contour>
  </outline>
</glyph>
<glyph name="backslash" format="1">
  <advance width="168"/>
  <unicode hex="005C"/>
  <outline>
    <contour>
      <point x="137.5" y="-10.5" type="line" smooth="yes"/>
      <point x="123" y="-10.5"/>
      <point x="113" y="-6"/>
      <point x="109.5" y="3.5" type="curve" smooth="yes"/>
      <point x="2.5" y="313" type="line" smooth="yes"/>
      <point x="1.5" y="315.5"/>
      <point x="1" y="317.5"/>
      <point x="1" y="319" type="curve" smooth="yes"/>
      <point x="1" y="324"/>
      <point x="7" y="327"/>
      <point x="21" y="327" type="curve" smooth="yes"/>
      <point x="31.5" y="327" type="line" smooth="yes"/>
      <point x="46" y="327"/>
      <point x="56.5" y="323.5"/>
      <point x="59.5" y="313" type="curve" smooth="yes"/>
      <point x="167.5" y="3.5" type="line" smooth="yes"/>
      <point x="168" y="1.5"/>
      <point x="168.5" y="-1"/>
      <point x="168.5" y="-3" type="curve" smooth="yes"/>
      <point x="168.5" y="-7.5"/>
      <point x="162" y="-10.5"/>
      <point x="148.5" y="-10.5" type="curve" smooth="yes"/>
    </contour>
  </outline>
</glyph>
<glyph name="bracketright" format="1">
  <advance width="307"/>
  <unicode hex="005D"/>
  <outline>
    <contour>
      <point x="198" y="-147" type="line" smooth="yes"/>
      <point x="227" y="-147"/>
      <point x="241" y="-133"/>
      <point x="241" y="-104" type="curve" smooth="yes"/>
      <point x="241" y="769" type="line" smooth="yes"/>
      <point x="241" y="799"/>
      <point x="227" y="812"/>
      <point x="198" y="812" type="curve" smooth="yes"/>
      <point x="65" y="812" type="line" smooth="yes"/>
      <point x="42" y="812"/>
      <point x="33" y="799"/>
      <point x="33" y="769" type="curve" smooth="yes"/>
      <point x="33" y="754" type="line" smooth="yes"/>
      <point x="33" y="723"/>
      <point x="42" y="711"/>
      <point x="65" y="711" type="curve" smooth="yes"/>
      <point x="118" y="711" type="line"/>
      <point x="118" y="-45" type="line"/>
      <point x="65" y="-45" type="line" smooth="yes"/>
      <point x="42" y="-45"/>
      <point x="33" y="-58"/>
      <point x="33" y="-87" type="curve" smooth="yes"/>
      <point x="33" y="-104" type="line" smooth="yes"/>
      <point x="33" y="-133"/>
      <point x="42" y="-147"/>
      <point x="65" y="-147" type="curve" smooth="yes"/>
    </contour>
  </outline>
</glyph>
<glyph name="asciicircum" format="1">
  <advance width="800"/>
  <unicode hex="005E"/>
  <outline>
    <contour>
      <point x="157" y="565" type="line" smooth="yes"/>
      <point x="203" y="565"/>
      <point x="232" y="582"/>
      <point x="247" y="619" type="curve" smooth="yes"/>
      <point x="401" y="986" type="line"/>
      <point x="553" y="619" type="line" smooth="yes"/>
      <point x="570" y="582"/>
      <point x="599" y="565"/>
      <point x="645" y="565" type="curve" smooth="yes"/>
      <point x="683" y="565" type="line" smooth="yes"/>
      <point x="722" y="565"/>
      <point x="740" y="576"/>
      <point x="740" y="592" type="curve" smooth="yes"/>
      <point x="740" y="599"/>
      <point x="738" y="609"/>
      <point x="732" y="619" type="curve" smooth="yes"/>
      <point x="503" y="1167" type="line" smooth="yes"/>
      <point x="488" y="1202"/>
      <point x="464" y="1220"/>
      <point x="428" y="1220" type="curve" smooth="yes"/>
      <point x="374" y="1220" type="line" smooth="yes"/>
      <point x="336" y="1220"/>
      <point x="314" y="1202"/>
      <point x="299" y="1167" type="curve" smooth="yes"/>
      <point x="70" y="619" type="line" smooth="yes"/>
      <point x="64" y="609"/>
      <point x="63" y="599"/>
      <point x="63" y="592" type="curve" smooth="yes"/>
      <point x="63" y="576"/>
      <point x="80" y="565"/>
      <point x="119" y="565" type="curve" smooth="yes"/>
    </contour>
  </outline>
</glyph>
<glyph name="underscore" format="1">
  <advance width="249"/>
  <unicode hex="005F"/>
  <outline>
    <contour>
      <point x="5" y="-67" type="line" smooth="yes"/>
      <point x="-5" y="-67"/>
      <point x="-10" y="-60"/>
      <point x="-10" y="-44" type="curve" smooth="yes"/>
      <point x="-10" y="-40" type="line" smooth="yes"/>
      <point x="-10" y="-24"/>
      <point x="-5" y="-17"/>
      <point x="5" y="-17" type="curve" smooth="yes"/>
      <point x="245" y="-17" type="line" smooth="yes"/>
      <point x="255" y="-17"/>
      <point x="259" y="-24"/>
      <point x="259" y="-40" type="curve" smooth="yes"/>
      <point x="259" y="-44" type="line" smooth="yes"/>
      <point x="259" y="-60"/>
      <point x="255" y="-67"/>
      <point x="245" y="-67" type="curve" smooth="yes"/>
    </contour>
  </outline>
</glyph>
<glyph name="grave" format="1">
  <advance width="149"/>
  <unicode hex="0060"/>
  <outline>
    <contour>
      <point x="109" y="268" type="curve" smooth="yes"/>
      <point x="87" y="268"/>
      <point x="79" y="274"/>
      <point x="74" y="280" type="curve" smooth="yes"/>
      <point x="29" y="329"/>
      <point x="25" y="330"/>
      <point x="25" y="336" type="curve" smooth="yes"/>
      <point x="25" y="341"/>
      <point x="35" y="342"/>
      <point x="53" y="342" type="curve" smooth="yes"/>
      <point x="72" y="342"/>
      <point x="87" y="339"/>
      <point x="93" y="330" type="curve" smooth="yes"/>
      <point x="114" y="292"/>
      <point x="123" y="280"/>
      <point x="123" y="275" type="curve" smooth="yes"/>
      <point x="123" y="270"/>
      <point x="120" y="268"/>
    </contour>
  </outline>
</glyph>
<glyph name="a" format="1">
  <advance width="576"/>
  <unicode hex="0061"/>
  <outline>
    <contour>
      <point x="298" y="-8"/>
      <point x="349" y="58"/>
      <point x="357" y="72" type="curve"/>
      <point x="363" y="43"/>
      <point x="365" y="-1"/>
      <point x="399" y="-1" type="curve" smooth="yes"/>
      <point x="425" y="-1"/>
      <point x="517" y="8"/>
      <point x="517" y="33" type="curve" smooth="yes"/>
      <point x="517" y="55"/>
      <point x="505" y="77"/>
      <point x="505" y="187" type="curve" smooth="yes"/>
      <point x="505" y="384" type="line" smooth="yes"/>
      <point x="505" y="488"/>
      <point x="444" y="561"/>
      <point x="277" y="561" type="curve" smooth="yes"/>
      <point x="160" y="561"/>
      <point x="75" y="524"/>
      <point x="75" y="489" type="curve" smooth="yes"/>
      <point x="75" y="466"/>
      <point x="108" y="404"/>
      <point x="130" y="404" type="curve" smooth="yes"/>
      <point x="143" y="404"/>
      <point x="189" y="437"/>
      <point x="265" y="437" type="curve" smooth="yes"/>
      <point x="323" y="437"/>
      <point x="348" y="417"/>
      <point x="348" y="378" type="curve" smooth="yes"/>
      <point x="348" y="342" type="line"/>
      <point x="79" y="342"/>
      <point x="44" y="233"/>
      <point x="44" y="147" type="curve" smooth="yes"/>
      <point x="44" y="60"/>
      <point x="86" y="-8"/>
      <point x="201" y="-8" type="curve" smooth="yes"/>
    </contour>
    <contour>
      <point x="218" y="116"/>
      <point x="199" y="135"/>
      <point x="199" y="162" type="curve" smooth="yes"/>
      <point x="199" y="212"/>
      <point x="247" y="241"/>
      <point x="348" y="241" type="curve"/>
      <point x="348" y="181" type="line"/>
      <point x="331" y="145"/>
      <point x="293" y="116"/>
      <point x="253" y="116" type="curve" smooth="yes"/>
    </contour>
    <contour>
      <point x="509" y="33" type="move" name="ogonek"/>
    </contour>
    <contour>
      <point x="288" y="0" type="move" name="bottom"/>
    </contour>
    <contour>
      <point x="288" y="552" type="move" name="top"/>
    </contour>
  </outline>
</glyph>
<glyph name="b" format="1">
  <advance width="265"/>
  <unicode hex="0062"/>
  <outline>
    <contour>
      <point x="158.5" y="-3.5" type="curve" smooth="yes"/>
      <point x="129.5" y="-3.5"/>
      <point x="106.5" y="11"/>
      <point x="96" y="31" type="curve"/>
      <point x="91.5" y="11" type="line" smooth="yes"/>
      <point x="88.5" y="1"/>
      <point x="79" y="-1"/>
      <point x="64.5" y="-1" type="curve" smooth="yes"/>
      <point x="58.5" y="-1" type="line" smooth="yes"/>
      <point x="39" y="-1"/>
      <point x="31" y="4"/>
      <point x="31" y="14" type="curve" smooth="yes"/>
      <point x="31" y="336.5" type="line" smooth="yes"/>
      <point x="31" y="346"/>
      <point x="39" y="351.5"/>
      <point x="58.5" y="351.5" type="curve" smooth="yes"/>
      <point x="72" y="351.5" type="line" smooth="yes"/>
      <point x="91.5" y="351.5"/>
      <point x="99.5" y="346"/>
      <point x="99.5" y="336.5" type="curve" smooth="yes"/>
      <point x="99.5" y="233" type="line"/>
      <point x="109.5" y="240"/>
      <point x="125.5" y="247.5"/>
      <point x="147.5" y="247.5" type="curve" smooth="yes"/>
      <point x="210" y="247.5"/>
      <point x="245.5" y="198"/>
      <point x="245.5" y="122" type="curve" smooth="yes"/>
      <point x="245.5" y="41"/>
      <point x="209" y="-3.5"/>
    </contour>
    <contour>
      <point x="138" y="52.5" type="curve" smooth="yes"/>
      <point x="163.5" y="52.5"/>
      <point x="175.5" y="77"/>
      <point x="175.5" y="122" type="curve" smooth="yes"/>
      <point x="175.5" y="168.5"/>
      <point x="161.5" y="193"/>
      <point x="132.5" y="193" type="curve" smooth="yes"/>
      <point x="118" y="193"/>
      <point x="107" y="188.5"/>
      <point x="99.5" y="184" type="curve"/>
      <point x="99.5" y="80" type="line"/>
      <point x="108" y="65.5"/>
      <point x="120" y="52.5"/>
    </contour>
  </outline>
</glyph>
<glyph name="c" format="1">
  <advance width="512"/>
  <unicode hex="0063"/>
  <outline>
    <contour>
      <point x="346" y="-8"/>
      <point x="496" y="7"/>
      <point x="496" y="66" type="curve" smooth="yes"/>
      <point x="496" y="86"/>
      <point x="464" y="147"/>
      <point x="442" y="147" type="curve" smooth="yes"/>
      <point x="436" y="147"/>
      <point x="430" y="143"/>
      <point x="422" y="140" type="curve" smooth="yes"/>
      <point x="402" y="130"/>
      <point x="368" y="116"/>
      <point x="319" y="116" type="curve" smooth="yes"/>
      <point x="238" y="116"/>
      <point x="205" y="168"/>
      <point x="205" y="277" type="curve" smooth="yes"/>
      <point x="205" y="384"/>
      <point x="241" y="437"/>
      <point x="325" y="437" type="curve" smooth="yes"/>
      <point x="369" y="437"/>
      <point x="397" y="424"/>
      <point x="416" y="414" type="curve" smooth="yes"/>
      <point x="425" y="411"/>
      <point x="431" y="407"/>
      <point x="435" y="407" type="curve" smooth="yes"/>
      <point x="454" y="407"/>
      <point x="491" y="468"/>
      <point x="491" y="489" type="curve" smooth="yes"/>
      <point x="491" y="537"/>
      <point x="391" y="561"/>
      <point x="317" y="561" type="curve" smooth="yes"/>
      <point x="127" y="561"/>
      <point x="44" y="460"/>
      <point x="44" y="273" type="curve" smooth="yes"/>
      <point x="44" y="84"/>
      <point x="130" y="-8"/>
      <point x="311" y="-8" type="curve" smooth="yes"/>
    </contour>
    <contour>
      <point x="290" y="552" type="move" name="top"/>
    </contour>
    <contour>
      <point x="308" y="0" type="move" name="bottom"/>
    </contour>
  </outline>
</glyph>
<glyph name="d" format="1">
  <advance width="1005"/>
  <unicode hex="0064"/>
  <outline>
    <contour>
      <point x="517" y="-15"/>
      <point x="604" y="43"/>
      <point x="645" y="119" type="curve"/>
      <point x="657" y="73"/>
      <point x="660" y="-2"/>
      <point x="717" y="-2" type="curve" smooth="yes"/>
      <point x="761" y="-2"/>
      <point x="916" y="13"/>
      <point x="916" y="56" type="curve" smooth="yes"/>
      <point x="916" y="92"/>
      <point x="894" y="130"/>
      <point x="894" y="314" type="curve" smooth="yes"/>
      <point x="894" y="1283" type="line" smooth="yes"/>
      <point x="894" y="1321"/>
      <point x="862" y="1341"/>
      <point x="788" y="1341" type="curve" smooth="yes"/>
      <point x="738" y="1341" type="line" smooth="yes"/>
      <point x="664" y="1341"/>
      <point x="631" y="1321"/>
      <point x="631" y="1283" type="curve" smooth="yes"/>
      <point x="631" y="889" type="line"/>
      <point x="594" y="916"/>
      <point x="534" y="944"/>
      <point x="450" y="944" type="curve" smooth="yes"/>
      <point x="210" y="944"/>
      <point x="75" y="756"/>
      <point x="75" y="466" type="curve" smooth="yes"/>
      <point x="75" y="157"/>
      <point x="215" y="-15"/>
      <point x="408" y="-15" type="curve" smooth="yes"/>
    </contour>
    <contour>
      <point x="387" y="201"/>
      <point x="341" y="293"/>
      <point x="341" y="466" type="curve" smooth="yes"/>
      <point x="341" y="643"/>
      <point x="394" y="737"/>
      <point x="507" y="737" type="curve" smooth="yes"/>
      <point x="562" y="737"/>
      <point x="603" y="718"/>
      <point x="631" y="703" type="curve"/>
      <point x="631" y="306" type="line"/>
      <point x="599" y="251"/>
      <point x="553" y="201"/>
      <point x="486" y="201" type="curve" smooth="yes"/>
    </contour>
    <contour>
      <point x="886" y="1244" type="move" name="caron"/>
    </contour>
    <contour>
      <point x="517" y="0" type="move" name="bottom"/>
    </contour>
    <contour>
      <point x="742" y="1121" type="move" name="center"/>
    </contour>
  </outline>
</glyph>
<glyph name="e" format="1">
  <advance width="570"/>
  <unicode hex="0065"/>
  <outline>
    <contour>
      <point x="380" y="-8"/>
      <point x="510" y="15"/>
      <point x="510" y="68" type="curve" smooth="yes"/>
      <point x="510" y="88"/>
      <point x="478" y="148"/>
      <point x="456" y="148" type="curve" smooth="yes"/>
      <point x="442" y="148"/>
      <point x="394" y="116"/>
      <point x="328" y="116" type="curve" smooth="yes"/>
      <point x="258" y="116"/>
      <point x="213" y="142"/>
      <point x="206" y="226" type="curve"/>
      <point x="475" y="226" type="line" smooth="yes"/>
      <point x="490" y="226"/>
      <point x="530" y="272"/>
      <point x="530" y="288" type="curve" smooth="yes"/>
      <point x="530" y="435"/>
      <point x="467" y="561"/>
      <point x="301" y="561" type="curve" smooth="yes"/>
      <point x="150" y="561"/>
      <point x="44" y="481"/>
      <point x="44" y="273" type="curve" smooth="yes"/>
      <point x="44" y="103"/>
      <point x="129" y="-8"/>
      <point x="320" y="-8" type="curve" smooth="yes"/>
    </contour>
    <contour>
      <point x="219" y="412"/>
      <point x="256" y="437"/>
      <point x="301" y="437" type="curve" smooth="yes"/>
      <point x="354" y="437"/>
      <point x="378" y="392"/>
      <point x="378" y="331" type="curve"/>
      <point x="206" y="331" type="line"/>
    </contour>
    <contour>
      <point x="462" y="15" type="move" name="ogonek"/>
    </contour>
    <contour>
      <point x="286" y="0" type="move" name="bottom"/>
    </contour>
    <contour>
      <point x="286" y="552" type="move" name="top"/>
    </contour>
  </outline>
</glyph>
<glyph name="f" format="1">
  <advance width="578"/>
  <unicode hex="0066"/>
  <outline>
    <contour>
      <point x="297" y="-3" type="line" smooth="yes"/>
      <point x="372" y="-3"/>
      <point x="404" y="17"/>
      <point x="404" y="53" type="curve" smooth="yes"/>
      <point x="404" y="722" type="line"/>
      <point x="493" y="722" type="line" smooth="yes"/>
      <point x="530" y="722"/>
      <point x="546" y="749"/>
      <point x="546" y="811" type="curve" smooth="yes"/>
      <point x="546" y="841" type="line" smooth="yes"/>
      <point x="546" y="903"/>
      <point x="530" y="930"/>
      <point x="493" y="930" type="curve" smooth="yes"/>
      <point x="404" y="930" type="line"/>
      <point x="404" y="1067" type="line" smooth="yes"/>
      <point x="404" y="1121"/>
      <point x="421" y="1143"/>
      <point x="468" y="1143" type="curve" smooth="yes"/>
      <point x="486" y="1143"/>
      <point x="510" y="1136"/>
      <point x="522" y="1136" type="curve" smooth="yes"/>
      <point x="558" y="1136"/>
      <point x="578" y="1250"/>
      <point x="578" y="1264" type="curve" smooth="yes"/>
      <point x="578" y="1346"/>
      <point x="457" y="1351"/>
      <point x="401" y="1351" type="curve" smooth="yes"/>
      <point x="233" y="1351"/>
      <point x="141" y="1261"/>
      <point x="141" y="1063" type="curve" smooth="yes"/>
      <point x="141" y="930" type="line"/>
      <point x="109" y="930" type="line" smooth="yes"/>
      <point x="71" y="930"/>
      <point x="56" y="903"/>
      <point x="56" y="841" type="curve" smooth="yes"/>
      <point x="56" y="811" type="line" smooth="yes"/>
      <point x="56" y="749"/>
      <point x="71" y="722"/>
      <point x="109" y="722" type="curve" smooth="yes"/>
      <point x="141" y="722" type="line"/>
      <point x="141" y="53" type="line" smooth="yes"/>
      <point x="141" y="17"/>
      <point x="172" y="-3"/>
      <point x="247" y="-3" type="curve" smooth="yes"/>
    </contour>
  </outline>
</glyph>
<glyph name="g" format="1">
  <advance width="577"/>
  <unicode hex="0067"/>
  <outline>
    <contour>
      <point x="441" y="-225"/>
      <point x="550" y="-153"/>
      <point x="550" y="-44" type="curve" smooth="yes"/>
      <point x="550" y="62"/>
      <point x="467" y="93"/>
      <point x="385" y="109" type="curve" smooth="yes"/>
      <point x="306" y="123"/>
      <point x="229" y="123"/>
      <point x="229" y="158" type="curve" smooth="yes"/>
      <point x="229" y="177"/>
      <point x="251" y="187"/>
      <point x="294" y="187" type="curve" smooth="yes"/>
      <point x="413" y="187"/>
      <point x="509" y="241"/>
      <point x="509" y="373" type="curve" smooth="yes"/>
      <point x="509" y="393"/>
      <point x="502" y="420"/>
      <point x="491" y="432" type="curve"/>
      <point x="494" y="436" type="line"/>
      <point x="505" y="434"/>
      <point x="532" y="432"/>
      <point x="539" y="432" type="curve" smooth="yes"/>
      <point x="557" y="432"/>
      <point x="565" y="447"/>
      <point x="565" y="482" type="curve" smooth="yes"/>
      <point x="565" y="500" type="line" smooth="yes"/>
      <point x="565" y="537"/>
      <point x="555" y="552"/>
      <point x="533" y="552" type="curve" smooth="yes"/>
      <point x="363" y="552" type="line"/>
      <point x="338" y="558"/>
      <point x="310" y="561"/>
      <point x="282" y="561" type="curve" smooth="yes"/>
      <point x="156" y="561"/>
      <point x="54" y="509"/>
      <point x="54" y="373" type="curve" smooth="yes"/>
      <point x="54" y="295"/>
      <point x="88" y="244"/>
      <point x="140" y="215" type="curve"/>
      <point x="101" y="194"/>
      <point x="77" y="163"/>
      <point x="77" y="128" type="curve" smooth="yes"/>
      <point x="77" y="93"/>
      <point x="93" y="64"/>
      <point x="123" y="49" type="curve"/>
      <point x="121" y="44" type="line"/>
      <point x="59" y="21"/>
      <point x="24" y="-24"/>
      <point x="24" y="-78" type="curve" smooth="yes"/>
      <point x="24" y="-174"/>
      <point x="106" y="-225"/>
      <point x="276" y="-225" type="curve" smooth="yes"/>
    </contour>
    <contour>
      <point x="210" y="-102"/>
      <point x="178" y="-82"/>
      <point x="178" y="-53" type="curve" smooth="yes"/>
      <point x="178" y="-32"/>
      <point x="198" y="-8"/>
      <point x="235" y="4" type="curve"/>
      <point x="355" y="-4"/>
      <point x="397" y="-16"/>
      <point x="397" y="-49" type="curve" smooth="yes"/>
      <point x="397" y="-81"/>
      <point x="362" y="-102"/>
      <point x="288" y="-102" type="curve" smooth="yes"/>
    </contour>
    <contour>
      <point x="240" y="299"/>
      <point x="203" y="320"/>
      <point x="203" y="373" type="curve" smooth="yes"/>
      <point x="203" y="426"/>
      <point x="240" y="448"/>
      <point x="283" y="448" type="curve" smooth="yes"/>
      <point x="326" y="448"/>
      <point x="362" y="426"/>
      <point x="362" y="373" type="curve" smooth="yes"/>
      <point x="362" y="320"/>
      <point x="326" y="299"/>
      <point x="283" y="299" type="curve" smooth="yes"/>
    </contour>
    <contour>
      <point x="288" y="552" type="move" name="top"/>
    </contour>
  </outline>
</glyph>
<glyph name="h" format="1">
  <advance width="1005"/>
  <unicode hex="0068"/>
  <outline>
    <contour>
      <point x="274" y="-3" type="line" smooth="yes"/>
      <point x="348" y="-3"/>
      <point x="381" y="17"/>
      <point x="381" y="53" type="curve" smooth="yes"/>
      <point x="381" y="624" type="line"/>
      <point x="402" y="665"/>
      <point x="450" y="727"/>
      <point x="522" y="727" type="curve" smooth="yes"/>
      <point x="601" y="727"/>
      <point x="636" y="686"/>
      <point x="636" y="617" type="curve" smooth="yes"/>
      <point x="636" y="53" type="line" smooth="yes"/>
      <point x="636" y="17"/>
      <point x="669" y="-3"/>
      <point x="744" y="-3" type="curve" smooth="yes"/>
      <point x="793" y="-3" type="line" smooth="yes"/>
      <point x="868" y="-3"/>
      <point x="899" y="17"/>
      <point x="899" y="53" type="curve" smooth="yes"/>
      <point x="899" y="657" type="line" smooth="yes"/>
      <point x="899" y="853"/>
      <point x="809" y="944"/>
      <point x="631" y="944" type="curve" smooth="yes"/>
      <point x="525" y="944"/>
      <point x="435" y="889"/>
      <point x="381" y="824" type="curve"/>
      <point x="381" y="1283" type="line" smooth="yes"/>
      <point x="381" y="1321"/>
      <point x="348" y="1341"/>
      <point x="274" y="1341" type="curve" smooth="yes"/>
      <point x="225" y="1341" type="line" smooth="yes"/>
      <point x="150" y="1341"/>
      <point x="118" y="1321"/>
      <point x="118" y="1283" type="curve" smooth="yes"/>
      <point x="118" y="53" type="line" smooth="yes"/>
      <point x="118" y="17"/>
      <point x="150" y="-3"/>
      <point x="225" y="-3" type="curve" smooth="yes"/>
    </contour>
    <contour>
      <point x="297" y="1121" type="move" name="center"/>
    </contour>
    <contour>
      <point x="500" y="0" type="move" name="bottom"/>
    </contour>
    <contour>
      <point x="251" y="1302" type="move" name="top"/>
    </contour>
  </outline>
</glyph>
<glyph name="i" format="1">
  <advance width="471"/>
  <unicode hex="0069"/>
  <outline>
    <contour>
      <point x="261" y="-3" type="line" smooth="yes"/>
      <point x="336" y="-3"/>
      <point x="368" y="17"/>
      <point x="368" y="53" type="curve" smooth="yes"/>
      <point x="368" y="877" type="line" smooth="yes"/>
      <point x="368" y="914"/>
      <point x="336" y="933"/>
      <point x="261" y="933" type="curve" smooth="yes"/>
      <point x="212" y="933" type="line" smooth="yes"/>
      <point x="137" y="933"/>
      <point x="105" y="914"/>
      <point x="105" y="877" type="curve" smooth="yes"/>
      <point x="105" y="53" type="line" smooth="yes"/>
      <point x="105" y="17"/>
      <point x="137" y="-3"/>
      <point x="212" y="-3" type="curve" smooth="yes"/>
    </contour>
    <contour>
      <point x="261" y="1083" type="line" smooth="yes"/>
      <point x="336" y="1083"/>
      <point x="368" y="1102"/>
      <point x="368" y="1140" type="curve" smooth="yes"/>
      <point x="368" y="1283" type="line" smooth="yes"/>
      <point x="368" y="1321"/>
      <point x="336" y="1341"/>
      <point x="261" y="1341" type="curve" smooth="yes"/>
      <point x="212" y="1341" type="line" smooth="yes"/>
      <point x="137" y="1341"/>
      <point x="105" y="1321"/>
      <point x="105" y="1283" type="curve" smooth="yes"/>
      <point x="105" y="1140" type="line" smooth="yes"/>
      <point x="105" y="1102"/>
      <point x="137" y="1083"/>
      <point x="212" y="1083" type="curve" smooth="yes"/>
    </contour>
    <contour>
      <point x="233" y="0" type="move" name="bottom"/>
    </contour>
  </outline>
</glyph>
<glyph name="j" format="1">
  <advance width="291"/>
  <unicode hex="006A"/>
  <outline>
    <contour>
      <point x="163" y="-225"/>
      <point x="231" y="-168"/>
      <point x="231" y="-53" type="curve" smooth="yes"/>
      <point x="231" y="520" type="line" smooth="yes"/>
      <point x="231" y="543"/>
      <point x="211" y="554"/>
      <point x="167" y="554" type="curve" smooth="yes"/>
      <point x="137" y="554" type="line" smooth="yes"/>
      <point x="93" y="554"/>
      <point x="74" y="543"/>
      <point x="74" y="520" type="curve" smooth="yes"/>
      <point x="74" y="-55" type="line" smooth="yes"/>
      <point x="74" y="-86"/>
      <point x="64" y="-102"/>
      <point x="36" y="-102" type="curve" smooth="yes"/>
      <point x="24" y="-102"/>
      <point x="10" y="-97"/>
      <point x="4" y="-97" type="curve" smooth="yes"/>
      <point x="-19" y="-97"/>
      <point x="-34" y="-146"/>
      <point x="-34" y="-169" type="curve" smooth="yes"/>
      <point x="-34" y="-210"/>
      <point x="-8" y="-225"/>
      <point x="76" y="-225" type="curve" smooth="yes"/>
    </contour>
    <contour>
      <point x="167" y="644" type="line" smooth="yes"/>
      <point x="211" y="644"/>
      <point x="230" y="656"/>
      <point x="230" y="677" type="curve" smooth="yes"/>
      <point x="230" y="763" type="line" smooth="yes"/>
      <point x="230" y="785"/>
      <point x="211" y="797"/>
      <point x="167" y="797" type="curve" smooth="yes"/>
      <point x="137" y="797" type="line" smooth="yes"/>
      <point x="93" y="797"/>
      <point x="73" y="785"/>
      <point x="73" y="763" type="curve" smooth="yes"/>
      <point x="73" y="677" type="line" smooth="yes"/>
      <point x="73" y="656"/>
      <point x="93" y="644"/>
      <point x="137" y="644" type="curve"/>
    </contour>
  </outline>
</glyph>
<glyph name="k" format="1">
  <advance width="243"/>
  <unicode hex="006B"/>
  <outline>
    <contour>
      <point x="0" y="0" type="move" name="Anchor-1"/>
    </contour>
    <contour>
      <point x="122" y="0" type="move" name="Anchor-0"/>
    </contour>
    <contour>
      <point x="58.5" y="-1" type="line" smooth="yes"/>
      <point x="39" y="-1"/>
      <point x="31" y="4"/>
      <point x="31" y="14" type="curve" smooth="yes"/>
      <point x="31" y="336.5" type="line" smooth="yes"/>
      <point x="31" y="346"/>
      <point x="39" y="351.5"/>
      <point x="58.5" y="351.5" type="curve" smooth="yes"/>
      <point x="72" y="351.5" type="line" smooth="yes"/>
      <point x="91.5" y="351.5"/>
      <point x="99.5" y="346"/>
      <point x="99.5" y="336.5" type="curve" smooth="yes"/>
      <point x="99.5" y="152" type="line"/>
      <point x="101.5" y="151.5" type="line"/>
      <point x="158" y="236" type="line" smooth="yes"/>
      <point x="163.5" y="243.5"/>
      <point x="173" y="244.5"/>
      <point x="186.5" y="244.5" type="curve" smooth="yes"/>
      <point x="203.5" y="244.5" type="line" smooth="yes"/>
      <point x="221.5" y="244.5"/>
      <point x="229.5" y="242"/>
      <point x="229.5" y="237.5" type="curve" smooth="yes"/>
      <point x="229.5" y="235.5"/>
      <point x="228.5" y="232"/>
      <point x="225.5" y="228.5" type="curve" smooth="yes"/>
      <point x="161" y="136" type="line"/>
      <point x="236.5" y="16" type="line" smooth="yes"/>
      <point x="239" y="11.5"/>
      <point x="240.5" y="9"/>
      <point x="240.5" y="6" type="curve" smooth="yes"/>
      <point x="240.5" y="2"/>
      <point x="232" y="-1"/>
      <point x="214" y="-1" type="curve" smooth="yes"/>
      <point x="194.5" y="-1" type="line" smooth="yes"/>
      <point x="181" y="-1"/>
      <point x="170.5" y="1"/>
      <point x="166.5" y="8" type="curve" smooth="yes"/>
      <point x="101.5" y="115" type="line"/>
      <point x="99.5" y="114.5" type="line"/>
      <point x="99.5" y="14" type="line" smooth="yes"/>
      <point x="99.5" y="4"/>
      <point x="91.5" y="-1"/>
      <point x="72" y="-1" type="curve" smooth="yes"/>
    </contour>
  </outline>
</glyph>
<glyph name="l" format="1">
  <advance width="315"/>
  <unicode hex="006C"/>
  <outline>
    <contour>
      <point x="254" y="-8"/>
      <point x="321" y="-6"/>
      <point x="321" y="43" type="curve" smooth="yes"/>
      <point x="321" y="52"/>
      <point x="310" y="119"/>
      <point x="289" y="119" type="curve" smooth="yes"/>
      <point x="283" y="119"/>
      <point x="271" y="116"/>
      <point x="261" y="116" type="curve" smooth="yes"/>
      <point x="233" y="116"/>
      <point x="223" y="129"/>
      <point x="223" y="161" type="curve" smooth="yes"/>
      <point x="223" y="763" type="line" smooth="yes"/>
      <point x="223" y="785"/>
      <point x="204" y="797"/>
      <point x="159" y="797" type="curve" smooth="yes"/>
      <point x="130" y="797" type="line" smooth="yes"/>
      <point x="85" y="797"/>
      <point x="66" y="785"/>
      <point x="66" y="763" type="curve" smooth="yes"/>
      <point x="66" y="163" type="line" smooth="yes"/>
      <point x="66" y="45"/>
      <point x="121" y="-8"/>
      <point x="221" y="-8" type="curve" smooth="yes"/>
    </contour>
    <contour>
      <point x="322" y="354" type="move" name="center"/>
    </contour>
    <contour>
      <point x="204" y="795" type="move" name="caron"/>
    </contour>
    <contour>
      <point x="145" y="761" type="move" name="top"/>
    </contour>
    <contour>
      <point x="194" y="0" type="move" name="bottom"/>
    </contour>
  </outline>
</glyph>
<glyph name="m" format="1">
  <advance width="395"/>
  <unicode hex="006D"/>
  <outline>
    <contour>
      <point x="297" y="248" type="curve" smooth="yes"/>
      <point x="343" y="248"/>
      <point x="365" y="224"/>
      <point x="365" y="172" type="curve" smooth="yes"/>
      <point x="365" y="14" type="line" smooth="yes"/>
      <point x="365" y="4"/>
      <point x="356" y="-1"/>
      <point x="337" y="-1" type="curve" smooth="yes"/>
      <point x="324" y="-1" type="line" smooth="yes"/>
      <point x="304" y="-1"/>
      <point x="296" y="4"/>
      <point x="296" y="14" type="curve" smooth="yes"/>
      <point x="296" y="162" type="line" smooth="yes"/>
      <point x="296" y="180"/>
      <point x="289" y="191"/>
      <point x="268" y="191" type="curve" smooth="yes"/>
      <point x="248" y="191"/>
      <point x="237" y="174"/>
      <point x="231" y="164" type="curve"/>
      <point x="231" y="14" type="line" smooth="yes"/>
      <point x="231" y="4"/>
      <point x="223" y="-1"/>
      <point x="203" y="-1" type="curve" smooth="yes"/>
      <point x="190" y="-1" type="line" smooth="yes"/>
      <point x="171" y="-1"/>
      <point x="162" y="4"/>
      <point x="162" y="14" type="curve" smooth="yes"/>
      <point x="162" y="162" type="line" smooth="yes"/>
      <point x="162" y="180"/>
      <point x="155" y="191"/>
      <point x="135" y="191" type="curve" smooth="yes"/>
      <point x="116" y="191"/>
      <point x="104" y="175"/>
      <point x="98" y="164" type="curve"/>
      <point x="98" y="14" type="line" smooth="yes"/>
      <point x="98" y="4"/>
      <point x="90" y="-1"/>
      <point x="70" y="-1" type="curve" smooth="yes"/>
      <point x="57" y="-1" type="line" smooth="yes"/>
      <point x="38" y="-1"/>
      <point x="29" y="4"/>
      <point x="29" y="14" type="curve" smooth="yes"/>
      <point x="29" y="162" type="line" smooth="yes"/>
      <point x="29" y="209"/>
      <point x="24" y="218"/>
      <point x="24" y="228" type="curve" smooth="yes"/>
      <point x="24" y="239"/>
      <point x="64" y="243"/>
      <point x="76" y="243" type="curve" smooth="yes"/>
      <point x="91" y="243"/>
      <point x="92" y="224"/>
      <point x="94" y="212" type="curve"/>
      <point x="108" y="230"/>
      <point x="133" y="248"/>
      <point x="163" y="248" type="curve" smooth="yes"/>
      <point x="196" y="248"/>
      <point x="216" y="237"/>
      <point x="225" y="212" type="curve"/>
      <point x="239" y="230"/>
      <point x="265" y="248"/>
    </contour>
  </outline>
</glyph>
<glyph name="n" format="1">
  <advance width="589"/>
  <unicode hex="006E"/>
  <outline>
    <contour>
      <point x="159" y="-2" type="line" smooth="yes"/>
      <point x="203" y="-2"/>
      <point x="222" y="9"/>
      <point x="222" y="32" type="curve" smooth="yes"/>
      <point x="222" y="371" type="line"/>
      <point x="235" y="396"/>
      <point x="263" y="432"/>
      <point x="306" y="432" type="curve" smooth="yes"/>
      <point x="353" y="432"/>
      <point x="370" y="409"/>
      <point x="370" y="367" type="curve" smooth="yes"/>
      <point x="370" y="32" type="line" smooth="yes"/>
      <point x="370" y="9"/>
      <point x="389" y="-2"/>
      <point x="433" y="-2" type="curve" smooth="yes"/>
      <point x="463" y="-2" type="line" smooth="yes"/>
      <point x="507" y="-2"/>
      <point x="527" y="9"/>
      <point x="527" y="32" type="curve" smooth="yes"/>
      <point x="527" y="390" type="line" smooth="yes"/>
      <point x="527" y="507"/>
      <point x="476" y="561"/>
      <point x="371" y="561" type="curve" smooth="yes"/>
      <point x="303" y="561"/>
      <point x="244" y="520"/>
      <point x="213" y="481" type="curve"/>
      <point x="208" y="507"/>
      <point x="205" y="550"/>
      <point x="171" y="550" type="curve" smooth="yes"/>
      <point x="146" y="550"/>
      <point x="53" y="541"/>
      <point x="53" y="516" type="curve" smooth="yes"/>
      <point x="53" y="495"/>
      <point x="66" y="473"/>
      <point x="66" y="367" type="curve" smooth="yes"/>
      <point x="66" y="32" type="line" smooth="yes"/>
      <point x="66" y="9"/>
      <point x="85" y="-2"/>
      <point x="129" y="-2" type="curve" smooth="yes"/>
    </contour>
    <contour>
      <point x="295" y="552" type="move" name="top"/>
    </contour>
    <contour>
      <point x="295" y="0" type="move" name="bottom"/>
    </contour>
  </outline>
</glyph>
<glyph name="o" format="1">
  <advance width="601"/>
  <unicode hex="006F"/>
  <outline>
    <contour>
      <point x="469" y="-8"/>
      <point x="557" y="93"/>
      <point x="557" y="277" type="curve" smooth="yes"/>
      <point x="557" y="460"/>
      <point x="469" y="561"/>
      <point x="301" y="561" type="curve" smooth="yes"/>
      <point x="133" y="561"/>
      <point x="44" y="460"/>
      <point x="44" y="277" type="curve" smooth="yes"/>
      <point x="44" y="93"/>
      <point x="133" y="-8"/>
      <point x="301" y="-8" type="curve" smooth="yes"/>
    </contour>
    <contour>
      <point x="234" y="116"/>
      <point x="203" y="171"/>
      <point x="203" y="277" type="curve" smooth="yes"/>
      <point x="203" y="382"/>
      <point x="234" y="437"/>
      <point x="301" y="437" type="curve" smooth="yes"/>
      <point x="369" y="437"/>
      <point x="399" y="382"/>
      <point x="399" y="277" type="curve" smooth="yes"/>
      <point x="399" y="171"/>
      <point x="369" y="116"/>
      <point x="301" y="116" type="curve" smooth="yes"/>
    </contour>
    <contour>
      <point x="373" y="0" type="move" name="ogonek"/>
    </contour>
    <contour>
      <point x="301" y="552" type="move" name="top"/>
    </contour>
    <contour>
      <point x="410" y="534" type="move" name="horn"/>
    </contour>
    <contour>
      <point x="307" y="0" type="move" name="bottom"/>
    </contour>
  </outline>
</glyph>
<glyph name="p" format="1">
  <advance width="605"/>
  <unicode hex="0070"/>
  <outline>
    <contour>
      <point x="167" y="-218" type="line" smooth="yes"/>
      <point x="211" y="-218"/>
      <point x="230" y="-206"/>
      <point x="230" y="-184" type="curve" smooth="yes"/>
      <point x="230" y="24" type="line"/>
      <point x="253" y="8"/>
      <point x="287" y="-8"/>
      <point x="338" y="-8" type="curve" smooth="yes"/>
      <point x="480" y="-8"/>
      <point x="561" y="104"/>
      <point x="561" y="276" type="curve" smooth="yes"/>
      <point x="561" y="459"/>
      <point x="477" y="561"/>
      <point x="363" y="561" type="curve" smooth="yes"/>
      <point x="298" y="561"/>
      <point x="246" y="528"/>
      <point x="222" y="482" type="curve"/>
      <point x="215" y="507"/>
      <point x="213" y="550"/>
      <point x="179" y="550" type="curve" smooth="yes"/>
      <point x="152" y="550"/>
      <point x="61" y="541"/>
      <point x="61" y="516" type="curve" smooth="yes"/>
      <point x="61" y="495"/>
      <point x="73" y="473"/>
      <point x="73" y="367" type="curve" smooth="yes"/>
      <point x="73" y="-184" type="line" smooth="yes"/>
      <point x="73" y="-206"/>
      <point x="93" y="-218"/>
      <point x="137" y="-218" type="curve" smooth="yes"/>
    </contour>
    <contour>
      <point x="272" y="116"/>
      <point x="247" y="126"/>
      <point x="230" y="135" type="curve"/>
      <point x="230" y="371" type="line"/>
      <point x="250" y="404"/>
      <point x="276" y="433"/>
      <point x="317" y="433" type="curve" smooth="yes"/>
      <point x="375" y="433"/>
      <point x="402" y="379"/>
      <point x="402" y="276" type="curve" smooth="yes"/>
      <point x="402" y="170"/>
      <point x="370" y="116"/>
      <point x="304" y="116" type="curve" smooth="yes"/>
    </contour>
  </outline>
</glyph>
<glyph name="q" format="1">
  <advance width="1007"/>
  <unicode hex="0071"/>
  <outline>
    <contour>
      <point x="797" y="-367" type="line" smooth="yes"/>
      <point x="872" y="-367"/>
      <point x="903" y="-347"/>
      <point x="903" y="-309" type="curve" smooth="yes"/>
      <point x="903" y="877" type="line" smooth="yes"/>
      <point x="903" y="914"/>
      <point x="872" y="933"/>
      <point x="797" y="933" type="curve" smooth="yes"/>
      <point x="775" y="933" type="line" smooth="yes"/>
      <point x="718" y="933"/>
      <point x="681" y="926"/>
      <point x="672" y="887" type="curve" smooth="yes"/>
      <point x="667" y="862"/>
      <point x="660" y="836"/>
      <point x="655" y="811" type="curve"/>
      <point x="614" y="887"/>
      <point x="527" y="944"/>
      <point x="416" y="944" type="curve" smooth="yes"/>
      <point x="219" y="944"/>
      <point x="75" y="773"/>
      <point x="75" y="464" type="curve" smooth="yes"/>
      <point x="75" y="174"/>
      <point x="213" y="-15"/>
      <point x="459" y="-15" type="curve" smooth="yes"/>
      <point x="542" y="-15"/>
      <point x="603" y="15"/>
      <point x="640" y="41" type="curve"/>
      <point x="640" y="-309" type="line" smooth="yes"/>
      <point x="640" y="-347"/>
      <point x="672" y="-367"/>
      <point x="747" y="-367" type="curve" smooth="yes"/>
    </contour>
    <contour>
      <point x="399" y="194"/>
      <point x="341" y="286"/>
      <point x="341" y="464" type="curve" smooth="yes"/>
      <point x="341" y="636"/>
      <point x="391" y="729"/>
      <point x="495" y="729" type="curve" smooth="yes"/>
      <point x="562" y="729"/>
      <point x="609" y="679"/>
      <point x="640" y="624" type="curve"/>
      <point x="640" y="228" type="line"/>
      <point x="612" y="212"/>
      <point x="571" y="194"/>
      <point x="515" y="194" type="curve" smooth="yes"/>
    </contour>
  </outline>
</glyph>
<glyph name="r" format="1">
  <advance width="386"/>
  <unicode hex="0072"/>
  <outline>
    <contour>
      <point x="159" y="-2" type="line" smooth="yes"/>
      <point x="203" y="-2"/>
      <point x="222" y="9"/>
      <point x="222" y="32" type="curve" smooth="yes"/>
      <point x="222" y="371" type="line"/>
      <point x="235" y="392"/>
      <point x="263" y="424"/>
      <point x="306" y="424" type="curve" smooth="yes"/>
      <point x="328" y="424"/>
      <point x="341" y="415"/>
      <point x="357" y="415" type="curve" smooth="yes"/>
      <point x="378" y="415"/>
      <point x="389" y="485"/>
      <point x="389" y="505" type="curve" smooth="yes"/>
      <point x="389" y="526"/>
      <point x="381" y="561"/>
      <point x="329" y="561" type="curve" smooth="yes"/>
      <point x="268" y="561"/>
      <point x="236" y="520"/>
      <point x="213" y="481" type="curve"/>
      <point x="208" y="507"/>
      <point x="205" y="550"/>
      <point x="171" y="550" type="curve" smooth="yes"/>
      <point x="146" y="550"/>
      <point x="53" y="541"/>
      <point x="53" y="516" type="curve" smooth="yes"/>
      <point x="53" y="495"/>
      <point x="66" y="473"/>
      <point x="66" y="367" type="curve" smooth="yes"/>
      <point x="66" y="32" type="line" smooth="yes"/>
      <point x="66" y="9"/>
      <point x="85" y="-2"/>
      <point x="129" y="-2" type="curve" smooth="yes"/>
    </contour>
    <contour>
      <point x="141" y="552" type="move" name="top"/>
    </contour>
    <contour>
      <point x="159" y="-2" type="move" name="bottom"/>
    </contour>
  </outline>
</glyph>
<glyph name="s" format="1">
  <advance width="436"/>
  <unicode hex="0073"/>
  <outline>
    <contour>
      <point x="340" y="-8"/>
      <point x="415" y="65"/>
      <point x="415" y="172" type="curve" smooth="yes"/>
      <point x="415" y="256"/>
      <point x="371" y="295"/>
      <point x="323" y="319" type="curve" smooth="yes"/>
      <point x="268" y="345"/>
      <point x="204" y="355"/>
      <point x="204" y="402" type="curve" smooth="yes"/>
      <point x="204" y="427"/>
      <point x="226" y="439"/>
      <point x="260" y="439" type="curve" smooth="yes"/>
      <point x="309" y="439"/>
      <point x="339" y="416"/>
      <point x="350" y="416" type="curve" smooth="yes"/>
      <point x="371" y="416"/>
      <point x="396" y="476"/>
      <point x="396" y="500" type="curve" smooth="yes"/>
      <point x="396" y="544"/>
      <point x="299" y="561"/>
      <point x="238" y="561" type="curve" smooth="yes"/>
      <point x="120" y="561"/>
      <point x="45" y="498"/>
      <point x="45" y="388" type="curve" smooth="yes"/>
      <point x="45" y="283"/>
      <point x="115" y="250"/>
      <point x="166" y="230" type="curve" smooth="yes"/>
      <point x="213" y="210"/>
      <point x="256" y="200"/>
      <point x="256" y="160" type="curve" smooth="yes"/>
      <point x="256" y="131"/>
      <point x="236" y="116"/>
      <point x="195" y="116" type="curve" smooth="yes"/>
      <point x="140" y="116"/>
      <point x="105" y="146"/>
      <point x="88" y="146" type="curve" smooth="yes"/>
      <point x="68" y="146"/>
      <point x="33" y="91"/>
      <point x="33" y="64" type="curve" smooth="yes"/>
      <point x="33" y="19"/>
      <point x="129" y="-8"/>
      <point x="209" y="-8" type="curve" smooth="yes"/>
    </contour>
    <contour>
      <point x="219" y="552" type="move" name="top"/>
    </contour>
    <contour>
      <point x="219" y="0" type="move" name="bottom"/>
    </contour>
  </outline>
</glyph>
<glyph name="t" format="1">
  <advance width="609"/>
  <unicode hex="0074"/>
  <outline>
    <contour>
      <point x="452" y="-15"/>
      <point x="568" y="-9"/>
      <point x="568" y="73" type="curve" smooth="yes"/>
      <point x="568" y="87"/>
      <point x="548" y="201"/>
      <point x="512" y="201" type="curve" smooth="yes"/>
      <point x="502" y="201"/>
      <point x="481" y="194"/>
      <point x="464" y="194" type="curve" smooth="yes"/>
      <point x="418" y="194"/>
      <point x="401" y="217"/>
      <point x="401" y="271" type="curve" smooth="yes"/>
      <point x="401" y="722" type="line"/>
      <point x="488" y="722" type="line" smooth="yes"/>
      <point x="525" y="722"/>
      <point x="541" y="749"/>
      <point x="541" y="811" type="curve" smooth="yes"/>
      <point x="541" y="841" type="line" smooth="yes"/>
      <point x="541" y="903"/>
      <point x="525" y="930"/>
      <point x="488" y="930" type="curve" smooth="yes"/>
      <point x="401" y="930" type="line"/>
      <point x="401" y="1099" type="line" smooth="yes"/>
      <point x="401" y="1136"/>
      <point x="374" y="1155"/>
      <point x="312" y="1155" type="curve" smooth="yes"/>
      <point x="256" y="1155" type="line" smooth="yes"/>
      <point x="198" y="1155"/>
      <point x="165" y="1136"/>
      <point x="160" y="1099" type="curve" smooth="yes"/>
      <point x="137" y="930" type="line"/>
      <point x="109" y="930" type="line" smooth="yes"/>
      <point x="71" y="930"/>
      <point x="56" y="903"/>
      <point x="56" y="841" type="curve" smooth="yes"/>
      <point x="56" y="811" type="line" smooth="yes"/>
      <point x="56" y="749"/>
      <point x="71" y="722"/>
      <point x="109" y="722" type="curve" smooth="yes"/>
      <point x="137" y="722" type="line"/>
      <point x="137" y="274" type="line" smooth="yes"/>
      <point x="137" y="77"/>
      <point x="230" y="-15"/>
      <point x="397" y="-15" type="curve" smooth="yes"/>
    </contour>
    <contour>
      <point x="374" y="1337" type="move" name="caron"/>
    </contour>
    <contour>
      <point x="358" y="0" type="move" name="bottom"/>
    </contour>
    <contour>
      <point x="300" y="519" type="move" name="center"/>
    </contour>
  </outline>
</glyph>
<glyph name="u" format="1">
  <advance width="589"/>
  <unicode hex="0075"/>
  <outline>
    <contour>
      <point x="286" y="-8"/>
      <point x="345" y="32"/>
      <point x="375" y="72" type="curve"/>
      <point x="381" y="43"/>
      <point x="383" y="-1"/>
      <point x="417" y="-1" type="curve" smooth="yes"/>
      <point x="443" y="-1"/>
      <point x="536" y="8"/>
      <point x="536" y="33" type="curve" smooth="yes"/>
      <point x="536" y="55"/>
      <point x="522" y="77"/>
      <point x="522" y="187" type="curve" smooth="yes"/>
      <point x="522" y="520" type="line" smooth="yes"/>
      <point x="522" y="543"/>
      <point x="505" y="554"/>
      <point x="459" y="554" type="curve" smooth="yes"/>
      <point x="430" y="554" type="line" smooth="yes"/>
      <point x="385" y="554"/>
      <point x="366" y="543"/>
      <point x="366" y="520" type="curve" smooth="yes"/>
      <point x="366" y="181" type="line"/>
      <point x="353" y="158"/>
      <point x="325" y="120"/>
      <point x="282" y="120" type="curve" smooth="yes"/>
      <point x="235" y="120"/>
      <point x="219" y="146"/>
      <point x="219" y="187" type="curve" smooth="yes"/>
      <point x="219" y="520" type="line" smooth="yes"/>
      <point x="219" y="543"/>
      <point x="199" y="554"/>
      <point x="155" y="554" type="curve" smooth="yes"/>
      <point x="126" y="554" type="line" smooth="yes"/>
      <point x="82" y="554"/>
      <point x="62" y="543"/>
      <point x="62" y="520" type="curve" smooth="yes"/>
      <point x="62" y="163" type="line" smooth="yes"/>
      <point x="62" y="45"/>
      <point x="112" y="-8"/>
      <point x="218" y="-8" type="curve" smooth="yes"/>
    </contour>
    <contour>
      <point x="479" y="10" type="move" name="ogonek"/>
    </contour>
    <contour>
      <point x="295" y="552" type="move" name="top"/>
    </contour>
    <contour>
      <point x="430" y="554" type="move" name="horn"/>
    </contour>
    <contour>
      <point x="265" y="0" type="move" name="bottom"/>
    </contour>
  </outline>
</glyph>
<glyph name="v" format="1">
  <advance width="512"/>
  <unicode hex="0076"/>
  <outline>
    <contour>
      <point x="273" y="-2" type="line" smooth="yes"/>
      <point x="303" y="-2"/>
      <point x="327" y="3"/>
      <point x="332" y="21" type="curve" smooth="yes"/>
      <point x="500" y="512" type="line" smooth="yes"/>
      <point x="502" y="520"/>
      <point x="504" y="527"/>
      <point x="504" y="532" type="curve" smooth="yes"/>
      <point x="504" y="547"/>
      <point x="485" y="554"/>
      <point x="441" y="554" type="curve" smooth="yes"/>
      <point x="413" y="554" type="line" smooth="yes"/>
      <point x="382" y="554"/>
      <point x="360" y="550"/>
      <point x="354" y="533" type="curve" smooth="yes"/>
      <point x="291" y="337" type="line" smooth="yes"/>
      <point x="285" y="314"/>
      <point x="273" y="256"/>
      <point x="262" y="210" type="curve"/>
      <point x="257" y="210" type="line"/>
      <point x="247" y="256"/>
      <point x="236" y="312"/>
      <point x="229" y="337" type="curve" smooth="yes"/>
      <point x="166" y="533" type="line" smooth="yes"/>
      <point x="161" y="550"/>
      <point x="137" y="554"/>
      <point x="107" y="554" type="curve" smooth="yes"/>
      <point x="72" y="554" type="line" smooth="yes"/>
      <point x="28" y="554"/>
      <point x="8" y="547"/>
      <point x="8" y="532" type="curve" smooth="yes"/>
      <point x="8" y="527"/>
      <point x="9" y="520"/>
      <point x="12" y="512" type="curve" smooth="yes"/>
      <point x="179" y="21" type="line" smooth="yes"/>
      <point x="185" y="3"/>
      <point x="209" y="-2"/>
      <point x="240" y="-2" type="curve" smooth="yes"/>
    </contour>
  </outline>
</glyph>
<glyph name="w" format="1">
  <advance width="789"/>
  <unicode hex="0077"/>
  <outline>
    <contour>
      <point x="264" y="-2" type="line" smooth="yes"/>
      <point x="294" y="-2"/>
      <point x="318" y="6"/>
      <point x="321" y="21" type="curve" smooth="yes"/>
      <point x="382" y="272" type="line"/>
      <point x="386" y="287"/>
      <point x="390" y="301"/>
      <point x="394" y="318" type="curve"/>
      <point x="398" y="303"/>
      <point x="401" y="287"/>
      <point x="405" y="273" type="curve"/>
      <point x="470" y="21" type="line" smooth="yes"/>
      <point x="474" y="6"/>
      <point x="494" y="-2"/>
      <point x="528" y="-2" type="curve" smooth="yes"/>
      <point x="580" y="-2" type="line" smooth="yes"/>
      <point x="610" y="-2"/>
      <point x="634" y="6"/>
      <point x="638" y="21" type="curve" smooth="yes"/>
      <point x="763" y="511" type="line" smooth="yes"/>
      <point x="764" y="518"/>
      <point x="765" y="522"/>
      <point x="765" y="528" type="curve" smooth="yes"/>
      <point x="765" y="544"/>
      <point x="744" y="554"/>
      <point x="699" y="554" type="curve" smooth="yes"/>
      <point x="660" y="554"/>
      <point x="642" y="548"/>
      <point x="637" y="533" type="curve" smooth="yes"/>
      <point x="564" y="254" type="line"/>
      <point x="560" y="238"/>
      <point x="555" y="223"/>
      <point x="552" y="208" type="curve"/>
      <point x="549" y="222"/>
      <point x="543" y="236"/>
      <point x="540" y="251" type="curve"/>
      <point x="474" y="533" type="line" smooth="yes"/>
      <point x="470" y="548"/>
      <point x="444" y="554"/>
      <point x="414" y="554" type="curve" smooth="yes"/>
      <point x="390" y="554" type="line" smooth="yes"/>
      <point x="356" y="554"/>
      <point x="335" y="548"/>
      <point x="332" y="533" type="curve" smooth="yes"/>
      <point x="264" y="256" type="line"/>
      <point x="260" y="241"/>
      <point x="256" y="225"/>
      <point x="252" y="208" type="curve"/>
      <point x="247" y="223"/>
      <point x="243" y="238"/>
      <point x="240" y="254" type="curve"/>
      <point x="168" y="533" type="line" smooth="yes"/>
      <point x="163" y="549"/>
      <point x="141" y="554"/>
      <point x="85" y="554" type="curve" smooth="yes"/>
      <point x="39" y="554"/>
      <point x="19" y="544"/>
      <point x="19" y="528" type="curve" smooth="yes"/>
      <point x="19" y="522"/>
      <point x="19" y="518"/>
      <point x="21" y="511" type="curve" smooth="yes"/>
      <point x="154" y="21" type="line" smooth="yes"/>
      <point x="158" y="6"/>
      <point x="178" y="-2"/>
      <point x="212" y="-2" type="curve" smooth="yes"/>
    </contour>
    <contour>
      <point x="396" y="552" type="move" name="top"/>
    </contour>
  </outline>
</glyph>
<glyph name="x" format="1">
  <advance width="862"/>
  <unicode hex="0078"/>
  <outline>
    <contour>
      <point x="174" y="-3" type="line" smooth="yes"/>
      <point x="226" y="-3"/>
      <point x="263" y="-2"/>
      <point x="283" y="31" type="curve" smooth="yes"/>
      <point x="408" y="226" type="line" smooth="yes"/>
      <point x="414" y="239"/>
      <point x="423" y="251"/>
      <point x="430" y="263" type="curve"/>
      <point x="437" y="251"/>
      <point x="447" y="239"/>
      <point x="454" y="226" type="curve" smooth="yes"/>
      <point x="576" y="31" type="line" smooth="yes"/>
      <point x="596" y="-2"/>
      <point x="633" y="-3"/>
      <point x="684" y="-3" type="curve" smooth="yes"/>
      <point x="742" y="-3" type="line" smooth="yes"/>
      <point x="818" y="-3"/>
      <point x="853" y="9"/>
      <point x="853" y="29" type="curve" smooth="yes"/>
      <point x="853" y="41"/>
      <point x="846" y="56"/>
      <point x="834" y="75" type="curve" smooth="yes"/>
      <point x="571" y="473" type="line"/>
      <point x="831" y="857" type="line" smooth="yes"/>
      <point x="843" y="877"/>
      <point x="850" y="891"/>
      <point x="850" y="901" type="curve" smooth="yes"/>
      <point x="850" y="921"/>
      <point x="814" y="933"/>
      <point x="738" y="933" type="curve" smooth="yes"/>
      <point x="686" y="933" type="line" smooth="yes"/>
      <point x="635" y="933"/>
      <point x="597" y="932"/>
      <point x="578" y="899" type="curve" smooth="yes"/>
      <point x="468" y="727" type="line" smooth="yes"/>
      <point x="457" y="711"/>
      <point x="448" y="698"/>
      <point x="437" y="681" type="curve"/>
      <point x="428" y="696"/>
      <point x="420" y="710"/>
      <point x="411" y="724" type="curve" smooth="yes"/>
      <point x="302" y="899" type="line" smooth="yes"/>
      <point x="283" y="932"/>
      <point x="246" y="933"/>
      <point x="194" y="933" type="curve" smooth="yes"/>
      <point x="137" y="933" type="line" smooth="yes"/>
      <point x="61" y="933"/>
      <point x="25" y="921"/>
      <point x="25" y="901" type="curve" smooth="yes"/>
      <point x="25" y="889"/>
      <point x="32" y="875"/>
      <point x="44" y="855" type="curve" smooth="yes"/>
      <point x="297" y="471" type="line"/>
      <point x="29" y="73" type="line" smooth="yes"/>
      <point x="17" y="53"/>
      <point x="9" y="39"/>
      <point x="9" y="29" type="curve" smooth="yes"/>
      <point x="9" y="9"/>
      <point x="44" y="-3"/>
      <point x="121" y="-3" type="curve" smooth="yes"/>
    </contour>
  </outline>
</glyph>
<glyph name="y" format="1">
  <advance width="508"/>
  <unicode hex="0079"/>
  <outline>
    <contour>
      <point x="200" y="-218" type="line" smooth="yes"/>
      <point x="231" y="-218"/>
      <point x="253" y="-212"/>
      <point x="258" y="-195" type="curve" smooth="yes"/>
      <point x="501" y="512" type="line" smooth="yes"/>
      <point x="504" y="520"/>
      <point x="505" y="527"/>
      <point x="505" y="532" type="curve" smooth="yes"/>
      <point x="505" y="547"/>
      <point x="486" y="554"/>
      <point x="442" y="554" type="curve" smooth="yes"/>
      <point x="415" y="554" type="line" smooth="yes"/>
      <point x="384" y="554"/>
      <point x="362" y="550"/>
      <point x="357" y="533" type="curve" smooth="yes"/>
      <point x="294" y="337" type="line" smooth="yes"/>
      <point x="287" y="315"/>
      <point x="274" y="255"/>
      <point x="264" y="210" type="curve"/>
      <point x="260" y="210" type="line"/>
      <point x="251" y="255"/>
      <point x="238" y="314"/>
      <point x="231" y="337" type="curve" smooth="yes"/>
      <point x="168" y="533" type="line" smooth="yes"/>
      <point x="163" y="550"/>
      <point x="140" y="554"/>
      <point x="109" y="554" type="curve" smooth="yes"/>
      <point x="75" y="554" type="line" smooth="yes"/>
      <point x="31" y="554"/>
      <point x="10" y="547"/>
      <point x="10" y="532" type="curve" smooth="yes"/>
      <point x="10" y="527"/>
      <point x="13" y="520"/>
      <point x="15" y="512" type="curve" smooth="yes"/>
      <point x="190" y="0" type="line"/>
      <point x="123" y="-177" type="line" smooth="yes"/>
      <point x="119" y="-184"/>
      <point x="118" y="-191"/>
      <point x="118" y="-195" type="curve" smooth="yes"/>
      <point x="118" y="-210"/>
      <point x="138" y="-218"/>
      <point x="181" y="-218" type="curve" smooth="yes"/>
    </contour>
    <contour>
      <point x="255" y="552" type="move" name="top"/>
    </contour>
    <contour>
      <point x="381" y="0" type="move" name="bottom"/>
    </contour>
  </outline>
</glyph>
<glyph name="z" format="1">
  <advance width="517"/>
  <unicode hex="007A"/>
  <outline>
    <contour>
      <point x="454" y="0" type="line" smooth="yes"/>
      <point x="476" y="0"/>
      <point x="486" y="16"/>
      <point x="486" y="53" type="curve" smooth="yes"/>
      <point x="486" y="71" type="line" smooth="yes"/>
      <point x="486" y="108"/>
      <point x="476" y="124"/>
      <point x="454" y="124" type="curve" smooth="yes"/>
      <point x="237" y="124" type="line"/>
      <point x="478" y="456" type="line" smooth="yes"/>
      <point x="480" y="458"/>
      <point x="481" y="464"/>
      <point x="481" y="472" type="curve" smooth="yes"/>
      <point x="481" y="501"/>
      <point x="463" y="552"/>
      <point x="451" y="552" type="curve" smooth="yes"/>
      <point x="77" y="552" type="line" smooth="yes"/>
      <point x="54" y="552"/>
      <point x="45" y="537"/>
      <point x="45" y="500" type="curve" smooth="yes"/>
      <point x="45" y="482" type="line" smooth="yes"/>
      <point x="45" y="445"/>
      <point x="54" y="428"/>
      <point x="77" y="428" type="curve" smooth="yes"/>
      <point x="273" y="428" type="line"/>
      <point x="31" y="95" type="line" smooth="yes"/>
      <point x="29" y="92"/>
      <point x="28" y="86"/>
      <point x="28" y="81" type="curve" smooth="yes"/>
      <point x="28" y="53"/>
      <point x="45" y="0"/>
      <point x="59" y="0" type="curve"/>
    </contour>
    <contour>
      <point x="258" y="552" type="move" name="top"/>
    </contour>
    <contour>
      <point x="255" y="0" type="move" name="bottom"/>
    </contour>
  </outline>
</glyph>
<glyph name="braceleft" format="1">
  <advance width="488"/>
  <unicode hex="007B"/>
  <outline>
    <contour>
      <point x="413" y="-246" type="line" smooth="yes"/>
      <point x="450" y="-246"/>
      <point x="466" y="-225"/>
      <point x="466" y="-174" type="curve" smooth="yes"/>
      <point x="466" y="-150" type="line" smooth="yes"/>
      <point x="466" y="-102"/>
      <point x="450" y="-80"/>
      <point x="416" y="-78" type="curve"/>
      <point x="414" y="-78" type="line" smooth="yes"/>
      <point x="384" y="-78"/>
      <point x="372" y="-58"/>
      <point x="372" y="-15" type="curve" smooth="yes"/>
      <point x="372" y="288" type="line" smooth="yes"/>
      <point x="372" y="420"/>
      <point x="329" y="515"/>
      <point x="251" y="560" type="curve"/>
      <point x="329" y="604"/>
      <point x="372" y="701"/>
      <point x="372" y="832" type="curve" smooth="yes"/>
      <point x="372" y="1135" type="line" smooth="yes"/>
      <point x="372" y="1181"/>
      <point x="386" y="1198"/>
      <point x="423" y="1198" type="curve" smooth="yes"/>
      <point x="420" y="1198" type="line" smooth="yes"/>
      <point x="452" y="1200"/>
      <point x="466" y="1223"/>
      <point x="466" y="1270" type="curve" smooth="yes"/>
      <point x="466" y="1295" type="line" smooth="yes"/>
      <point x="466" y="1344"/>
      <point x="450" y="1365"/>
      <point x="413" y="1365" type="curve" smooth="yes"/>
      <point x="343" y="1365" type="line" smooth="yes"/>
      <point x="240" y="1365"/>
      <point x="167" y="1280"/>
      <point x="167" y="1159" type="curve" smooth="yes"/>
      <point x="167" y="860" type="line" smooth="yes"/>
      <point x="167" y="745"/>
      <point x="146" y="686"/>
      <point x="84" y="660" type="curve"/>
      <point x="50" y="640"/>
      <point x="32" y="617"/>
      <point x="32" y="571" type="curve" smooth="yes"/>
      <point x="32" y="549" type="line" smooth="yes"/>
      <point x="32" y="503"/>
      <point x="50" y="481"/>
      <point x="84" y="461" type="curve"/>
      <point x="146" y="434"/>
      <point x="167" y="375"/>
      <point x="167" y="259" type="curve" smooth="yes"/>
      <point x="167" y="-39" type="line" smooth="yes"/>
      <point x="167" y="-160"/>
      <point x="240" y="-246"/>
      <point x="343" y="-246" type="curve" smooth="yes"/>
    </contour>
  </outline>
</glyph>
<glyph name="bar" format="1">
  <advance width="117"/>
  <unicode hex="007C"/>
  <outline>
    <contour>
      <point x="55" y="-65" type="line" smooth="yes"/>
      <point x="39" y="-65"/>
      <point x="32" y="-60"/>
      <point x="32" y="-51" type="curve" smooth="yes"/>
      <point x="32" y="344" type="line" smooth="yes"/>
      <point x="32" y="354"/>
      <point x="39" y="358"/>
      <point x="55" y="358" type="curve" smooth="yes"/>
      <point x="62" y="358" type="line" smooth="yes"/>
      <point x="79" y="358"/>
      <point x="86" y="354"/>
      <point x="86" y="344" type="curve" smooth="yes"/>
      <point x="86" y="-51" type="line" smooth="yes"/>
      <point x="86" y="-60"/>
      <point x="79" y="-65"/>
      <point x="62" y="-65" type="curve" smooth="yes"/>
    </contour>
  </outline>
</glyph>
<glyph name="braceright" format="1">
  <advance width="128"/>
  <unicode hex="007D"/>
  <outline>
    <contour>
      <point x="23" y="-65" type="line" smooth="yes"/>
      <point x="13" y="-65"/>
      <point x="9" y="-59"/>
      <point x="9" y="-46" type="curve" smooth="yes"/>
      <point x="9" y="-39" type="line" smooth="yes"/>
      <point x="9" y="-26"/>
      <point x="13" y="-21"/>
      <point x="22" y="-21" type="curve" smooth="yes"/>
      <point x="23" y="-21" type="line" smooth="yes"/>
      <point x="31" y="-21"/>
      <point x="34" y="-15"/>
      <point x="34" y="-4" type="curve" smooth="yes"/>
      <point x="34" y="76" type="line" smooth="yes"/>
      <point x="34" y="110"/>
      <point x="45" y="135"/>
      <point x="65" y="147" type="curve"/>
      <point x="45" y="159"/>
      <point x="34" y="184"/>
      <point x="34" y="218" type="curve" smooth="yes"/>
      <point x="34" y="298" type="line" smooth="yes"/>
      <point x="34" y="310"/>
      <point x="31" y="314"/>
      <point x="21" y="314" type="curve" smooth="yes"/>
      <point x="21" y="314" type="line" smooth="yes"/>
      <point x="12" y="314"/>
      <point x="9" y="321"/>
      <point x="9" y="333" type="curve" smooth="yes"/>
      <point x="9" y="339" type="line" smooth="yes"/>
      <point x="9" y="353"/>
      <point x="13" y="358"/>
      <point x="23" y="358" type="curve" smooth="yes"/>
      <point x="41" y="358" type="line" smooth="yes"/>
      <point x="68" y="358"/>
      <point x="87" y="336"/>
      <point x="87" y="304" type="curve" smooth="yes"/>
      <point x="87" y="226" type="line" smooth="yes"/>
      <point x="87" y="196"/>
      <point x="93" y="180"/>
      <point x="109" y="173" type="curve" smooth="yes"/>
      <point x="118" y="168"/>
      <point x="123" y="162"/>
      <point x="123" y="150" type="curve" smooth="yes"/>
      <point x="123" y="144" type="line" smooth="yes"/>
      <point x="123" y="132"/>
      <point x="118" y="126"/>
      <point x="109" y="121" type="curve" smooth="yes"/>
      <point x="93" y="114"/>
      <point x="87" y="99"/>
      <point x="87" y="68" type="curve" smooth="yes"/>
      <point x="87" y="-11" type="line" smooth="yes"/>
      <point x="87" y="-42"/>
      <point x="68" y="-65"/>
      <point x="41" y="-65" type="curve" smooth="yes"/>
    </contour>
  </outline>
</glyph>
<glyph name="exclamdown" format="1">
  <advance width="311"/>
  <unicode hex="00A1"/>
  <outline>
    <contour>
      <point x="159" y="-191" type="line" smooth="yes"/>
      <point x="203" y="-191"/>
      <point x="222" y="-179"/>
      <point x="222" y="-157" type="curve" smooth="yes"/>
      <point x="222" y="284" type="line" smooth="yes"/>
      <point x="222" y="305"/>
      <point x="211" y="318"/>
      <point x="168" y="318" type="curve" smooth="yes"/>
      <point x="157" y="318" type="line" smooth="yes"/>
      <point x="114" y="318"/>
      <point x="106" y="305"/>
      <point x="103" y="284" type="curve"/>
      <point x="85" y="135"/>
      <point x="50" y="-138"/>
      <point x="50" y="-161" type="curve"/>
      <point x="50" y="-179"/>
      <point x="72" y="-191"/>
      <point x="114" y="-191" type="curve" smooth="yes"/>
    </contour>
    <contour>
      <point x="179" y="390" type="line" smooth="yes"/>
      <point x="225" y="390"/>
      <point x="243" y="402"/>
      <point x="243" y="424" type="curve" smooth="yes"/>
      <point x="243" y="520" type="line" smooth="yes"/>
      <point x="243" y="543"/>
      <point x="225" y="554"/>
      <point x="179" y="554" type="curve" smooth="yes"/>
      <point x="147" y="554" type="line" smooth="yes"/>
      <point x="102" y="554"/>
      <point x="83" y="543"/>
      <point x="83" y="520" type="curve" smooth="yes"/>
      <point x="83" y="424" type="line" smooth="yes"/>
      <point x="83" y="402"/>
      <point x="102" y="390"/>
      <point x="147" y="390" type="curve"/>
    </contour>
  </outline>
</glyph>
<glyph name="cent" format="1">
  <advance width="227"/>
  <unicode hex="00A2"/>
  <outline>
    <contour>
      <point x="136.5" y="-36.5" type="curve" smooth="yes"/>
      <point x="127" y="-36.5"/>
      <point x="122.5" y="-32"/>
      <point x="122.5" y="-22.5" type="curve" smooth="yes"/>
      <point x="122.5" y="-3.5" type="line"/>
      <point x="52.5" y="0.5"/>
      <point x="19.5" y="41"/>
      <point x="19.5" y="120" type="curve" smooth="yes"/>
      <point x="19.5" y="198"/>
      <point x="51" y="242"/>
      <point x="122.5" y="247" type="curve"/>
      <point x="122.5" y="259.5" type="line" smooth="yes"/>
      <point x="122.5" y="269.5"/>
      <point x="127" y="273.5"/>
      <point x="135" y="273.5" type="curve" smooth="yes"/>
      <point x="145" y="273.5"/>
      <point x="149" y="269.5"/>
      <point x="149" y="259.5" type="curve" smooth="yes"/>
      <point x="149" y="247" type="line"/>
      <point x="179" y="244.5"/>
      <point x="213" y="234"/>
      <point x="213" y="215.5" type="curve" smooth="yes"/>
      <point x="213" y="206.5"/>
      <point x="196" y="179.5"/>
      <point x="188.5" y="179.5" type="curve" smooth="yes"/>
      <point x="182.5" y="179.5"/>
      <point x="171" y="190"/>
      <point x="149" y="192.5" type="curve"/>
      <point x="149" y="51.5" type="line"/>
      <point x="173" y="53.5"/>
      <point x="185" y="64.5"/>
      <point x="190.5" y="64.5" type="curve" smooth="yes"/>
      <point x="201" y="64.5"/>
      <point x="215" y="38"/>
      <point x="215" y="29" type="curve" smooth="yes"/>
      <point x="215" y="8"/>
      <point x="173.5" y="0"/>
      <point x="149" y="-3" type="curve"/>
      <point x="149" y="-22.5" type="line" smooth="yes"/>
      <point x="149" y="-32"/>
      <point x="145" y="-36.5"/>
    </contour>
    <contour>
      <point x="122.5" y="52.5" type="curve"/>
      <point x="122.5" y="190.5" type="line"/>
      <point x="99.5" y="183.5"/>
      <point x="89.5" y="161"/>
      <point x="89.5" y="122" type="curve" smooth="yes"/>
      <point x="89.5" y="82"/>
      <point x="99.5" y="59"/>
    </contour>
  </outline>
</glyph>
<glyph name="sterling" format="1">
  <advance width="229"/>
  <unicode hex="00A3"/>
  <outline>
    <contour>
      <point x="27" y="0" type="line" smooth="yes"/>
      <point x="14" y="0"/>
      <point x="9" y="6"/>
      <point x="9" y="19" type="curve" smooth="yes"/>
      <point x="9" y="28" type="line" smooth="yes"/>
      <point x="9" y="47"/>
      <point x="44" y="50"/>
      <point x="44" y="82" type="curve" smooth="yes"/>
      <point x="44" y="145" type="line"/>
      <point x="29" y="145" type="line" smooth="yes"/>
      <point x="19" y="145"/>
      <point x="15" y="152"/>
      <point x="15" y="168" type="curve" smooth="yes"/>
      <point x="15" y="176" type="line" smooth="yes"/>
      <point x="15" y="193"/>
      <point x="19" y="200"/>
      <point x="29" y="200" type="curve" smooth="yes"/>
      <point x="44" y="200" type="line"/>
      <point x="44" y="234" type="line" smooth="yes"/>
      <point x="44" y="298"/>
      <point x="80" y="330"/>
      <point x="151" y="330" type="curve" smooth="yes"/>
      <point x="162" y="330"/>
      <point x="202" y="330"/>
      <point x="202" y="309" type="curve" smooth="yes"/>
      <point x="202" y="292"/>
      <point x="192" y="274"/>
      <point x="184" y="274" type="curve" smooth="yes"/>
      <point x="182" y="274"/>
      <point x="170" y="278"/>
      <point x="154" y="278" type="curve" smooth="yes"/>
      <point x="126" y="278"/>
      <point x="112" y="266"/>
      <point x="112" y="237" type="curve" smooth="yes"/>
      <point x="112" y="200" type="line"/>
      <point x="162" y="200" type="line" smooth="yes"/>
      <point x="172" y="200"/>
      <point x="176" y="193"/>
      <point x="176" y="176" type="curve" smooth="yes"/>
      <point x="176" y="168" type="line" smooth="yes"/>
      <point x="176" y="152"/>
      <point x="172" y="145"/>
      <point x="162" y="145" type="curve" smooth="yes"/>
      <point x="112" y="145" type="line"/>
      <point x="112" y="117" type="line" smooth="yes"/>
      <point x="112" y="88"/>
      <point x="106" y="68"/>
      <point x="93" y="55" type="curve"/>
      <point x="196" y="55" type="line" smooth="yes"/>
      <point x="206" y="55"/>
      <point x="210" y="48"/>
      <point x="210" y="31" type="curve" smooth="yes"/>
      <point x="210" y="24" type="line" smooth="yes"/>
      <point x="210" y="7"/>
      <point x="206" y="0"/>
      <point x="196" y="0" type="curve" smooth="yes"/>
    </contour>
  </outline>
</glyph>
<glyph name="currency" format="1">
  <advance width="564"/>
  <unicode hex="00A4"/>
  <outline>
    <contour>
      <point x="125" y="76"/>
      <point x="133" y="81"/>
      <point x="142" y="88" type="curve" smooth="yes"/>
      <point x="163" y="111" type="line"/>
      <point x="197" y="93"/>
      <point x="235" y="83"/>
      <point x="275" y="83" type="curve" smooth="yes"/>
      <point x="316" y="83"/>
      <point x="354" y="93"/>
      <point x="386" y="114" type="curve"/>
      <point x="412" y="88" type="line" smooth="yes"/>
      <point x="420" y="81"/>
      <point x="428" y="76"/>
      <point x="437" y="76" type="curve" smooth="yes"/>
      <point x="447" y="76"/>
      <point x="456" y="81"/>
      <point x="464" y="88" type="curve" smooth="yes"/>
      <point x="496" y="120" type="line" smooth="yes"/>
      <point x="505" y="129"/>
      <point x="508" y="138"/>
      <point x="508" y="148" type="curve" smooth="yes"/>
      <point x="508" y="157"/>
      <point x="505" y="165"/>
      <point x="496" y="173" type="curve" smooth="yes"/>
      <point x="470" y="199" type="line"/>
      <point x="488" y="231"/>
      <point x="498" y="266"/>
      <point x="498" y="305" type="curve" smooth="yes"/>
      <point x="498" y="346"/>
      <point x="488" y="382"/>
      <point x="468" y="415" type="curve"/>
      <point x="499" y="446" type="line" smooth="yes"/>
      <point x="507" y="455"/>
      <point x="511" y="464"/>
      <point x="511" y="473" type="curve" smooth="yes"/>
      <point x="511" y="482"/>
      <point x="507" y="490"/>
      <point x="499" y="499" type="curve" smooth="yes"/>
      <point x="467" y="531" type="line" smooth="yes"/>
      <point x="458" y="539"/>
      <point x="450" y="543"/>
      <point x="442" y="543" type="curve" smooth="yes"/>
      <point x="432" y="543"/>
      <point x="423" y="539"/>
      <point x="414" y="531" type="curve" smooth="yes"/>
      <point x="383" y="500" type="line"/>
      <point x="350" y="518"/>
      <point x="315" y="529"/>
      <point x="275" y="529" type="curve" smooth="yes"/>
      <point x="236" y="529"/>
      <point x="200" y="518"/>
      <point x="168" y="501" type="curve"/>
      <point x="138" y="531" type="line" smooth="yes"/>
      <point x="130" y="539"/>
      <point x="121" y="543"/>
      <point x="113" y="543" type="curve" smooth="yes"/>
      <point x="104" y="543"/>
      <point x="94" y="539"/>
      <point x="85" y="531" type="curve" smooth="yes"/>
      <point x="55" y="499" type="line" smooth="yes"/>
      <point x="45" y="490"/>
      <point x="41" y="482"/>
      <point x="41" y="473" type="curve" smooth="yes"/>
      <point x="41" y="464"/>
      <point x="45" y="455"/>
      <point x="55" y="446" type="curve" smooth="yes"/>
      <point x="83" y="417" type="line"/>
      <point x="63" y="384"/>
      <point x="52" y="346"/>
      <point x="52" y="305" type="curve" smooth="yes"/>
      <point x="52" y="265"/>
      <point x="63" y="229"/>
      <point x="81" y="197" type="curve"/>
      <point x="57" y="173" type="line" smooth="yes"/>
      <point x="49" y="165"/>
      <point x="44" y="157"/>
      <point x="44" y="148" type="curve" smooth="yes"/>
      <point x="44" y="138"/>
      <point x="49" y="129"/>
      <point x="57" y="120" type="curve" smooth="yes"/>
      <point x="88" y="88" type="line" smooth="yes"/>
      <point x="98" y="81"/>
      <point x="107" y="76"/>
      <point x="116" y="76" type="curve" smooth="yes"/>
    </contour>
    <contour>
      <point x="218" y="203"/>
      <point x="172" y="248"/>
      <point x="172" y="305" type="curve" smooth="yes"/>
      <point x="172" y="363"/>
      <point x="218" y="409"/>
      <point x="275" y="409" type="curve" smooth="yes"/>
      <point x="332" y="409"/>
      <point x="378" y="363"/>
      <point x="378" y="305" type="curve" smooth="yes"/>
      <point x="378" y="248"/>
      <point x="332" y="203"/>
      <point x="275" y="203" type="curve" smooth="yes"/>
    </contour>
  </outline>
</glyph>
<glyph name="yen" format="1">
  <advance width="261"/>
  <unicode hex="00A5"/>
  <outline>
    <contour>
      <point x="263.5" y="318" type="curve" smooth="yes"/>
      <point x="263.5" y="315"/>
      <point x="262" y="311"/>
      <point x="259" y="306" type="curve" smooth="yes"/>
      <point x="188" y="190.5" type="line"/>
      <point x="227" y="190.5" type="line" smooth="yes"/>
      <point x="236.5" y="190.5"/>
      <point x="241" y="186.5"/>
      <point x="241" y="176.5" type="curve" smooth="yes"/>
      <point x="241" y="169.5" type="line" smooth="yes"/>
      <point x="241" y="160"/>
      <point x="236.5" y="155"/>
      <point x="227" y="155" type="curve" smooth="yes"/>
      <point x="166.5" y="155" type="line"/>
      <point x="166.5" y="126" type="line"/>
      <point x="227" y="126" type="line" smooth="yes"/>
      <point x="236.5" y="126"/>
      <point x="241" y="121.5"/>
      <point x="241" y="112" type="curve" smooth="yes"/>
      <point x="241" y="105" type="line" smooth="yes"/>
      <point x="241" y="95"/>
      <point x="236.5" y="91"/>
      <point x="227" y="91" type="curve" smooth="yes"/>
      <point x="166.5" y="91" type="line"/>
      <point x="166.5" y="14" type="line" smooth="yes"/>
      <point x="166.5" y="4"/>
      <point x="158" y="-1"/>
      <point x="138.5" y="-1" type="curve" smooth="yes"/>
      <point x="122.5" y="-1" type="line" smooth="yes"/>
      <point x="103" y="-1"/>
      <point x="94.5" y="4"/>
      <point x="94.5" y="14" type="curve" smooth="yes"/>
      <point x="94.5" y="91" type="line"/>
      <point x="32.5" y="91" type="line" smooth="yes"/>
      <point x="23" y="91"/>
      <point x="18.5" y="95"/>
      <point x="18.5" y="105" type="curve" smooth="yes"/>
      <point x="18.5" y="112" type="line" smooth="yes"/>
      <point x="18.5" y="121.5"/>
      <point x="23" y="126"/>
      <point x="32.5" y="126" type="curve" smooth="yes"/>
      <point x="94.5" y="126" type="line"/>
      <point x="94.5" y="155.5" type="line"/>
      <point x="32.5" y="155.5" type="line" smooth="yes"/>
      <point x="23" y="155.5"/>
      <point x="18.5" y="160"/>
      <point x="18.5" y="169.5" type="curve" smooth="yes"/>
      <point x="18.5" y="176.5" type="line" smooth="yes"/>
      <point x="18.5" y="186.5"/>
      <point x="23" y="190.5"/>
      <point x="32.5" y="190.5" type="curve" smooth="yes"/>
      <point x="73.5" y="190.5" type="line"/>
      <point x="2" y="306" type="line" smooth="yes"/>
      <point x="-1" y="311"/>
      <point x="-3" y="315"/>
      <point x="-3" y="318" type="curve" smooth="yes"/>
      <point x="-3" y="323.5"/>
      <point x="6.5" y="327"/>
      <point x="27" y="327" type="curve" smooth="yes"/>
      <point x="47" y="327" type="line" smooth="yes"/>
      <point x="60.5" y="327"/>
      <point x="71" y="325.5"/>
      <point x="75" y="318.5" type="curve" smooth="yes"/>
      <point x="132" y="218.5" type="line"/>
      <point x="189" y="318.5" type="line" smooth="yes"/>
      <point x="193.5" y="325.5"/>
      <point x="203.5" y="327"/>
      <point x="217" y="327" type="curve" smooth="yes"/>
      <point x="234" y="327" type="line" smooth="yes"/>
      <point x="254.5" y="327"/>
      <point x="263.5" y="323.5"/>
    </contour>
  </outline>
</glyph>
<glyph name="brokenbar" format="1">
  <advance width="117"/>
  <unicode hex="00A6"/>
  <outline>
    <contour>
      <point x="55" y="177" type="line" smooth="yes"/>
      <point x="38.5" y="177"/>
      <point x="31.5" y="182"/>
      <point x="31.5" y="192" type="curve" smooth="yes"/>
      <point x="31.5" y="344" type="line" smooth="yes"/>
      <point x="31.5" y="353.5"/>
      <point x="38.5" y="359"/>
      <point x="55" y="359" type="curve" smooth="yes"/>
      <point x="62" y="359" type="line" smooth="yes"/>
      <point x="78.5" y="359"/>
      <point x="85.5" y="353.5"/>
      <point x="85.5" y="344" type="curve" smooth="yes"/>
      <point x="85.5" y="192" type="line" smooth="yes"/>
      <point x="85.5" y="182"/>
      <point x="78.5" y="177"/>
      <point x="62" y="177" type="curve" smooth="yes"/>
    </contour>
    <contour>
      <point x="55" y="-65" type="line" smooth="yes"/>
      <point x="38.5" y="-65"/>
      <point x="31.5" y="-60"/>
      <point x="31.5" y="-50.5" type="curve" smooth="yes"/>
      <point x="31.5" y="101.5" type="line" smooth="yes"/>
      <point x="31.5" y="111.5"/>
      <point x="38.5" y="116.5"/>
      <point x="55" y="116.5" type="curve" smooth="yes"/>
      <point x="62" y="116.5" type="line" smooth="yes"/>
      <point x="78.5" y="116.5"/>
      <point x="85.5" y="111.5"/>
      <point x="85.5" y="101.5" type="curve" smooth="yes"/>
      <point x="85.5" y="-50.5" type="line" smooth="yes"/>
      <point x="85.5" y="-60"/>
      <point x="78.5" y="-65"/>
      <point x="62" y="-65" type="curve" smooth="yes"/>
    </contour>
  </outline>
</glyph>
<glyph name="section" format="1">
  <advance width="454"/>
  <unicode hex="00A7"/>
  <outline>
    <contour>
      <point x="339" y="-8"/>
      <point x="414" y="55"/>
      <point x="414" y="156" type="curve" smooth="yes"/>
      <point x="414" y="203"/>
      <point x="397" y="234"/>
      <point x="374" y="256" type="curve"/>
      <point x="400" y="286"/>
      <point x="413" y="325"/>
      <point x="413" y="371" type="curve" smooth="yes"/>
      <point x="413" y="555"/>
      <point x="202" y="521"/>
      <point x="202" y="593" type="curve" smooth="yes"/>
      <point x="202" y="615"/>
      <point x="221" y="626"/>
      <point x="258" y="626" type="curve" smooth="yes"/>
      <point x="306" y="626"/>
      <point x="338" y="603"/>
      <point x="349" y="603" type="curve" smooth="yes"/>
      <point x="370" y="603"/>
      <point x="394" y="668"/>
      <point x="394" y="681" type="curve" smooth="yes"/>
      <point x="394" y="741"/>
      <point x="273" y="749"/>
      <point x="238" y="749" type="curve" smooth="yes"/>
      <point x="118" y="749"/>
      <point x="43" y="687"/>
      <point x="43" y="585" type="curve" smooth="yes"/>
      <point x="43" y="537"/>
      <point x="60" y="506"/>
      <point x="84" y="486" type="curve"/>
      <point x="58" y="455"/>
      <point x="44" y="415"/>
      <point x="44" y="370" type="curve" smooth="yes"/>
      <point x="44" y="185"/>
      <point x="256" y="219"/>
      <point x="256" y="148" type="curve" smooth="yes"/>
      <point x="256" y="126"/>
      <point x="237" y="116"/>
      <point x="199" y="116" type="curve" smooth="yes"/>
      <point x="151" y="116"/>
      <point x="119" y="137"/>
      <point x="109" y="137" type="curve" smooth="yes"/>
      <point x="87" y="137"/>
      <point x="64" y="73"/>
      <point x="64" y="60" type="curve" smooth="yes"/>
      <point x="64" y="0"/>
      <point x="185" y="-8"/>
      <point x="220" y="-8" type="curve" smooth="yes"/>
    </contour>
    <contour>
      <point x="220" y="325"/>
      <point x="181" y="341"/>
      <point x="181" y="386" type="curve" smooth="yes"/>
      <point x="181" y="402"/>
      <point x="184" y="418"/>
      <point x="192" y="432" type="curve"/>
      <point x="237" y="416"/>
      <point x="276" y="400"/>
      <point x="276" y="354" type="curve" smooth="yes"/>
      <point x="276" y="338"/>
      <point x="273" y="322"/>
      <point x="266" y="308" type="curve"/>
    </contour>
  </outline>
</glyph>
<glyph name="dieresis" format="1">
  <advance width="338"/>
  <unicode hex="00A8"/>
  <outline>
    <contour>
      <point x="309" y="612"/>
      <point x="328" y="623"/>
      <point x="328" y="645" type="curve" smooth="yes"/>
      <point x="328" y="708" type="line" smooth="yes"/>
      <point x="328" y="730"/>
      <point x="309" y="742"/>
      <point x="265" y="742" type="curve" smooth="yes"/>
      <point x="221" y="742"/>
      <point x="201" y="730"/>
      <point x="201" y="708" type="curve" smooth="yes"/>
      <point x="201" y="645" type="line" smooth="yes"/>
      <point x="201" y="623"/>
      <point x="221" y="612"/>
      <point x="265" y="612" type="curve" smooth="yes"/>
    </contour>
    <contour>
      <point x="119" y="612"/>
      <point x="138" y="623"/>
      <point x="138" y="645" type="curve" smooth="yes"/>
      <point x="138" y="708" type="line" smooth="yes"/>
      <point x="138" y="730"/>
      <point x="119" y="742"/>
      <point x="75" y="742" type="curve" smooth="yes"/>
      <point x="30" y="742"/>
      <point x="11" y="730"/>
      <point x="11" y="708" type="curve" smooth="yes"/>
      <point x="11" y="645" type="line" smooth="yes"/>
      <point x="11" y="623"/>
      <point x="30" y="612"/>
      <point x="75" y="612" type="curve" smooth="yes"/>
    </contour>
    <contour>
      <point x="170" y="552" type="move" name="_top"/>
    </contour>
  </outline>
</glyph>
<glyph name="copyright" format="1">
  <advance width="345"/>
  <unicode hex="00A9"/>
  <outline>
    <contour>
      <point x="172" y="-4" type="curve" smooth="yes"/>
      <point x="79" y="-4"/>
      <point x="5" y="71"/>
      <point x="5" y="163" type="curve" smooth="yes"/>
      <point x="5" y="256"/>
      <point x="79" y="330"/>
      <point x="172" y="330" type="curve" smooth="yes"/>
      <point x="264" y="330"/>
      <point x="339" y="256"/>
      <point x="339" y="163" type="curve" smooth="yes"/>
      <point x="339" y="71"/>
      <point x="264" y="-4"/>
    </contour>
    <contour>
      <point x="172" y="26" type="curve" smooth="yes"/>
      <point x="247" y="26"/>
      <point x="309" y="88"/>
      <point x="309" y="163" type="curve" smooth="yes"/>
      <point x="309" y="239"/>
      <point x="247" y="300"/>
      <point x="172" y="300" type="curve" smooth="yes"/>
      <point x="96" y="300"/>
      <point x="35" y="239"/>
      <point x="35" y="163" type="curve" smooth="yes"/>
      <point x="35" y="88"/>
      <point x="96" y="26"/>
    </contour>
    <contour>
      <point x="178" y="71" type="curve" smooth="yes"/>
      <point x="120" y="71"/>
      <point x="92" y="100"/>
      <point x="92" y="165" type="curve" smooth="yes"/>
      <point x="92" y="227"/>
      <point x="121" y="257"/>
      <point x="179" y="257" type="curve" smooth="yes"/>
      <point x="202" y="257"/>
      <point x="233" y="250"/>
      <point x="233" y="239" type="curve" smooth="yes"/>
      <point x="233" y="232"/>
      <point x="223" y="215"/>
      <point x="216" y="215" type="curve" smooth="yes"/>
      <point x="213" y="215"/>
      <point x="203" y="223"/>
      <point x="178" y="223" type="curve" smooth="yes"/>
      <point x="148" y="223"/>
      <point x="133" y="203"/>
      <point x="133" y="165" type="curve" smooth="yes"/>
      <point x="133" y="126"/>
      <point x="148" y="105"/>
      <point x="178" y="105" type="curve" smooth="yes"/>
      <point x="202" y="105"/>
      <point x="216" y="116"/>
      <point x="220" y="116" type="curve" smooth="yes"/>
      <point x="229" y="116"/>
      <point x="236" y="97"/>
      <point x="236" y="93" type="curve" smooth="yes"/>
      <point x="236" y="77"/>
      <point x="198" y="71"/>
    </contour>
  </outline>
</glyph>
<glyph name="ordfeminine" format="1">
  <advance width="149"/>
  <unicode hex="00AA"/>
  <outline>
    <contour>
      <point x="53.5" y="205" type="curve" smooth="yes"/>
      <point x="29" y="205"/>
      <point x="19.5" y="219.5"/>
      <point x="19.5" y="238.5" type="curve" smooth="yes"/>
      <point x="19.5" y="257.5"/>
      <point x="27.5" y="282"/>
      <point x="86" y="282" type="curve"/>
      <point x="86" y="289.5" type="line" smooth="yes"/>
      <point x="86" y="298.5"/>
      <point x="80.5" y="302.5"/>
      <point x="68" y="302.5" type="curve" smooth="yes"/>
      <point x="51" y="302.5"/>
      <point x="41" y="295.5"/>
      <point x="38" y="295.5" type="curve" smooth="yes"/>
      <point x="33.5" y="295.5"/>
      <point x="26.5" y="309"/>
      <point x="26.5" y="314" type="curve" smooth="yes"/>
      <point x="26.5" y="321.5"/>
      <point x="44.5" y="330"/>
      <point x="71" y="330" type="curve" smooth="yes"/>
      <point x="107" y="330"/>
      <point x="120" y="313.5"/>
      <point x="120" y="291" type="curve" smooth="yes"/>
      <point x="120" y="247.5" type="line" smooth="yes"/>
      <point x="120" y="223.5"/>
      <point x="123" y="218.5"/>
      <point x="123" y="214.5" type="curve" smooth="yes"/>
      <point x="123" y="208.5"/>
      <point x="103" y="206.5"/>
      <point x="97" y="206.5" type="curve" smooth="yes"/>
      <point x="90" y="206.5"/>
      <point x="89.5" y="216"/>
      <point x="88" y="222.5" type="curve"/>
      <point x="86.5" y="219.5"/>
      <point x="75" y="205"/>
    </contour>
    <contour>
      <point x="65" y="232" type="curve" smooth="yes"/>
      <point x="74" y="232"/>
      <point x="82.5" y="238"/>
      <point x="86" y="246.5" type="curve" smooth="yes"/>
      <point x="86" y="259" type="line"/>
      <point x="64.5" y="259"/>
      <point x="53.5" y="253.5"/>
      <point x="53.5" y="242.5" type="curve" smooth="yes"/>
      <point x="53.5" y="236.5"/>
      <point x="57.5" y="232"/>
    </contour>
  </outline>
</glyph>
<glyph name="guillemetleft" format="1">
  <advance width="838"/>
  <unicode hex="00AB"/>
  <outline>
    <contour>
      <point x="744" y="82"/>
      <point x="809" y="133"/>
      <point x="809" y="169" type="curve" smooth="yes"/>
      <point x="809" y="184"/>
      <point x="804" y="196"/>
      <point x="793" y="210" type="curve" smooth="yes"/>
      <point x="597" y="459" type="line"/>
      <point x="793" y="708" type="line" smooth="yes"/>
      <point x="804" y="722"/>
      <point x="809" y="734"/>
      <point x="809" y="747" type="curve" smooth="yes"/>
      <point x="809" y="788"/>
      <point x="738" y="834"/>
      <point x="704" y="834" type="curve" smooth="yes"/>
      <point x="686" y="834"/>
      <point x="672" y="827"/>
      <point x="657" y="809" type="curve" smooth="yes"/>
      <point x="430" y="537" type="line" smooth="yes"/>
      <point x="409" y="512"/>
      <point x="402" y="491"/>
      <point x="402" y="459" type="curve" smooth="yes"/>
      <point x="402" y="427"/>
      <point x="409" y="406"/>
      <point x="430" y="381" type="curve" smooth="yes"/>
      <point x="657" y="109" type="line" smooth="yes"/>
      <point x="672" y="91"/>
      <point x="688" y="82"/>
      <point x="704" y="82" type="curve" smooth="yes"/>
    </contour>
    <contour>
      <point x="389" y="82"/>
      <point x="455" y="133"/>
      <point x="455" y="169" type="curve" smooth="yes"/>
      <point x="455" y="184"/>
      <point x="450" y="196"/>
      <point x="440" y="210" type="curve" smooth="yes"/>
      <point x="244" y="459" type="line"/>
      <point x="440" y="708" type="line" smooth="yes"/>
      <point x="450" y="722"/>
      <point x="455" y="734"/>
      <point x="455" y="747" type="curve" smooth="yes"/>
      <point x="455" y="788"/>
      <point x="384" y="834"/>
      <point x="350" y="834" type="curve" smooth="yes"/>
      <point x="333" y="834"/>
      <point x="319" y="827"/>
      <point x="302" y="809" type="curve" smooth="yes"/>
      <point x="77" y="537" type="line" smooth="yes"/>
      <point x="56" y="512"/>
      <point x="48" y="491"/>
      <point x="48" y="459" type="curve" smooth="yes"/>
      <point x="48" y="427"/>
      <point x="56" y="406"/>
      <point x="77" y="381" type="curve" smooth="yes"/>
      <point x="302" y="109" type="line" smooth="yes"/>
      <point x="319" y="91"/>
      <point x="334" y="82"/>
      <point x="350" y="82" type="curve" smooth="yes"/>
    </contour>
  </outline>
</glyph>
<glyph name="guillemotleft" format="1">
  <advance width="498"/>
  <unicode hex="00AB"/>
  <outline>
    <contour>
      <point x="442" y="49"/>
      <point x="480" y="79"/>
      <point x="480" y="102" type="curve" smooth="yes"/>
      <point x="480" y="109"/>
      <point x="477" y="117"/>
      <point x="472" y="125" type="curve" smooth="yes"/>
      <point x="354" y="273" type="line"/>
      <point x="472" y="421" type="line" smooth="yes"/>
      <point x="477" y="428"/>
      <point x="480" y="436"/>
      <point x="480" y="444" type="curve" smooth="yes"/>
      <point x="480" y="468"/>
      <point x="438" y="496"/>
      <point x="418" y="496" type="curve" smooth="yes"/>
      <point x="408" y="496"/>
      <point x="399" y="491"/>
      <point x="390" y="481" type="curve" smooth="yes"/>
      <point x="256" y="319" type="line" smooth="yes"/>
      <point x="242" y="304"/>
      <point x="239" y="291"/>
      <point x="239" y="273" type="curve" smooth="yes"/>
      <point x="239" y="254"/>
      <point x="242" y="241"/>
      <point x="256" y="226" type="curve"/>
      <point x="390" y="65" type="line" smooth="yes"/>
      <point x="399" y="55"/>
      <point x="409" y="49"/>
      <point x="418" y="49" type="curve" smooth="yes"/>
    </contour>
    <contour>
      <point x="231" y="49"/>
      <point x="271" y="79"/>
      <point x="271" y="102" type="curve" smooth="yes"/>
      <point x="271" y="109"/>
      <point x="267" y="117"/>
      <point x="261" y="125" type="curve" smooth="yes"/>
      <point x="145" y="273" type="line"/>
      <point x="261" y="421" type="line" smooth="yes"/>
      <point x="267" y="428"/>
      <point x="271" y="436"/>
      <point x="271" y="444" type="curve" smooth="yes"/>
      <point x="271" y="468"/>
      <point x="228" y="496"/>
      <point x="209" y="496" type="curve" smooth="yes"/>
      <point x="197" y="496"/>
      <point x="189" y="491"/>
      <point x="179" y="481" type="curve" smooth="yes"/>
      <point x="45" y="319" type="line" smooth="yes"/>
      <point x="33" y="304"/>
      <point x="28" y="291"/>
      <point x="28" y="273" type="curve" smooth="yes"/>
      <point x="28" y="254"/>
      <point x="33" y="241"/>
      <point x="45" y="226" type="curve" smooth="yes"/>
      <point x="179" y="65" type="line" smooth="yes"/>
      <point x="189" y="55"/>
      <point x="198" y="49"/>
      <point x="209" y="49" type="curve" smooth="yes"/>
    </contour>
  </outline>
</glyph>
<glyph name="logicalnot" format="1">
  <advance width="261"/>
  <unicode hex="00AC"/>
  <outline>
    <contour>
      <point x="219" y="34" type="line" smooth="yes"/>
      <point x="206" y="34"/>
      <point x="201" y="39"/>
      <point x="201" y="49" type="curve" smooth="yes"/>
      <point x="201" y="113" type="line"/>
      <point x="28" y="113" type="line" smooth="yes"/>
      <point x="18" y="113"/>
      <point x="14" y="120"/>
      <point x="14" y="136" type="curve" smooth="yes"/>
      <point x="14" y="140" type="line" smooth="yes"/>
      <point x="14" y="156"/>
      <point x="18" y="163"/>
      <point x="28" y="163" type="curve" smooth="yes"/>
      <point x="229" y="163" type="line" smooth="yes"/>
      <point x="242" y="163"/>
      <point x="247" y="157"/>
      <point x="247" y="144" type="curve" smooth="yes"/>
      <point x="247" y="49" type="line" smooth="yes"/>
      <point x="247" y="39"/>
      <point x="242" y="34"/>
      <point x="229" y="34" type="curve" smooth="yes"/>
    </contour>
  </outline>
</glyph>
<glyph name="uni00AD" format="1">
  <advance width="149"/>
  <unicode hex="00AD"/>
  <outline>
    <contour>
      <point x="28" y="99" type="line" smooth="yes"/>
      <point x="18" y="99"/>
      <point x="14" y="106"/>
      <point x="14" y="122" type="curve" smooth="yes"/>
      <point x="14" y="126" type="line" smooth="yes"/>
      <point x="14" y="142"/>
      <point x="18" y="149"/>
      <point x="28" y="149" type="curve" smooth="yes"/>
      <point x="119" y="149" type="line" smooth="yes"/>
      <point x="129" y="149"/>
      <point x="133" y="142"/>
      <point x="133" y="126" type="curve" smooth="yes"/>
      <point x="133" y="122" type="line" smooth="yes"/>
      <point x="133" y="106"/>
      <point x="129" y="99"/>
      <point x="119" y="99" type="curve" smooth="yes"/>
    </contour>
  </outline>
</glyph>
